<svg width="67" height="62" viewBox="0 0 67 62" fill="none" xmlns="http://www.w3.org/2000/svg">
<path d="M43.5686 42.4777H41.9756V20.7485C41.9756 18.6704 40.0848 16.9802 37.7607 16.9802H35.5668V15.706C38.0569 14.9374 39.8505 12.8227 39.8505 10.339C39.8505 8.9474 39.2812 6.60972 38.4655 4.65469C37.1593 1.52261 35.5348 0 33.4996 0C31.4643 0 29.8404 1.52261 28.5336 4.65469C27.7179 6.60972 27.1486 8.9474 27.1486 10.339C27.1486 12.8227 28.9422 14.9374 31.4323 15.706V16.9802H29.2385C26.9143 16.9802 25.0235 18.6704 25.0235 20.748V42.4772H23.4306C22.2887 42.4772 21.3633 43.305 21.3633 44.3257V59.6912C21.3633 60.712 22.2887 61.5392 23.4306 61.5392H43.5686C44.7104 61.5392 45.6359 60.712 45.6359 59.6912V44.3257C45.6359 43.305 44.7104 42.4777 43.5686 42.4777ZM33.4996 3.97109C34.6178 5.36928 35.716 8.84457 35.716 10.339C35.716 11.4316 34.7218 12.3203 33.4996 12.3203C32.2774 12.3203 31.2831 11.4316 31.2831 10.339C31.2831 8.93566 32.321 5.44487 33.4996 3.97109ZM29.1581 20.7485C29.1581 20.7085 29.1943 20.6766 29.2385 20.6766H37.7607C37.8048 20.6766 37.8411 20.7085 37.8411 20.7485V42.4777H29.1581V20.7485ZM41.5013 57.8433H25.4978V46.1737H41.5013V57.8433Z" fill="white"/>
<path d="M38.3561 48.8025C37.4926 48.1343 36.1869 48.2184 35.4395 48.9903L33.5004 50.9932L31.5613 48.9903C30.8139 48.2184 29.5082 48.1343 28.6452 48.8025C27.7818 49.4706 27.6878 50.6378 28.4346 51.4092L31.9373 55.0262C32.7593 55.8751 34.2373 55.8798 35.0634 55.0262L38.5661 51.4092C39.313 50.6378 39.219 49.4706 38.3561 48.8025Z" fill="#DABD74"/>
<path d="M18.2588 19.5264H2.06727C0.925439 19.5264 0 20.3536 0 21.3743V36.5258C0 40.9021 3.47959 44.5652 8.09576 45.4216V57.8428H2.60615C1.46432 57.8428 0.538877 58.6701 0.538877 59.6908C0.538877 60.7115 1.46432 61.5388 2.60615 61.5388H17.7194C18.8612 61.5388 19.7866 60.7115 19.7866 59.6908C19.7866 58.6701 18.8612 57.8428 17.7194 57.8428H12.2303V45.4216C16.8465 44.5656 20.326 40.9026 20.326 36.5258C20.326 34.6346 20.326 23.1003 20.326 21.3743C20.326 20.3536 19.4006 19.5264 18.2588 19.5264ZM16.1915 23.2223V26.8986H4.13454V23.2223H16.1915ZM16.1915 36.5258C16.1915 39.4973 13.4871 41.9148 10.163 41.9148C6.8389 41.9148 4.13454 39.4973 4.13454 36.5258V30.5945H16.1915V36.5258Z" fill="#DABD74"/>
<path d="M64.9307 19.5273H48.7391C47.5973 19.5273 46.6719 20.3546 46.6719 21.3753V36.5268C46.6719 40.9035 50.1515 44.5666 54.7676 45.4225V57.8438H49.2785C48.1367 57.8438 47.2113 58.6711 47.2113 59.6918C47.2113 60.7125 48.1367 61.5398 49.2785 61.5398H64.3913C65.5331 61.5398 66.4585 60.7125 66.4585 59.6918C66.4585 58.6711 65.5331 57.8438 64.3913 57.8438H58.9022V45.4225C63.5183 44.5662 66.9979 40.9031 66.9979 36.5268C66.9979 34.6356 66.9979 23.1008 66.9979 21.3753C66.9979 20.3546 66.0725 19.5273 64.9307 19.5273ZM62.8634 23.2233V26.8995H50.8064V23.2233H62.8634ZM62.8634 36.5268C62.8634 39.4983 60.159 41.9158 56.8349 41.9158C53.5108 41.9158 50.8064 39.4983 50.8064 36.5268V30.5955H62.8634V36.5268Z" fill="#DABD74"/>
</svg>
