<svg width="67" height="68" viewBox="0 0 67 68" fill="none" xmlns="http://www.w3.org/2000/svg">
<g clip-path="url(#clip0)">
<path d="M33.5014 26.1027C30.4765 20.6268 25.724 17.0372 19.5937 17.0372C10.3828 17.0372 3.72266 24.6976 3.72266 34.0976C3.72266 45.4363 15.0101 53.9559 24.982 62.3252C26.5463 63.6381 28.1639 64.9957 29.8429 66.424C32.1864 68.4175 35.7029 68.406 38.0226 66.3975C55.359 51.389 63.2801 44.6245 63.2801 34.0974C63.2801 24.7027 56.6246 17.0371 47.4092 17.0371C41.2771 17.0374 36.5253 20.629 33.5014 26.1027ZM33.5014 32.453C35.6664 32.453 37.4277 34.2143 37.4277 36.3793C37.4277 38.5442 35.6664 40.3056 33.5014 40.3056C31.3365 40.3056 29.5751 38.5442 29.5751 36.3793C29.5751 34.2143 31.3365 32.453 33.5014 32.453ZM35.4527 63.4293C34.5852 64.1804 33.2672 64.1823 32.3869 63.4336C30.6981 61.9968 25.7901 57.8775 24.9651 57.182C25.4347 56.923 25.8756 56.5971 26.2709 56.2017C27.4151 55.0575 28.0393 53.4693 27.9833 51.8442C27.9559 51.0495 27.7663 50.2748 27.4386 49.5644C29.3133 48.6406 31.3761 48.1582 33.5014 48.1582C35.7164 48.1582 37.8565 48.6805 39.7892 49.6784C38.7394 51.8781 39.0979 54.5679 40.9202 56.3902C41.3499 56.8199 41.8308 57.1665 42.3426 57.4359C40.2581 59.269 37.9658 61.2537 35.4527 63.4293ZM47.4093 20.9637C54.2188 20.9637 59.3539 26.6101 59.3539 34.0977C59.3539 40.5338 55.4698 45.5378 46.5012 53.7208C46.2393 53.802 44.8856 54.8028 43.6967 53.6139C42.9023 52.8195 42.9565 51.5061 43.7889 50.7495C51.6747 43.5831 55.4277 39.2524 55.4277 34.0235H51.5014C51.5014 37.1722 49.2642 40.3382 42.4397 46.6592C39.7372 45.0684 36.6787 44.2319 33.5014 44.2319C30.4114 44.2319 27.4239 45.0269 24.7714 46.5388C19.0159 41.4316 15.5013 37.4993 15.5013 34.0235H11.575C11.575 39.2423 15.9014 44.0306 23.3743 50.5379C24.2388 51.2906 24.297 52.6229 23.4946 53.4254C22.2679 54.6518 20.6525 53.5021 20.6656 53.5017C12.6291 46.4684 7.64896 40.8894 7.64896 34.0977C7.64896 26.6101 12.784 20.9637 19.5937 20.9637C25.7722 20.9637 29.1016 25.8442 30.6274 29.0738C27.7154 30.2235 25.6488 33.0638 25.6488 36.3794C25.6488 40.7093 29.1715 44.232 33.5014 44.232C37.8314 44.232 41.354 40.7093 41.354 36.3794C41.354 33.0638 39.2874 30.2236 36.3755 29.0738C37.9013 25.8441 41.2306 20.9637 47.4093 20.9637Z" fill="#DABD74"/>
<path d="M15.8332 0.912109C13.7322 0.912109 11.7529 1.75967 10.2598 3.29865C8.79006 4.81355 7.98059 6.80117 7.98059 8.89559C7.98059 13.2255 11.5033 16.7482 15.8332 16.7482C20.1631 16.7482 23.6858 13.2255 23.6858 8.89559C23.6858 6.80117 22.8763 4.81355 21.4066 3.29865C19.9135 1.75967 17.9342 0.912109 15.8332 0.912109ZM15.8332 12.8219C13.6682 12.8219 11.9069 11.0606 11.9069 8.89559C11.9069 6.69634 13.7049 4.83841 15.8332 4.83841C17.9615 4.83841 19.7595 6.69634 19.7595 8.89559C19.7595 11.0606 17.9982 12.8219 15.8332 12.8219Z" fill="white"/>
<path d="M59.0226 8.89559C59.0226 6.80117 58.2131 4.81355 56.7434 3.29865C55.2503 1.75967 53.2709 0.912109 51.17 0.912109C49.069 0.912109 47.0896 1.75967 45.5966 3.29865C44.1269 4.81355 43.3174 6.80117 43.3174 8.89559C43.3174 13.2255 46.8401 16.7482 51.17 16.7482C55.4999 16.7482 59.0226 13.2255 59.0226 8.89559ZM47.2437 8.89559C47.2437 6.69634 49.0417 4.83841 51.17 4.83841C53.2983 4.83841 55.0963 6.69634 55.0963 8.89559C55.0963 11.0606 53.3349 12.8219 51.17 12.8219C49.005 12.8219 47.2437 11.0606 47.2437 8.89559Z" fill="white"/>
</g>
<defs>
<clipPath id="clip0">
<rect width="67" height="67" fill="white" transform="translate(0 0.912109)"/>
</clipPath>
</defs>
</svg>
