<svg width="67" height="68" viewBox="0 0 67 68" fill="none" xmlns="http://www.w3.org/2000/svg">
<g clip-path="url(#clip0)">
<path d="M65.0299 55.58H64.8903V28.1163C64.8903 22.3983 60.2384 17.7464 54.5205 17.7464H39.7899C51.9161 6.19937 40.1835 -3.41547 33.4996 2.93433C26.8177 -3.41586 15.0897 6.20329 27.2142 17.7464H12.4834C6.7655 17.7464 2.11363 22.3983 2.11363 28.1163V55.5801H1.97404C0.890315 55.5801 0.0117188 56.4608 0.0117188 57.5445C0.0117188 63.2613 4.66359 67.9121 10.3815 67.9121H56.6226C62.3405 67.9121 66.9924 63.2602 66.9924 57.5423C66.9922 56.4586 66.1138 55.58 65.0299 55.58ZM25.8589 7.69806C25.8589 6.13095 27.1331 4.8561 28.6994 4.8561C30.8582 4.8561 31.519 6.93288 31.6009 7.22383C31.8084 8.11106 32.5903 8.73927 33.5021 8.73927H33.5049C34.4177 8.73796 35.1993 8.10766 35.4045 7.21899C35.4858 6.92804 36.1406 4.8561 38.3049 4.8561C39.8711 4.8561 41.1453 6.13095 41.1453 7.69806C41.1453 11.5978 36.1698 16.2373 33.5021 17.6407C30.955 16.3009 25.8589 11.6795 25.8589 7.69806ZM6.03826 28.1163C6.03826 24.5624 8.92955 21.6711 12.4834 21.6711H54.5206C58.0745 21.6711 60.9658 24.5624 60.9658 28.1163V40.9902C60.8513 43.9659 56.5948 43.96 56.483 40.9902V32.3201C56.159 24.1363 44.4686 24.1487 44.1508 32.3201V36.5239C44.0369 39.4984 39.7806 39.495 39.668 36.5239V32.3201C39.3208 24.0989 27.6489 24.1843 27.3358 32.3201C27.3358 33.5559 26.3304 34.5614 25.0945 34.5614C23.8586 34.5614 22.8531 33.5559 22.8531 32.3199C22.5153 24.1406 10.8582 24.1418 10.521 32.3199V44.9311C10.4069 47.9057 6.15064 47.9022 6.03813 44.9311V28.1163H6.03826ZM6.03826 50.6702C9.92824 52.2661 14.5062 49.2667 14.4458 44.9311V32.3199C14.4458 31.0841 15.4513 30.0786 16.6871 30.0786C17.923 30.0786 18.9285 31.0841 18.9285 32.3199C18.9285 35.72 21.6946 38.4861 25.0945 38.4861C28.4944 38.4861 31.2605 35.72 31.2605 32.3199C31.2605 31.0841 32.266 30.0786 33.5018 30.0786C34.7235 30.0786 35.7432 31.0617 35.7432 32.3199V36.5238C36.0658 44.7044 47.7557 44.6986 48.0753 36.5238V32.3199C48.1882 29.3481 52.4446 29.3464 52.5582 32.3199V40.9901C52.4978 45.3262 57.0762 48.3249 60.9657 46.7292V55.58H6.03826V50.6702ZM56.6226 63.9875H10.3815C7.51157 63.9875 5.07372 62.1022 4.2417 59.5046H62.7623C61.9302 62.1019 59.4925 63.9875 56.6226 63.9875Z" fill="#DABD74"/>
<mask id="mask0" mask-type="alpha" maskUnits="userSpaceOnUse" x="0" y="0" width="67" height="68">
<path d="M65.0289 55.58H64.8894V28.1163C64.8894 22.3983 60.2375 17.7464 54.5195 17.7464H39.7889C51.9151 6.19937 40.1826 -3.41547 33.4986 2.93433C26.8167 -3.41586 15.0887 6.20329 27.2132 17.7464H12.4825C6.76452 17.7464 2.11265 22.3983 2.11265 28.1163V55.5801H1.97306C0.889338 55.5801 0.0107422 56.4608 0.0107422 57.5445C0.0107422 63.2613 4.66262 67.9121 10.3806 67.9121H56.6216C62.3395 67.9121 66.9914 63.2602 66.9914 57.5423C66.9913 56.4586 66.1128 55.58 65.0289 55.58ZM25.8579 7.69806C25.8579 6.13095 27.1321 4.8561 28.6984 4.8561C30.8572 4.8561 31.518 6.93288 31.5999 7.22383C31.8074 8.11106 32.5893 8.73927 33.5011 8.73927H33.5039C34.4167 8.73796 35.1983 8.10766 35.4035 7.21899C35.4848 6.92804 36.1397 4.8561 38.304 4.8561C39.8702 4.8561 41.1444 6.13095 41.1444 7.69806C41.1444 11.5978 36.1688 16.2373 33.5011 17.6407C30.954 16.3009 25.8579 11.6795 25.8579 7.69806ZM6.03729 28.1163C6.03729 24.5624 8.92857 21.6711 12.4825 21.6711H54.5197C58.0736 21.6711 60.9648 24.5624 60.9648 28.1163V40.9902C60.8504 43.9659 56.5938 43.96 56.482 40.9902V32.3201C56.1581 24.1363 44.4676 24.1487 44.1499 32.3201V36.5239C44.0359 39.4984 39.7796 39.495 39.667 36.5239V32.3201C39.3198 24.0989 27.6479 24.1843 27.3349 32.3201C27.3349 33.5559 26.3294 34.5614 25.0935 34.5614C23.8576 34.5614 22.8521 33.5559 22.8521 32.3199C22.5144 24.1406 10.8573 24.1418 10.52 32.3199V44.9311C10.4059 47.9057 6.14966 47.9022 6.03716 44.9311V28.1163H6.03729ZM6.03729 50.6702C9.92726 52.2661 14.5052 49.2667 14.4448 44.9311V32.3199C14.4448 31.0841 15.4503 30.0786 16.6861 30.0786C17.922 30.0786 18.9275 31.0841 18.9275 32.3199C18.9275 35.72 21.6936 38.4861 25.0935 38.4861C28.4934 38.4861 31.2595 35.72 31.2595 32.3199C31.2595 31.0841 32.265 30.0786 33.5009 30.0786C34.7225 30.0786 35.7422 31.0617 35.7422 32.3199V36.5238C36.0648 44.7044 47.7548 44.6986 48.0744 36.5238V32.3199C48.1873 29.3481 52.4437 29.3464 52.5572 32.3199V40.9901C52.4968 45.3262 57.0753 48.3249 60.9647 46.7292V55.58H6.03729V50.6702ZM56.6216 63.9875H10.3806C7.5106 63.9875 5.07274 62.1022 4.24072 59.5046H62.7613C61.9293 62.1019 59.4915 63.9875 56.6216 63.9875Z" fill="black"/>
</mask>
<g mask="url(#mask0)">
<rect x="6" y="25.9121" width="55" height="28" rx="2" fill="white"/>
</g>
</g>
<defs>
<clipPath id="clip0">
<rect width="67" height="67" fill="white" transform="translate(0 0.912109)"/>
</clipPath>
</defs>
</svg>
