<svg width="67" height="68" viewBox="0 0 67 68" fill="none" xmlns="http://www.w3.org/2000/svg">
<g clip-path="url(#clip0)">
<path d="M19.6619 9.87891L6.69974 56.1763C4.93458 55.9316 3.07899 56.4875 1.72473 57.8445C0.612553 58.9588 0 60.4403 0 62.0164C0 63.5925 0.612553 65.0741 1.7246 66.1883C2.8721 67.3379 4.37895 67.9127 5.88619 67.9127C7.39316 67.9127 8.90053 67.3377 10.0476 66.1883C11.1599 65.0741 11.7724 63.5924 11.7724 62.0163C11.7724 61.7415 11.7537 61.4697 11.717 61.2021L57.9242 48.2152L19.6619 9.87891ZM7.27408 63.4047C6.50895 64.1714 5.26356 64.1715 4.49816 63.4047C4.12796 63.0339 3.92408 62.5408 3.92408 62.0164C3.92408 61.4921 4.12796 60.999 4.49829 60.6281C4.88092 60.2447 5.38355 60.053 5.88619 60.053C6.38882 60.053 6.89145 60.2447 7.27408 60.6281C7.64441 60.9991 7.84829 61.4921 7.84829 62.0164C7.84829 62.5406 7.64441 63.0337 7.27408 63.4047ZM37.4203 49.8914L10.4096 57.4829L17.9377 30.5946H21.0445V38.7983H29.2325V47.002H37.4204V49.8914H37.4203ZM33.1566 43.0671V34.8634H24.9686V26.6597H19.0394L21.6286 17.4121L50.4034 46.2425L41.3445 48.7886V43.0672H33.1566V43.0671Z" fill="#DABD74"/>
<path d="M36.3388 0.912109L32.5414 1.90429C32.607 2.16548 34.0899 8.35997 28.8867 13.276L31.5777 16.14C38.5165 9.58416 36.4309 1.26321 36.3388 0.912109Z" fill="white"/>
<path d="M43.1484 6.0918H47.0727V10.0269H43.1484V6.0918Z" fill="white"/>
<path d="M59.4648 18.4062H63.3891V22.3413H59.4648V18.4062Z" fill="white"/>
<path d="M57.5029 36.9453H61.427V40.8804H57.5029V36.9453Z" fill="white"/>
<path d="M52.827 28.5567C49.4764 29.9756 47.5677 31.9392 47.4882 32.0222L50.3147 34.7518C50.3728 34.6912 56.2408 28.7327 65.7326 31.9813L67.0001 28.257C60.8448 26.1506 55.8955 27.2572 52.827 28.5567Z" fill="white"/>
<path d="M41.3223 25.3884C41.5024 25.3318 45.7897 23.9646 50.5765 20.3996C56.9435 15.6575 61.194 9.23313 62.8686 1.82073L59.0415 0.951172C57.5661 7.48158 53.9679 12.9345 48.3468 17.1582C44.0809 20.3636 40.1872 21.6212 40.1483 21.6335L40.7272 23.4793L41.3223 25.3884Z" fill="white"/>
</g>
<defs>
<clipPath id="clip0">
<rect width="67" height="67" fill="white" transform="translate(0 0.912109)"/>
</clipPath>
</defs>
</svg>
