<svg width="79" height="80" viewBox="0 0 79 80" fill="none" xmlns="http://www.w3.org/2000/svg">
<g clip-path="url(#clip0)">
<path d="M47.729 50.945C46.0832 50.945 44.4373 50.2867 43.4498 49.2992L40.1582 46.0076C39.4998 45.3492 39.4998 44.3617 40.1582 43.7034C40.8165 43.0451 41.804 43.0451 42.4623 43.7034L45.754 46.9951C46.7415 47.9825 48.7165 47.9825 50.0332 46.9951C51.3498 45.6784 51.3498 44.0325 50.0332 42.7159L40.1582 32.8409C39.4998 32.1826 39.4998 31.1951 40.1582 30.5367C40.8165 29.8784 41.804 29.8784 42.4623 30.5367L52.3373 40.4117C54.6415 42.7159 54.6415 46.6659 52.3373 49.2992C51.0207 50.2867 49.3748 50.945 47.729 50.945Z" fill="#DABD74"/>
<path d="M11.5193 28.8916C10.8609 28.8916 10.2026 28.5625 9.87344 27.9041C9.54427 26.9166 9.87344 26.2583 10.8609 25.6L25.0151 19.675C27.9776 18.3583 31.5984 19.0166 33.9026 21.3208L35.8776 23.2958C36.5359 23.9541 36.5359 24.9416 35.8776 25.6C35.2193 26.2583 34.2318 26.2583 33.5734 25.6L31.5984 23.9541C30.2818 22.6375 27.9776 22.3083 26.3318 22.9666L12.1776 28.8916C11.8484 28.8916 11.8484 28.8916 11.5193 28.8916Z" fill="#DABD74"/>
<path d="M35.5479 35.4737C33.9021 35.4737 32.5854 34.8154 31.2688 33.8279C29.9521 32.1821 29.2938 30.2071 29.6229 28.2321C29.9521 26.2571 30.9396 24.6112 32.9146 23.9529L44.4354 18.3571C46.7396 17.3696 49.0438 17.0404 51.3479 18.0279L68.4646 24.9404C69.4521 25.2696 69.7813 26.2571 69.4521 27.2446C69.1229 28.2321 68.1354 28.5612 67.1479 28.2321L50.0313 21.3196C48.7146 20.6612 47.0688 20.6612 46.0813 21.3196L34.5604 26.9154C33.5729 27.2446 32.9146 27.9029 32.9146 28.8904C32.9146 29.8779 32.9146 30.5362 33.5729 31.1946C34.5604 32.182 35.8771 32.182 36.8646 31.8529L47.0688 26.5862C47.7271 26.2571 48.7146 26.5862 49.3729 27.2446C49.7021 27.9029 49.3729 28.8904 48.7146 29.5487L38.5104 34.8154C37.5229 35.1446 36.5354 35.4737 35.5479 35.4737Z" fill="#DABD74"/>
<path d="M41.1458 57.1997C39.5 57.1997 37.8542 56.5413 36.8667 55.2247L32.5875 50.9455C31.9292 50.2872 31.9292 49.2997 32.5875 48.6413C33.2458 47.983 34.2333 47.983 34.8917 48.6413L39.1708 52.9205C40.1583 53.908 42.1333 53.908 43.45 52.9205C44.7667 51.933 44.4375 49.958 43.45 48.6413L40.1583 45.3497C39.5 44.6913 39.5 43.7038 40.1583 43.0455C40.8167 42.3872 41.8042 42.3872 42.4625 43.0455L45.7542 46.3372C48.0583 48.6413 48.0583 52.5913 45.7542 55.2247C44.4375 56.5413 42.7917 57.1997 41.1458 57.1997Z" fill="#DABD74"/>
<path d="M33.9042 63.1243C32.2583 63.1243 30.9417 62.466 29.625 61.4785L22.0542 54.5659C19.0917 51.9326 15.4708 50.616 11.5208 50.616C10.5333 50.2868 9.875 49.6285 9.875 48.641C9.875 47.6535 10.5333 46.9951 11.5208 46.9951C16.1292 46.9951 20.7375 48.641 24.3583 51.9326L31.9292 58.8451C33.2458 59.8326 34.8917 59.8326 36.2083 58.8451C37.525 57.5285 37.525 55.8826 36.2083 54.5659L32.9167 51.2743C32.2583 50.616 32.2583 49.6285 32.9167 48.9701C33.575 48.3118 34.5625 48.3118 35.2208 48.9701L38.5125 52.2618C40.8167 54.566 40.8167 58.516 38.5125 61.1493C37.1958 62.466 35.55 63.1243 33.9042 63.1243Z" fill="#DABD74"/>
<path d="M59.5805 51.9318C58.593 51.9318 57.9346 51.9318 56.9471 51.6026L50.693 49.6276C49.7055 49.2984 49.3763 48.3109 49.7055 47.6526C50.0346 46.6651 51.0221 46.3359 51.6805 46.6651L57.9346 48.6401C59.5805 49.2984 61.5555 48.9693 62.8721 47.6526L66.493 44.3609C67.1513 43.7026 68.1388 43.7026 68.7971 44.3609C69.4555 45.0193 69.4555 46.0068 68.7971 46.6651L65.1763 49.9568C63.2013 51.2734 61.2263 51.9318 59.5805 51.9318Z" fill="#DABD74"/>
<path d="M77.3529 53.5788H67.4779C66.4904 53.5788 65.832 52.9204 65.832 51.9329V22.3079C65.832 21.3204 66.4904 20.6621 67.4779 20.6621H77.3529C78.3404 20.6621 78.9987 21.3204 78.9987 22.3079V51.9329C78.9987 52.9204 78.3404 53.5788 77.3529 53.5788ZM69.1237 50.2871H75.707V23.9538H69.1237V50.2871Z" fill="white"/>
<path d="M11.5208 53.5788H1.64583C0.658333 53.5788 0 52.9204 0 51.9329V22.3079C0 21.3204 0.658333 20.6621 1.64583 20.6621H11.5208C12.5083 20.6621 13.1667 21.3204 13.1667 22.3079V51.9329C13.1667 52.9204 12.5083 53.5788 11.5208 53.5788ZM3.29167 50.2871H9.875V23.9538H3.29167V50.2871Z" fill="white"/>
</g>
<defs>
<clipPath id="clip0">
<rect width="79" height="79" fill="white" transform="translate(0 0.912109)"/>
</clipPath>
</defs>
</svg>
