<svg width="54" height="87" viewBox="0 0 54 87" fill="none" xmlns="http://www.w3.org/2000/svg">
<path d="M29.3273 32.1758C38.6683 32.9828 46.6501 38.5437 50.8456 46.4314C45.8123 47.5336 40.8869 49.8358 36.0449 52.6384C34.2639 45.6915 33.6297 39.0632 29.3273 32.1758ZM51.7954 48.4102C53.2141 51.6956 54 55.3175 54 59.1242C54 64.0554 52.6816 68.6787 50.3781 72.6596C47.5001 71.5915 43.3931 69.1191 40.1959 63.3985C38.715 60.7497 37.69 58.1788 36.8997 55.6589C41.3548 52.5384 46.1954 49.92 51.7954 48.4102ZM44.5751 79.6519C39.8463 83.7179 33.698 86.1758 26.9755 86.1758C19.3413 86.1758 12.4475 83.0062 7.53295 77.9112C16.7453 73.5537 24.0957 65.7042 32.4525 59.0082C32.9916 62.0031 33.8315 65.3115 35.1649 68.8441C37.4203 74.8208 41.4814 78.0102 44.5751 79.6519ZM0 57.5053C0.410563 50.5443 3.45009 44.2914 8.1389 39.7278C11.2626 36.6869 15.1189 34.3961 19.4171 33.1456C22.5135 32.245 25.4765 32.0605 26.9907 35.7266C27.5217 37.0124 27.6434 38.6088 27.4322 40.387C26.0777 51.7945 11.0315 70.7338 2.64129 63.8088C0.807307 62.2951 0.0848226 60.0153 0 57.5053ZM30.7575 41.4598C31.0449 43.0916 31.2296 44.5404 31.3041 45.5985C31.4547 47.7351 31.4194 51.0319 31.8899 55.1629C28.8399 57.091 25.8212 59.1392 22.8278 61.1277C24.1762 59.3046 26.1317 56.0891 28.3794 50.6341C29.8887 46.97 30.5425 43.8996 30.7575 41.4598Z" fill="url(#paint0_linear)"/>
<path d="M30.1183 30.4648C30.1183 30.4648 26.475 28.4576 24.6595 23.7478C22.8442 19.0366 22.3043 12.5605 16.8088 6.28025C11.3135 4.00543e-05 11.3135 4.00543e-05 11.3135 4.00543e-05C11.3135 4.00543e-05 7.68267 9.51902 13.865 16.6824C20.0473 23.8458 24.3159 25.5631 24.3159 25.5631L24.9539 26.7158C24.9539 26.7158 23.9479 26.1524 22.4269 25.4652C20.9057 24.7779 19.9739 23.8948 16.245 21.6875C12.5156 19.4789 10.1115 19.038 7.21659 19.185C4.32171 19.3319 0.592773 20.9513 0.592773 20.9513C0.592773 20.9513 4.81242 24.337 9.08119 25.2202C13.35 26.1034 20.17 25.5631 20.857 25.6611C21.5442 25.7591 23.163 26.5443 25.0767 27.9187C26.9902 29.2932 28.1068 30.2253 28.1068 30.2253C28.5771 30.2662 29.2979 30.2907 30.1183 30.4648Z" fill="url(#paint1_linear)"/>
<path d="M35.6357 5.71324C40.0283 6.61819 42.3957 12.169 40.9226 18.1131C39.4498 24.0572 34.6944 28.1437 30.3014 27.2388C29.7501 27.1258 29.2304 26.9394 28.7465 26.6876C27.0737 22.7059 26.8815 17.9457 28.5474 13.0454C28.9066 11.988 29.3407 10.9606 29.8409 9.9699C28.4795 11.8097 27.385 13.8455 26.6429 16.0269C25.7857 18.5485 25.4786 21.0293 25.6555 23.3604C24.5351 21.0606 24.23 18.0056 25.0145 14.8389C26.4875 8.89484 31.243 4.80965 35.6357 5.71324Z" fill="url(#paint2_linear)"/>
<defs>
<linearGradient id="paint0_linear" x1="-3.51567" y1="29.5133" x2="57.086" y2="84.3184" gradientUnits="userSpaceOnUse">
<stop stop-color="#CFA550"/>
<stop offset="0.100775" stop-color="#DCBA56"/>
<stop offset="0.147287" stop-color="#FDE064"/>
<stop offset="0.217054" stop-color="#FFFA99"/>
<stop offset="0.255814" stop-color="#FDE064"/>
<stop offset="0.348837" stop-color="#DCBA56"/>
<stop offset="0.51938" stop-color="#CFA550"/>
<stop offset="0.689922" stop-color="#FDE064"/>
<stop offset="0.782946" stop-color="#FFFA99"/>
<stop offset="0.829457" stop-color="#FDE064"/>
<stop offset="0.899225" stop-color="#CFA550"/>
<stop offset="1" stop-color="#CFA550"/>
</linearGradient>
<linearGradient id="paint1_linear" x1="-1.80949" y1="-0.955259" x2="32.2562" y2="28.9026" gradientUnits="userSpaceOnUse">
<stop stop-color="#CFA550"/>
<stop offset="0.100775" stop-color="#DCBA56"/>
<stop offset="0.147287" stop-color="#FDE064"/>
<stop offset="0.217054" stop-color="#FFFA99"/>
<stop offset="0.255814" stop-color="#FDE064"/>
<stop offset="0.348837" stop-color="#DCBA56"/>
<stop offset="0.51938" stop-color="#CFA550"/>
<stop offset="0.689922" stop-color="#FDE064"/>
<stop offset="0.782946" stop-color="#FFFA99"/>
<stop offset="0.829457" stop-color="#FDE064"/>
<stop offset="0.899225" stop-color="#CFA550"/>
<stop offset="1" stop-color="#CFA550"/>
</linearGradient>
<linearGradient id="paint2_linear" x1="23.8269" y1="5.70371" x2="42.4085" y2="25.4425" gradientUnits="userSpaceOnUse">
<stop stop-color="#CFA550"/>
<stop offset="0.100775" stop-color="#DCBA56"/>
<stop offset="0.147287" stop-color="#FDE064"/>
<stop offset="0.217054" stop-color="#FFFA99"/>
<stop offset="0.255814" stop-color="#FDE064"/>
<stop offset="0.348837" stop-color="#DCBA56"/>
<stop offset="0.51938" stop-color="#CFA550"/>
<stop offset="0.689922" stop-color="#FDE064"/>
<stop offset="0.782946" stop-color="#FFFA99"/>
<stop offset="0.829457" stop-color="#FDE064"/>
<stop offset="0.899225" stop-color="#CFA550"/>
<stop offset="1" stop-color="#CFA550"/>
</linearGradient>
</defs>
</svg>
