<svg width="160" height="160" fill="none" xmlns="http://www.w3.org/2000/svg"><g clip-path="url(#clip0)"><path d="M28.512 111.3l-8.552 19.744-17.502 9.506a4.688 4.688 0 00.418 8.439l25.288 10.645a4.687 4.687 0 006.303-5.684l-5.864-19.276 8.46-19.529a22.11 22.11 0 004.676.506 22.33 22.33 0 008.438-1.665 22.212 22.212 0 0012.17-12.029l9.315-22.13-51.93 17.31c.99 5.585 4.08 10.711 8.78 14.163zm94.541-82.5a4.682 4.682 0 006.457-1.497l8.093-12.976a4.686 4.686 0 10-7.954-4.96l-8.093 12.975a4.688 4.688 0 001.497 6.457zm-18.283-8.155a4.689 4.689 0 005.624 3.508 4.686 4.686 0 003.508-5.624L110.449 3.63a4.688 4.688 0 00-9.132 2.116l3.453 14.898zm27.018 17.577a4.688 4.688 0 005.624 3.507l14.898-3.453a4.686 4.686 0 003.508-5.624 4.684 4.684 0 00-5.624-3.508l-14.898 3.453a4.688 4.688 0 00-3.508 5.625zM49.3 25.673a4.604 4.604 0 100-9.208 4.604 4.604 0 000 9.208zm-15.491-8.736a4.604 4.604 0 100-9.208 4.604 4.604 0 000 9.208zm-4.805 16.734a4.604 4.604 0 100-9.208 4.604 4.604 0 000 9.208z" fill="#DABD74"/><path d="M134.159 73.431l-15.626-37.118a4.686 4.686 0 00-6.138-2.502L80 47.45 47.605 33.812a4.684 4.684 0 00-6.139 2.5l-20.33 48.295c-.344.815-.63 1.64-.87 2.47L76.5 68.332l5.062-12.025 52.596 17.124zm-80.193-9.727a4.604 4.604 0 110-9.208 4.604 4.604 0 010 9.208z" fill="#C4C4C4"/><path d="M157.543 140.55l-17.503-9.507-8.552-19.743c8.075-5.93 11.404-16.796 7.474-26.447l-56.212-18.3 14.904 35.403a22.213 22.213 0 0012.169 12.03 22.33 22.33 0 008.438 1.665c1.566 0 3.133-.173 4.677-.506l8.46 19.529-5.864 19.276a4.688 4.688 0 006.303 5.684l25.288-10.645a4.688 4.688 0 00.418-8.439zm-40.028-44.192a4.604 4.604 0 11.001-9.207 4.604 4.604 0 01-.001 9.207z" fill="#DABD74"/></g><defs><clipPath id="clip0"><path fill="#fff" d="M0 0h160v160H0z"/></clipPath></defs></svg>