<svg width="160" height="160" fill="none" xmlns="http://www.w3.org/2000/svg"><g clip-path="url(#clip0)"><path d="M9.688 37.5h46.874v18.75H9.688V37.5zm0 28.125h46.874v65.625H9.688V65.625zm93.75-28.125h46.874v18.75h-46.874V37.5zm0 93.75h46.874V65.625h-46.874v65.625zm9.374-28.125h28.126v9.375h-28.126v-9.375z" fill="#DABD74"/><path d="M107.832 24.802a14.03 14.03 0 004.98-10.74C112.812 6.309 106.504 0 98.75 0c-6.162 0-11.554 3.946-13.403 9.814L80 26.68 74.653 9.814C72.804 3.946 67.412 0 61.25 0c-7.754 0-14.063 6.308-14.063 14.063 0 4.147 1.813 8.06 4.99 10.743L67.194 37.5h-1.257V160L80 145.938 94.063 160V37.5h-1.255l15.024-12.698zm-13.55-12.159a4.674 4.674 0 014.468-3.268 4.694 4.694 0 013.03 8.272L89.375 28.125l4.907-15.482zm-37.72 1.42a4.694 4.694 0 014.688-4.688 4.673 4.673 0 014.468 3.268l4.907 15.482-12.396-10.474a4.689 4.689 0 01-1.666-3.588z" fill="#C4C4C4"/></g><defs><clipPath id="clip0"><path fill="#fff" d="M0 0h160v160H0z"/></clipPath></defs></svg>