<svg width="280" height="50" fill="none" xmlns="http://www.w3.org/2000/svg"><path fill-rule="evenodd" clip-rule="evenodd" d="M30.116 0c.091.345.183.658.276.938.091.28.184.55.275.809.046.302.115.582.207.841.092.258.184.56.275.905.644 1.855 1.586 4.41 2.826 7.667 1.24 3.255 2.55 6.63 3.928 10.123l.276.647.275.648a545.383 545.383 0 004.721 11.806c1.494 3.6 2.493 5.919 2.998 6.954.138.345.276.647.413.906.138.259.277.54.414.841.091.215.207.442.344.68.139.236.276.485.414.743.23.431.7.82 1.413 1.165.712.345 1.482.669 2.308.97.184.044.368.108.552.194.184.087.367.151.551.194.138.043.264.097.379.162.115.064.242.118.38.162l1.446.517H34.39l1.791-.646c.276-.044.575-.13.896-.26.322-.13.667-.258 1.034-.388a9.84 9.84 0 001.757-.776c.528-.302.862-.668 1-1.1v-.032c0-.022.022-.054.069-.097v-.194c0-.216-.047-.496-.138-.842-.092-.345-.222-.662-.345-.97L27.184 9.378l-.076-.04-.438-.993-7.03 16.95h9.176l1.371 3.364H18.193L13.37 40.756l-.103.291a.677.677 0 00-.035.226 3.516 3.516 0 00-.24.583 6.914 6.914 0 00-.173.647 19.2 19.2 0 00-.345 1.358c-.092.431-.138.755-.138.97v.195c.184.388.54.7 1.069.938.528.237 1.114.464 1.757.679.092 0 .184.01.276.032a.46.46 0 01.206.097c.23.087.46.162.69.227.23.065.436.14.62.227l1.86.646H0l1.515-.517a18.28 18.28 0 001.069-.324c.39-.13.77-.259 1.137-.388a16.56 16.56 0 002.205-.906c.69-.345 1.15-.711 1.378-1.1a4.38 4.38 0 00.345-.647c.092-.215.184-.409.276-.582.091-.129.16-.258.207-.388.046-.129.091-.28.137-.453.092-.172.172-.344.241-.517.07-.173.15-.367.242-.582a88.198 88.198 0 001.757-3.785c.575-1.315 1.16-2.663 1.757-4.043a225.366 225.366 0 001.93-4.27 628.782 628.782 0 006.478-15.623c1.93-4.852 3.124-7.946 3.584-9.284.138-.43.264-.818.38-1.164.114-.345.218-.69.31-1.035a.9.9 0 01.068-.355.89.89 0 00.069-.356 5.44 5.44 0 00.241-.712 9.36 9.36 0 00.172-.776L30.116 0z" fill="#000"/><path d="M97.492 9.157v20.619c0 7.598-1.923 12.857-5.768 15.778-3.845 2.92-8.23 4.358-13.155 4.314-4.71-.044-8.933-1.559-12.67-4.545-3.737-2.986-5.605-7.883-5.605-14.69V6.555c0-.11.022-.23.065-.362v-.725c0-.176-.011-.34-.033-.494a5.091 5.091 0 00-.097-.495 4.32 4.32 0 00-.194-.757 2.447 2.447 0 00-.389-.691 3.784 3.784 0 00-.389-.33 2.525 2.525 0 00-.583-.33 9.926 9.926 0 00-1.167-.494 30.922 30.922 0 01-1.296-.494c-.475-.132-.94-.263-1.393-.395a37.622 37.622 0 00-1.2-.33l-1.49-.526h21.97l-1.426.593c-.26.175-.562.307-.908.395-.345.088-.712.176-1.101.263a1.279 1.279 0 01-.26.1 1.256 1.256 0 00-.259.098c-.734.175-1.436.384-2.106.626-.67.241-1.134.516-1.393.824a.877.877 0 01-.162.23.885.885 0 00-.162.23c-.26.483-.41.978-.454 1.483a19.752 19.752 0 00-.065 1.68V30.83c0 5.27 1.177 9.047 3.532 11.33 2.355 2.285 5.368 3.712 9.04 4.283.346.044.67.077.972.099.303.022.606.033.908.033 3.586 0 6.74-1.35 9.461-4.052 2.722-2.7 4.083-6.313 4.083-10.837V5.963c0-.33-.043-.67-.13-1.022a3.652 3.652 0 00-.226-.79 4.635 4.635 0 00-.422-.79 2.237 2.237 0 00-.389-.297 7.858 7.858 0 00-.648-.362 21.966 21.966 0 00-1.07-.428c-.41-.154-.83-.319-1.263-.495a12.684 12.684 0 01-1.458-.46c-.453-.176-.853-.33-1.198-.462L85.503.132h20.219l-1.296.724a4.63 4.63 0 01-1.199.527c-.453.132-.918.286-1.393.461-.734.22-1.437.45-2.106.692-.67.242-1.113.517-1.329.824-.172.22-.313.604-.421 1.153-.108.549-.205 1.13-.292 1.745a20.11 20.11 0 00-.162 1.812c-.022.55-.032.933-.032 1.153v-.066zm34.735 17.062l-1.295.264 7.193 8.102c.778.922 1.501 1.768 2.171 2.536.669.769 1.328 1.526 1.976 2.273.173.22.357.428.551.626.195.198.378.406.551.626a40.786 40.786 0 001.652 1.712c.584.571 1.199 1.186 1.848 1.845.388.351.723.67 1.004.955.281.286.572.56.875.824.173.131.335.263.486.395.151.132.335.264.55.395.389.264.832.538 1.329.824a43.53 43.53 0 001.912 1.02l1.75.791-2.139.527a.708.708 0 01-.324.066h-.454c-.691 0-1.544-.12-2.559-.362a40.173 40.173 0 01-3.143-.89c-1.21-.482-2.668-1.602-4.374-3.36a197.465 197.465 0 01-5.282-5.664.53.53 0 00-.13-.1c-.043-.021-.065-.054-.065-.098-.389-.395-.756-.79-1.101-1.186l-1.037-1.185-9.462-10.277h-1.749V42.49c0 .747.032 1.395.097 1.944.064.549.313 1.087.745 1.614.259.351.723.648 1.393.89.67.24 1.372.45 2.107.625.129.044.248.088.356.132a.936.936 0 00.356.066c.346.087.67.186.972.296.303.11.583.209.843.296l1.425.527h-21.969l1.491-.46a8.016 8.016 0 001.199-.264c.454-.132.918-.264 1.394-.395.475-.176.928-.341 1.36-.495a6.664 6.664 0 001.102-.494c.259-.088.464-.197.615-.329.152-.132.271-.242.357-.33a2.32 2.32 0 00.454-.889c.086-.33.151-.67.194-1.02V6.588c0-.57-.033-1.098-.097-1.581-.065-.483-.27-.945-.616-1.384-.302-.351-.788-.691-1.458-1.02a37.871 37.871 0 00-2.106-.956 47.78 47.78 0 00-1.264-.494l-1.134-.428-1.425-.593h11.794c.648.044 1.253.054 1.815.032a44.096 44.096 0 001.684-.098h.519c.475 0 .95-.011 1.426-.033a32.45 32.45 0 012.948 0c.497.022 1.026.055 1.588.099.345.044.681.088 1.005.132.323.043.658.087 1.003.131 2.593.571 4.991 1.955 7.194 4.15 2.204 2.196 3.305 5.249 3.305 9.157 0 2.987-.723 5.336-2.171 7.05-1.447 1.712-3.035 3.008-4.763 3.886-.778.395-1.555.724-2.333.988a36.11 36.11 0 01-2.139.659v-.066zm-2.981-23.123a1.11 1.11 0 01-.356.066.636.636 0 01-.292-.066h-.971c-.821 0-1.61.055-2.366.165-.756.11-1.264.252-1.523.428-.389.264-.616.615-.68 1.054-.065.439-.097.9-.097 1.384V24.11l3.045-.066c3.413 0 6.351-.955 8.814-2.865 2.463-1.911 3.672-4.425 3.629-7.543v-.791c-.216-2.679-1.156-4.864-2.819-6.555-1.664-1.69-3.489-2.69-5.476-2.997a2.392 2.392 0 00-.421-.099 3.373 3.373 0 00-.487-.033v-.066zm69.665 6.06v20.62c0 7.598-1.921 12.857-5.766 15.778-3.844 2.92-8.231 4.358-13.156 4.314-4.709-.044-8.932-1.559-12.669-4.545-3.737-2.986-5.606-7.883-5.606-14.69V6.555c0-.11.022-.23.065-.362v-.725c0-.176-.011-.34-.033-.494a5.156 5.156 0 00-.097-.495 4.345 4.345 0 00-.194-.757 2.458 2.458 0 00-.389-.691 3.723 3.723 0 00-.389-.33 2.5 2.5 0 00-.583-.33 9.965 9.965 0 00-1.167-.494 30.93 30.93 0 01-1.296-.494c-.475-.132-.94-.263-1.393-.395a36.981 36.981 0 00-1.199-.33l-1.491-.526h21.969l-1.425.593c-.26.175-.562.307-.908.395-.345.088-.712.176-1.101.263a1.263 1.263 0 01-.26.1 1.276 1.276 0 00-.259.098c-.734.175-1.436.384-2.106.626-.67.241-1.134.516-1.393.824a.863.863 0 01-.162.23.873.873 0 00-.162.23 3.82 3.82 0 00-.454 1.483 19.942 19.942 0 00-.064 1.68V30.83c0 5.27 1.177 9.047 3.531 11.33 2.355 2.285 5.368 3.712 9.04 4.283.346.044.67.077.972.099.303.022.606.033.908.033 3.586 0 6.741-1.35 9.462-4.052 2.721-2.7 4.082-6.313 4.082-10.837V5.963a4.3 4.3 0 00-.13-1.022 3.738 3.738 0 00-.227-.79 4.597 4.597 0 00-.421-.79 2.165 2.165 0 00-.39-.297 7.87 7.87 0 00-.645-.362 23.534 23.534 0 00-1.07-.428 49.735 49.735 0 01-1.265-.495 12.498 12.498 0 01-1.456-.46l-1.199-.462-1.492-.724h20.219l-1.294.724c-.349.22-.747.395-1.2.527-.455.132-.917.286-1.395.461-.734.22-1.437.45-2.105.692-.671.242-1.114.517-1.329.824-.174.22-.313.604-.421 1.153-.107.549-.205 1.13-.291 1.745a19.728 19.728 0 00-.164 1.812c-.019.55-.032.933-.032 1.153v-.066zm26.635-3.359c.864 1.889 2.01 4.14 3.437 6.752 1.424 2.614 2.914 5.326 4.471 8.137.171.307.336.603.484.889.152.285.314.56.488.823a668.955 668.955 0 006.319 10.903c1.965 3.316 3.228 5.346 3.791 6.093 1.383-2.283 3.326-5.786 5.832-10.507s5.142-9.717 7.905-14.987c.13-.22.259-.45.389-.692.13-.242.259-.472.389-.691.389-.747.788-1.494 1.2-2.24a110.92 110.92 0 002.139-4.084c.278-.571.55-1.143.81-1.714.041-.131.095-.263.161-.395a3.57 3.57 0 00.162-.395c.259-.527.509-1.087.746-1.68.238-.593.507-1.219.81-1.877l3.564-.066c.044.79.085 1.515.129 2.174.045.659.086 1.273.13 1.844 0 .187.01.352.032.505.022.154.031.297.031.429.045.746.099 1.515.165 2.306.063.79.139 1.646.225 2.568.129 1.626.281 3.36.455 5.183.171 1.822.345 3.656.516 5.511.434 5.183.845 9.959 1.231 14.307.389 4.359.608 6.576.649 6.664 0 .132.012.253.035.362.019.11.031.231.031.363.086.659.206 1.284.355 1.877.152.604.313 1.098.487 1.493.215.396.649.758 1.297 1.087.646.33 1.339.627 2.073.89.345.132.68.252 1.003.362.326.11.639.23.94.362l1.361.527h-20.155l2.14-.856c.174 0 .335-.033.487-.099.149-.066.313-.12.484-.164.044 0 .076-.012.098-.034.022-.021.054-.032.098-.032a23.42 23.42 0 001.975-.725c.626-.264 1.051-.593 1.266-.988.345-.571.572-1.098.68-1.581.108-.483.161-.945.161-1.384 0-.263-.009-.527-.031-.79a6.424 6.424 0 00-.098-.725 4.618 4.618 0 01-.098-.494 3.346 3.346 0 01-.032-.494l-2.658-29.908c-.775 1.405-2.006 3.657-3.693 6.752a5712.827 5712.827 0 00-5.38 9.915 1481.434 1481.434 0 01-7.126 13.373 18.63 18.63 0 00-.487.922l-.488.988a2.304 2.304 0 01-.193.429 10.58 10.58 0 00-.259.493 435.268 435.268 0 00-1.782 3.788 155.788 155.788 0 01-1.006 2.141 40.34 40.34 0 00-1.003-1.844 80.808 80.808 0 01-1.522-2.833c-.044-.044-.067-.077-.067-.099V44.6a17.992 17.992 0 00-.519-.989c-.17-.307-.345-.615-.515-.922-4.753-8.959-8.665-16.008-11.731-21.147-3.066-5.138-4.905-8.256-5.509-9.354l-1.813 25.165c0 .22-.023.461-.067.725a6.04 6.04 0 00-.063.922 59.09 59.09 0 00-.13 1.45 19 19 0 00-.066 1.58v.461c0 .66.053 1.296.164 1.911.108.615.291 1.142.551 1.58.215.352.582.66 1.101.923.519.264 1.079.505 1.683.725a.57.57 0 01.26.066.566.566 0 00.259.066c.174.087.358.164.551.23.193.066.38.143.551.23l1.816.66h-16.917l1.104-.528c.13 0 .247-.021.355-.066.107-.043.228-.087.357-.131.13-.088.26-.154.39-.198l.389-.131a31.09 31.09 0 002.072-.956c.649-.33 1.102-.714 1.361-1.153.215-.439.389-1.24.519-2.404s.237-2.416.323-3.733c0-.308.013-.604.035-.89.019-.285.031-.582.031-.89.174-1.492.336-3.062.485-4.72.151-1.647.272-3.305.357-4.974.26-3.524.465-6.883.617-10.1.149-3.207.291-5.688.421-7.456.085-1.142.139-2.196.161-3.162.023-.966.032-1.932.032-2.898V.132l3.759-.066c.13.44.292.955.488 1.548.193.593.421 1.219.68 1.878.086.263.171.526.26.79.085.263.193.527.322.79.045.132.098.264.162.396.063.132.12.263.161.395v-.066z" fill="#000"/></svg>