<svg width="160" height="160" fill="none" xmlns="http://www.w3.org/2000/svg"><g clip-path="url(#clip0)"><path d="M30.023 69.344a3.748 3.748 0 00-6.04-4.437l-5.182 7.084a62.151 62.151 0 01119.792-17.039 3.734 3.734 0 004.828 2.144 3.738 3.738 0 002.144-4.828 69.612 69.612 0 00-74.78-43.646 69.608 69.608 0 00-59.44 62.959L7.02 63.826a3.757 3.757 0 10-6.525 3.728l10.44 18.94a3.504 3.504 0 003.243 1.939 3.727 3.727 0 003.02-1.529l12.825-17.56zm130.23 22.854l-10.44-18.94a3.723 3.723 0 00-3.019-1.917 3.73 3.73 0 00-3.244 1.507l-12.789 17.374a3.731 3.731 0 003.556 5.91 3.732 3.732 0 002.447-1.473l5.182-7.084a62.149 62.149 0 01-93.233 48.131 62.155 62.155 0 01-26.558-31.055 3.734 3.734 0 00-6.9-.174 3.735 3.735 0 00-.072 2.858 69.606 69.606 0 00115.509 22.484 69.607 69.607 0 0018.711-41.871l4.325 7.867a3.755 3.755 0 005.126 1.398 3.754 3.754 0 001.399-5.127v.112z" fill="#C4C4C4"/><path d="M83.227 83.177v7.456c2.684-.932 4.1-2.684 4.1-3.728-.037-1.38-.596-2.274-4.1-3.728zM71.67 68.04c-.41 1.975 1.006 3.728 3.728 4.623h.26v-8.165a4.995 4.995 0 00-3.989 3.541z" fill="#DABD74"/><path d="M79.496 30.196a48.842 48.842 0 1048.841 48.841 48.918 48.918 0 00-48.841-48.841zm3.728 68.228s1.156 5.854-3.728 5.854c-4.885 0-3.729-5.63-3.729-5.63a12.862 12.862 0 01-7.978-3.393 12.712 12.712 0 01-3.207-9.47 3.728 3.728 0 017.457 0c0 4.474 2.498 4.959 3.728 5.145V80.566c-.41 0-12.9-3.729-11.185-14.094a12.49 12.49 0 0111.185-9.507s-.708-4.586 3.729-4.586c4.436 0 3.728 5.22 3.728 5.22a15.398 15.398 0 0110.551 10.887 3.728 3.728 0 01-7.27 1.603 8.165 8.165 0 00-3.281-4.362v9.582c7.643 2.759 11.558 5.331 11.558 11.93-.038 5.257-5.07 9.843-11.558 11.185z" fill="#DABD74"/></g><defs><clipPath id="clip0"><path fill="#fff" d="M0 0h160v160H0z"/></clipPath></defs></svg>