<svg width="120" height="120" fill="none" xmlns="http://www.w3.org/2000/svg"><path d="M49.054 24.953c-6.338-4.645-12.84-10.37-17.468-17.312l-4.052-6.077a3.516 3.516 0 00-6.44 1.95v55.16c-2.077-1.212-4.459-1.956-7.032-1.956C6.308 56.718 0 63.024 0 70.78c0 7.756 6.307 14.062 14.063 14.062 7.755 0 14.062-6.306 14.062-14.062V15.058c4.968 6.28 11.182 11.468 16.771 15.567 2.747 2.012 4.323 5.116 4.323 8.514 0 5.816-4.731 10.547-10.547 10.547a3.514 3.514 0 00-3.516 3.516 3.514 3.514 0 003.516 3.515c9.692 0 17.578-7.886 17.578-17.578 0-5.579-2.688-10.88-7.196-14.186z" fill="#C4C4C4"/><path d="M115.52 28.727L65.832 42.79a3.518 3.518 0 00-2.55 3.382V93.83c-2.077-1.21-4.46-1.955-7.032-1.955-7.756 0-14.063 6.306-14.063 14.062 0 7.756 6.307 14.063 14.063 14.063s14.063-6.307 14.063-14.063v-43.05l42.656-12.054v28.935c-2.077-1.211-4.459-1.956-7.031-1.956-7.756 0-14.063 6.307-14.063 14.063 0 7.755 6.307 14.062 14.063 14.062 7.755 0 14.062-6.307 14.062-14.062V32.109c0-2.325-2.224-4.02-4.48-3.382z" fill="#DABD74"/></svg>