<svg width="125" height="89" fill="none" xmlns="http://www.w3.org/2000/svg"><path d="M47.966 13.806c.381 1.244.588 2.564.588 3.931 0 7.413-5.98 14.61-18.818 22.648l-1.944 1.217-1.943-1.217c-2.92-1.828-5.482-3.613-7.703-5.367a53.745 53.745 0 00-9.654 30.717h108.013c-.047-26.908-19.773-49.198-45.555-53.25L74.071 0H50.927l3.12 12.485a53.579 53.579 0 00-6.08 1.321zm14.533 17.528a10.442 10.442 0 015.107-1.335c5.762 0 10.45 4.688 10.45 10.45 0 5.578-4.326 10.884-13.614 16.7L62.5 58.364l-1.944-1.217c-9.287-5.815-13.613-11.121-13.613-16.699 0-5.762 4.688-10.45 10.45-10.45 1.807 0 3.563.469 5.107 1.335z" fill="#DABD74"/><path d="M62.498 49.678c7.11-4.803 8.233-7.81 8.233-9.229a3.13 3.13 0 00-3.125-3.126c-.9 0-1.757.39-2.352 1.07l-2.756 3.146-2.755-3.146a3.129 3.129 0 00-2.352-1.07 3.13 3.13 0 00-3.125 3.126c0 1.418 1.122 4.425 8.233 9.23zM41.23 17.738a6.103 6.103 0 00-6.095-6.096c-1.755 0-3.427.76-4.587 2.084l-2.755 3.147-2.755-3.147a6.1 6.1 0 00-4.587-2.084 6.103 6.103 0 00-6.096 6.096c0 4.158 4.636 9.389 13.438 15.192 8.803-5.803 13.438-11.034 13.438-15.192z" fill="#C4C4C4"/><path d="M0 73.1v7.324h6.365l4.008 8.017h104.253l4.009-8.017H125V73.1H0z" fill="#DABD74"/></svg>