<svg width="122" height="122" viewBox="0 0 122 122" fill="none" xmlns="http://www.w3.org/2000/svg">
<g clip-path="url(#clip0)">
<path d="M66.0238 17.4893C63.3534 17.4893 61.6586 20.4668 61.258 20.4668C60.9071 20.4668 59.2816 17.4893 56.4912 17.4893C53.777 17.4893 51.5605 19.728 51.4156 22.4384C51.3337 23.9695 51.8273 25.1348 52.5231 26.1904C53.9126 28.2991 59.9886 33.3758 61.2669 33.3758C62.5719 33.3758 68.5935 28.3177 69.9926 26.1904C70.6895 25.1304 71.1824 23.9695 71.0997 22.4384C70.9541 19.728 68.738 17.4893 66.0238 17.4893Z" fill="#C4C4C4"/>
<path d="M50.4659 2.92578C48.541 2.92578 47.3201 5.07153 47.0311 5.07153C46.778 5.07153 45.6068 2.92578 43.5959 2.92578C41.6399 2.92578 40.0425 4.5387 39.938 6.49252C39.8791 7.59596 40.2348 8.43595 40.7358 9.19628C41.7373 10.7162 46.1163 14.3748 47.0374 14.3748C47.9782 14.3748 52.3179 10.7295 53.3261 9.19628C53.8281 8.43188 54.1831 7.59596 54.1238 6.49252C54.0193 4.5387 52.4223 2.92578 50.4659 2.92578Z" fill="#C4C4C4"/>
<path d="M78.0088 2.92578C76.0842 2.92578 74.8626 5.07153 74.5736 5.07153C74.3209 5.07153 73.15 2.92578 71.1388 2.92578C69.1823 2.92578 67.585 4.5387 67.4805 6.49252C67.4216 7.59596 67.7773 8.43595 68.2783 9.19628C69.2798 10.7162 73.6587 14.3748 74.5795 14.3748C75.5203 14.3748 79.8596 10.7295 80.8685 9.19628C81.371 8.43188 81.7256 7.59596 81.6663 6.49252C81.5625 4.5387 79.9652 2.92578 78.0088 2.92578Z" fill="#C4C4C4"/>
<path d="M57.0503 42.2532C56.6131 39.3979 56.0377 37.6515 54.3884 37.1739L25.58 28.8303C25.3421 28.7614 25.1002 28.7266 24.8608 28.7266C23.4798 28.7266 22.2126 29.8645 20.6156 31.7008C19.3729 33.1311 17.8233 35.1497 16.1348 37.5382C12.7693 42.3006 9.72017 47.278 8.71973 49.6423C6.47098 54.9539 6.99565 61.2262 10.1967 67.3037C12.5666 71.8042 17.3639 76.5244 22.5365 79.4819C22.0348 81.81 20.7461 86.7962 19.0802 92.4772C16.1807 102.367 14.6805 105.758 14.3081 106.305C14.1206 106.411 13.4121 106.633 11.8741 106.633C10.6835 106.633 9.28739 106.495 7.83602 106.236L7.72671 106.216C7.42436 106.162 7.0705 106.081 6.69663 105.993C5.75437 105.775 4.6865 105.528 3.65865 105.528C1.28539 105.528 0.388709 106.905 0.0537487 108.059C-0.0370314 108.373 -0.0566696 108.866 0.367959 109.43C2.78308 112.644 24.2161 119.07 30.7515 119.07C31.4344 119.07 33.2482 119.07 33.6217 117.781C34.5999 114.403 31.1639 113.203 29.1112 112.485C28.7484 112.358 28.4061 112.239 28.12 112.122L28.0192 112.081C24.2924 110.562 22.7054 109.079 22.5109 108.681C22.4865 108.013 23.0133 104.343 25.7734 94.3906C27.3085 88.8545 28.8236 83.9502 29.6277 81.6318C41.1375 82.3258 55.6045 75.3739 57.5172 63.7747C57.9348 61.2425 58.0174 55.4056 57.7188 49.5801C57.5669 46.6551 57.336 44.1207 57.0503 42.2532ZM53.4877 53.4336C53.4043 54.2054 53.0008 54.2539 52.7603 54.1672C50.6253 53.3958 48.4044 53.0193 46.0107 53.0193C42.4748 53.0193 39.1326 53.8349 35.9001 54.6234C32.9721 55.3377 30.2061 56.0125 27.5598 56.0129C24.2231 56.0129 19.8309 55.0813 15.4445 47.8152L15.2941 47.5673C15.1748 47.3402 15.3126 46.8196 15.602 46.3457C18.7219 41.2149 22.9441 35.5506 24.9116 33.5553C25.1054 33.3589 25.3818 33.3927 25.5333 33.4371C31.8383 35.2779 49.4663 40.3924 52.1315 41.1623C52.3546 41.2268 52.4446 41.4825 52.4446 41.4825C53.0845 43.4685 53.5774 47.4465 53.4877 53.4336Z" fill="#DABD74"/>
<path d="M121.948 108.061C121.613 106.906 120.716 105.529 118.343 105.529C117.315 105.529 116.247 105.777 115.305 105.995C114.93 106.081 114.577 106.163 114.275 106.218L114.166 106.237C112.714 106.496 111.318 106.634 110.128 106.634C108.572 106.634 107.865 106.408 107.701 106.314C107.32 105.757 105.82 102.365 102.922 92.4786C101.256 86.7976 99.9669 81.8113 99.4652 79.484C104.638 76.5264 109.435 71.8055 111.805 67.3054C115.007 61.2276 115.531 54.9552 113.282 49.644C112.282 47.2793 109.232 42.302 105.867 37.5395C104.178 35.1507 102.629 33.132 101.386 31.7018C99.7887 29.8654 98.5222 28.7275 97.1409 28.7275C96.9015 28.7275 96.6592 28.7624 96.4217 28.8313L67.6132 37.1749C65.964 37.6525 65.3882 39.3988 64.951 42.2542C64.6653 44.1216 64.4337 46.6561 64.2833 49.5829C63.9839 55.408 64.0669 61.245 64.4845 63.7772C66.3972 75.3771 80.8668 82.3319 92.3744 81.6342C93.1784 83.9523 94.6935 88.857 96.2286 94.3931C98.9928 104.361 99.5171 108.027 99.493 108.673C99.2829 109.096 97.6937 110.572 93.984 112.084L93.8813 112.125C93.5964 112.241 93.254 112.362 92.8909 112.488C90.8385 113.206 87.4026 114.407 88.3804 117.784C88.7543 119.073 90.5677 119.073 91.2505 119.073C97.7863 119.073 119.219 112.647 121.634 109.433C122.058 108.868 122.038 108.375 121.948 108.061ZM106.756 46.9217C106.877 47.1385 106.844 47.3404 106.798 47.4175C106.768 47.4664 106.556 47.8155 106.556 47.8155C102.17 55.0805 97.7778 56.0123 94.4408 56.0131C91.7945 56.0131 89.0285 55.3384 86.0994 54.6236C82.8669 53.8351 79.5255 53.0196 75.9902 53.0196C73.4428 53.0196 71.0914 53.4464 68.8297 54.3209C68.7274 54.3605 68.5181 54.3405 68.5181 54.0393C68.4329 48.2764 68.9575 43.5903 69.5667 41.4453C69.5904 41.3612 69.5848 41.2522 69.8624 41.1429L96.5002 33.4277C96.8963 33.3014 96.9808 33.4477 97.0516 33.5178C99.0106 35.4516 103.616 41.7576 106.756 46.9217Z" fill="#DABD74"/>
</g>
<defs>
<clipPath id="clip0">
<rect width="122" height="122" fill="white"/>
</clipPath>
</defs>
</svg>
