<svg width="122" height="122" viewBox="0 0 122 122" fill="none" xmlns="http://www.w3.org/2000/svg">
<path d="M110.297 84.3911C108.245 84.3911 106.162 84.5196 104.107 84.7731C98.5715 85.4558 93.2952 87.0177 88.378 89.4182C94.8998 92.1522 101.807 93.4801 109.292 93.4801V100.629C100.502 100.629 92.5537 99.0342 84.994 95.7541C76.4335 92.04 68.5628 86.2697 60.9316 78.1134C49.7243 66.1347 35.548 58.7852 19.9348 56.8592C13.2556 56.0357 6.55393 56.2215 0 57.4055V73.7435C3.83466 72.9317 7.75653 72.5207 11.7032 72.5207C14.0467 72.5207 16.4238 72.6672 18.768 72.9565C33.8233 74.8134 47.254 82.4225 56.5863 94.3811L50.9507 98.7788C42.7932 88.3254 31.0531 81.6745 17.8928 80.0511C15.8378 79.7978 13.7553 79.6691 11.7032 79.6691C7.74509 79.6691 3.81655 80.1416 0 81.0743V107.266H122V85.7963C118.182 84.8636 114.254 84.3911 110.297 84.3911Z" fill="#DABD74"/>
<path d="M102.065 67.5471C91.2288 68.8839 80.977 72.8334 72.1294 79.0392C74.9392 81.5033 77.7991 83.6378 80.7268 85.4563C81.1843 85.1787 81.6459 84.9073 82.1086 84.6443C88.6085 80.9497 95.7152 78.6065 103.232 77.6793C105.576 77.3903 107.953 77.2435 110.297 77.2435C114.243 77.2435 118.165 77.6545 122 78.4664V68.0933C115.446 66.909 108.744 66.7229 102.065 67.5471Z" fill="#DABD74"/>
<path d="M45.9777 57.7132C53.4331 61.6701 60.2207 66.891 66.1523 73.2307C66.3968 73.4921 66.6422 73.7457 66.8871 74.0016C74.5305 68.4189 83.1639 64.3857 92.3413 62.0963C90.6071 46.3367 77.2145 34.0352 61.0006 34.0352C48.3951 34.0352 37.4954 41.4714 32.4526 52.1865C37.1103 53.5623 41.6324 55.4068 45.9777 57.7132Z" fill="#C4C4C4"/>
<path d="M57.4258 14.7344H64.5742V24.9011H57.4258V14.7344Z" fill="#C4C4C4"/>
<path d="M32.4883 23.3301L38.6788 19.7559L43.7622 28.5603L37.5717 32.1345L32.4883 23.3301Z" fill="#C4C4C4"/>
<path d="M15.1875 43.2461L18.7617 37.0555L27.5661 42.1389L23.9919 48.3295L15.1875 43.2461Z" fill="#C4C4C4"/>
<path d="M78.2378 28.5645L83.3212 19.76L89.5117 23.3343L84.4283 32.1387L78.2378 28.5645Z" fill="#C4C4C4"/>
<path d="M94.4297 42.1387L103.234 37.0553L106.808 43.2458L98.0039 48.3292L94.4297 42.1387Z" fill="#C4C4C4"/>
</svg>
