<svg width="122" height="122" viewBox="0 0 122 122" fill="none" xmlns="http://www.w3.org/2000/svg">
<path d="M61.0161 36.2245C62.5649 36.2245 65.5511 34.3972 69.8927 30.7925C72.8911 28.3034 76.639 24.8161 78.165 22.4953C79.322 20.7365 80.6254 18.2626 80.4359 14.7181C80.1207 8.8257 75.3664 4.20996 69.6126 4.20996C65.5104 4.20996 62.634 7.23718 61.0409 8.97288C59.5294 7.26463 56.6279 4.20996 52.3875 4.20996C46.6341 4.20996 41.8797 8.8257 41.5642 14.7184C41.3724 18.3092 42.7688 20.8774 43.836 22.4966C46.1938 26.0759 57.586 36.2245 61.0161 36.2245Z" fill="#C4C4C4"/>
<path d="M83.3251 40.4385C75.0161 40.4385 67.3109 43.0731 61.0002 47.5496C54.6894 43.0728 46.9843 40.4385 38.6752 40.4385C17.3497 40.4385 0 57.7882 0 79.1133C0 100.439 17.3497 117.788 38.6749 117.788C46.9839 117.788 54.6891 115.154 60.9998 110.677C67.3106 115.154 75.0157 117.788 83.3248 117.788C104.65 117.788 122 100.439 122 79.1133C122 57.7879 104.65 40.4385 83.3251 40.4385ZM61.0002 97.2105C56.9837 92.265 54.5723 85.9659 54.5723 79.1133C54.5723 72.2608 56.9834 65.9613 61.0002 61.0158C65.0166 65.9613 67.428 72.2605 67.428 79.1133C67.428 85.9662 65.0166 92.2654 61.0002 97.2105ZM9.92206 79.1133C9.92206 63.2589 22.8207 50.3602 38.6749 50.3602C44.1022 50.3602 49.1827 51.8723 53.5183 54.4964C47.9814 61.1888 44.6503 69.7691 44.6503 79.113C44.6503 88.457 47.9814 97.0372 53.5183 103.73C49.1827 106.354 44.1022 107.866 38.6749 107.866C22.8207 107.866 9.92206 94.9678 9.92206 79.1133ZM83.3251 107.866C77.8981 107.866 72.8173 106.354 68.4817 103.73C74.0186 97.0376 77.3497 88.4573 77.3497 79.1133C77.3497 69.7694 74.0186 61.1888 68.4817 54.4967C72.8173 51.8727 77.8978 50.3605 83.3251 50.3605C99.1796 50.3605 112.078 63.2592 112.078 79.1137C112.078 94.9681 99.1793 107.866 83.3251 107.866Z" fill="#DABD74"/>
</svg>
