<svg width="122" height="122" viewBox="0 0 122 122" fill="none" xmlns="http://www.w3.org/2000/svg">
<g clip-path="url(#clip0)">
<path d="M7.74262 15.2832L0.687808 16.5322L9.07286 63.905L0 106.716H7.32229L12.5859 81.8788H24.57L25.8143 74.7141H14.1048L15.6238 67.5495H27.0586L28.3028 60.3848H15.7241L7.74262 15.2832Z" fill="#DABD74"/>
<path d="M112.926 63.905L121.311 16.5322L114.256 15.2832L106.275 60.3848H95.8359L97.0826 67.5495H106.375L107.894 74.7141H98.3292L99.5759 81.8788H109.413L114.677 106.716H121.999L112.926 63.905Z" fill="#DABD74"/>
<path d="M47.0067 33.1998L51.5038 37.6968H73.0026L77.502 33.1998C81.4521 29.2473 81.4497 22.8421 77.4996 18.892C73.2913 14.5473 65.766 15.0995 62.2532 20.0287C58.9288 15.5508 52.6024 14.617 48.122 17.9414C43.1851 21.5415 42.6583 28.918 47.0067 33.1998Z" fill="#C4C4C4"/>
<path d="M87.0323 51.5684L85.8669 44.8623C72.4484 44.8623 51.6966 44.8623 38.2743 44.8623L37.1089 51.5684L62.0706 70.7459L87.0323 51.5684Z" fill="#DABD74"/>
<path d="M88.4199 59.5371L62.0706 79.7797L35.7237 59.5395L29.2254 96.9271C28.8027 99.3631 29.4737 101.847 31.0643 103.738C32.6573 105.632 34.9882 106.716 37.4624 106.716H86.686C89.1602 106.716 91.4911 105.63 93.0841 103.738C94.6746 101.844 95.3457 99.3631 94.923 96.9247L88.4199 59.5371Z" fill="#DABD74"/>
</g>
<defs>
<clipPath id="clip0">
<rect width="122" height="122" fill="white"/>
</clipPath>
</defs>
</svg>
