<svg width="1172" height="211" fill="none" xmlns="http://www.w3.org/2000/svg"><path fill-rule="evenodd" clip-rule="evenodd" d="M119.325.382a77.325 77.325 0 001.094 4.025c.362 1.204.729 2.36 1.09 3.47a21.18 21.18 0 00.82 3.611c.364 1.11.73 2.404 1.091 3.884 2.551 7.959 6.283 18.924 11.197 32.9a4157.174 4157.174 0 0015.563 43.444c.364.925.728 1.853 1.093 2.776.363.924.73 1.852 1.092 2.779 6.554 18.319 12.79 35.208 18.706 50.661 5.917 15.453 9.876 25.402 11.877 29.842.547 1.482 1.093 2.778 1.639 3.889a67.985 67.985 0 011.638 3.609c.362.924.82 1.895 1.364 2.914a91.567 91.567 0 011.639 3.194c.912 1.849 2.776 3.515 5.599 4.997a94.066 94.066 0 009.145 4.163 10.63 10.63 0 012.185.832c.73.373 1.456.649 2.187.832a7.497 7.497 0 011.499.696c.458.276.958.508 1.504.694l5.733 2.221h-80.824l7.099-2.774c1.092-.187 2.276-.556 3.549-1.115a97.535 97.535 0 014.097-1.663c2.548-.924 4.87-2.039 6.963-3.333 2.092-1.293 3.413-2.867 3.959-4.718v-.139c0-.094.09-.231.273-.416v-.831c0-.928-.183-2.131-.545-3.613-.364-1.48-.88-2.842-1.367-4.163L107.711 40.627l-.304-.17-1.734-4.262-27.852 72.735h36.354l5.433 14.435H72.087L52.97 175.276c-.183.556-.316.972-.408 1.251a3.124 3.124 0 00-.138.971c-.362.74-.682 1.572-.954 2.499-.272.924-.5 1.851-.684 2.777-.547 2.036-1 3.978-1.364 5.829-.367 1.85-.548 3.239-.548 4.165v.833c.728 1.665 2.138 3.005 4.234 4.024 2.092 1.018 4.415 1.99 6.963 2.915.365 0 .727.046 1.093.138.363.096.636.232.818.416a31.42 31.42 0 002.729.972c.912.279 1.73.602 2.459.975l7.373 2.774H0l6.004-2.221a68.333 68.333 0 004.235-1.39 244.64 244.64 0 004.505-1.664 62.795 62.795 0 008.737-3.887c2.731-1.48 4.552-3.052 5.46-4.717a19.374 19.374 0 001.366-2.779 34.26 34.26 0 011.094-2.497c.36-.556.636-1.11.819-1.667.181-.553.363-1.204.545-1.943.364-.737.682-1.479.954-2.219.276-.741.593-1.575.958-2.497a393.543 393.543 0 006.963-16.243 5241.89 5241.89 0 006.961-17.35 817.56 817.56 0 003.824-9.024 1024.82 1024.82 0 003.826-9.299c9.464-23.874 18.018-46.22 25.665-67.045 7.648-20.818 12.379-34.097 14.201-39.837a421.04 421.04 0 011.502-4.995c.453-1.48.865-2.962 1.228-4.445 0-.553.09-1.061.272-1.523.184-.464.273-.972.273-1.528a24.24 24.24 0 00.956-3.053c.273-1.111.5-2.222.681-3.33l18.296-.28z" fill="#DABD74"/><path d="M403.547 38.587v86.89c0 32.018-8.102 54.182-24.303 66.489-16.201 12.305-34.677 18.366-55.431 18.18-19.841-.184-37.636-6.569-53.381-19.154-15.747-12.585-23.62-33.219-23.62-61.905V27.621c0-.462.092-.97.273-1.525V23.04c0-.74-.046-1.432-.137-2.08a21.562 21.562 0 00-.408-2.084 18.244 18.244 0 00-.82-3.192 10.313 10.313 0 00-1.637-2.913c-.364-.37-.911-.834-1.639-1.388a10.623 10.623 0 00-2.459-1.388c-1.456-.74-3.094-1.436-4.914-2.084-1.82-.647-3.64-1.342-5.46-2.082-2.003-.556-3.96-1.11-5.871-1.666a158.788 158.788 0 00-5.053-1.387l-6.28-2.22h92.566l-6.006 2.497c-1.095.74-2.368 1.296-3.824 1.666-1.456.37-3.003.74-4.642 1.11a5.383 5.383 0 01-1.092.417c-.364.093-.728.23-1.092.415a83.057 83.057 0 00-8.874 2.638c-2.823 1.018-4.779 2.176-5.871 3.472-.181.37-.411.692-.683.969a3.72 3.72 0 00-.682.973c-1.091 2.035-1.73 4.118-1.911 6.247-.183 2.128-.273 4.488-.273 7.078V129.92c0 22.208 4.958 38.124 14.881 47.748 9.921 9.625 22.617 15.639 38.091 18.045 1.456.185 2.821.324 4.094.417 1.276.092 2.551.138 3.824.138 15.11 0 28.399-5.691 39.867-17.072 11.467-11.383 17.203-26.606 17.203-45.667V25.122c0-1.388-.182-2.822-.546-4.303a15.323 15.323 0 00-.957-3.331 19.532 19.532 0 00-1.776-3.33c-.364-.37-.909-.788-1.639-1.25-.726-.463-1.637-.971-2.729-1.525a93.487 93.487 0 00-4.507-1.806 212.67 212.67 0 01-5.324-2.083 53.41 53.41 0 01-6.142-1.943c-1.912-.74-3.595-1.388-5.051-1.943L353.029.556h85.195l-5.461 3.052c-1.455.925-3.14 1.665-5.051 2.22a86.324 86.324 0 00-5.872 1.943 168.578 168.578 0 00-8.873 2.916c-2.822 1.018-4.688 2.176-5.599 3.47-.727.926-1.32 2.546-1.775 4.859a136.023 136.023 0 00-1.228 7.356c-.364 2.776-.592 5.322-.682 7.635-.092 2.314-.136 3.931-.136 4.858v-.278zm146.357 71.899l-5.46 1.113 30.309 34.144a870.483 870.483 0 009.147 10.688 7793.87 7793.87 0 018.328 9.577 32.09 32.09 0 002.321 2.638 31.57 31.57 0 012.32 2.638 171.268 171.268 0 006.963 7.216 567.635 567.635 0 017.784 7.774 100.894 100.894 0 014.231 4.024 65.002 65.002 0 003.686 3.471c.728.554 1.412 1.11 2.05 1.666.636.554 1.409 1.11 2.318 1.664a90.586 90.586 0 005.599 3.472c2.092 1.202 4.779 2.638 8.055 4.302l7.373 3.331-9.012 2.22c-.364.186-.819.278-1.364.278h-1.912c-2.912 0-6.508-.507-10.785-1.526a170.115 170.115 0 01-13.244-3.747c-5.096-2.036-11.24-6.756-18.43-14.159-7.192-7.404-14.609-15.361-22.256-23.874a2.152 2.152 0 00-.546-.416c-.182-.092-.272-.232-.272-.417a115.641 115.641 0 01-4.642-4.996l-4.369-4.996-39.867-43.308h-7.37v65.792c0 3.147.136 5.877.408 8.189.273 2.314 1.321 4.582 3.141 6.802 1.092 1.481 3.048 2.731 5.871 3.749a83.031 83.031 0 008.874 2.637c.546.185 1.046.371 1.5.555.455.186.956.278 1.503.278 1.456.37 2.821.785 4.095 1.248 1.274.462 2.457.88 3.552 1.25l6.005 2.22h-92.567l6.282-1.942c1.456-.186 3.141-.556 5.052-1.11a499.93 499.93 0 015.872-1.666c2.001-.74 3.912-1.436 5.733-2.082 1.819-.648 3.367-1.344 4.64-2.084 1.092-.37 1.959-.832 2.595-1.387a28.73 28.73 0 001.504-1.389 9.73 9.73 0 001.91-3.747c.364-1.388.636-2.822.819-4.302V27.76c0-2.404-.137-4.628-.411-6.662-.273-2.036-1.136-3.98-2.592-5.83-1.274-1.48-3.322-2.915-6.144-4.303a159.868 159.868 0 00-8.874-4.026c-1.82-.74-3.596-1.433-5.326-2.08a874.843 874.843 0 01-4.778-1.806L453.517.556h49.695c2.731.184 5.279.229 7.647.137 2.366-.094 4.732-.23 7.098-.415h2.184c2.002 0 4.004-.048 6.008-.141 2.003-.092 4.095-.137 6.28-.137 2.002 0 4.051.045 6.144.137 2.092.093 4.323.233 6.69.419 1.456.184 2.868.369 4.233.554 1.364.185 2.775.37 4.229.555 10.924 2.406 21.028 8.237 30.312 17.489 9.283 9.254 13.926 22.117 13.926 38.589 0 12.585-3.05 22.484-9.15 29.702-6.097 7.218-12.786 12.679-20.066 16.38a74.59 74.59 0 01-9.831 4.163c-3.276 1.11-6.281 2.036-9.012 2.776v-.278zm-12.561-97.439c-.546.186-1.046.278-1.5.278a2.67 2.67 0 01-1.23-.278h-4.094c-3.459 0-6.782.23-9.967.693-3.188.463-5.325 1.065-6.417 1.806-1.639 1.11-2.595 2.59-2.868 4.44a40.105 40.105 0 00-.408 5.832v75.786l12.83-.278c14.382 0 26.76-4.026 37.138-12.075 10.377-8.052 15.473-18.647 15.29-31.786v-3.331c-.909-11.29-4.869-20.497-11.877-27.623-7.009-7.125-14.7-11.336-23.072-12.631a10.098 10.098 0 00-1.776-.417 14.146 14.146 0 00-2.049-.138v-.278zm293.532 25.54v86.89c0 32.018-8.094 54.182-24.294 66.489-16.2 12.305-34.682 18.366-55.434 18.18-19.843-.184-37.636-6.569-53.383-19.154-15.745-12.585-23.619-33.219-23.619-61.905V27.621c0-.462.091-.97.274-1.525V23.04c0-.74-.047-1.432-.139-2.08a21.263 21.263 0 00-.408-2.084 18.154 18.154 0 00-.819-3.192 10.317 10.317 0 00-1.638-2.913c-.364-.37-.91-.834-1.638-1.388a10.61 10.61 0 00-2.46-1.388c-1.456-.74-3.094-1.436-4.913-2.084a129.782 129.782 0 01-5.461-2.082c-2.003-.556-3.96-1.11-5.871-1.666a158.798 158.798 0 00-5.052-1.387l-6.281-2.22h92.566l-6.006 2.497c-1.094.74-2.368 1.296-3.824 1.666-1.456.37-3.003.74-4.642 1.11a5.295 5.295 0 01-1.092.417c-.364.093-.728.23-1.092.415a83.038 83.038 0 00-8.873 2.638c-2.824 1.018-4.779 2.176-5.872 3.472a3.63 3.63 0 01-.683.969c-.273.278-.5.603-.681.973-1.092 2.035-1.729 4.118-1.912 6.247-.181 2.128-.272 4.488-.272 7.078V129.92c0 22.208 4.959 38.124 14.88 47.748 9.921 9.625 22.617 15.639 38.091 18.045 1.456.185 2.821.324 4.096.417 1.276.092 2.549.138 3.824.138 15.109 0 28.401-5.691 39.868-17.072 11.466-11.383 17.2-26.606 17.2-45.667V25.122c0-1.388-.187-2.822-.547-4.303a15.736 15.736 0 00-.96-3.331 19.232 19.232 0 00-1.773-3.33c-.36-.37-.907-.788-1.64-1.25-.72-.463-1.64-.971-2.72-1.525a100.195 100.195 0 00-4.507-1.806 210.026 210.026 0 01-5.333-2.083 52.775 52.775 0 01-6.134-1.943c-1.92-.74-3.6-1.388-5.053-1.943L780.363.556h85.192l-5.454 3.052c-1.466.925-3.146 1.665-5.053 2.22a86.87 86.87 0 00-5.88 1.943 166.218 166.218 0 00-8.867 2.916c-2.826 1.018-4.693 2.176-5.6 3.47-.733.926-1.32 2.546-1.773 4.859a135.074 135.074 0 00-1.227 7.356c-.373 2.776-.6 5.322-.693 7.635-.08 2.314-.133 3.931-.133 4.858v-.278zM943.101 24.43c3.64 7.957 8.467 17.442 14.48 28.453 6 11.012 12.28 22.441 18.84 34.286.72 1.295 1.414 2.544 2.04 3.747a42.172 42.172 0 002.054 3.469c9.466 16.658 18.333 31.972 26.625 45.945 8.28 13.973 13.6 22.532 15.97 25.678 5.83-9.623 14.02-24.382 24.58-44.278a13746.51 13746.51 0 0033.3-63.155c.55-.926 1.1-1.898 1.64-2.916.55-1.018 1.1-1.987 1.64-2.913 1.64-3.148 3.32-6.294 5.06-9.439a481.16 481.16 0 005.05-9.44c1.45-2.776 2.77-5.366 3.96-7.771a293.61 293.61 0 003.41-7.22c.18-.554.4-1.11.68-1.665.27-.555.5-1.11.68-1.665 1.1-2.22 2.15-4.58 3.15-7.08 1-2.497 2.13-5.135 3.41-7.91l15.02-.278c.18 3.33.36 6.383.54 9.162.19 2.775.36 5.365.55 7.772 0 .787.04 1.48.13 2.128.1.646.14 1.25.14 1.804.18 3.146.41 6.385.69 9.718.27 3.33.59 6.94.95 10.824.54 6.85 1.18 14.159 1.92 21.84.72 7.679 1.45 15.405 2.17 23.224 1.83 21.841 3.56 41.967 5.19 60.288 1.64 18.37 2.56 27.713 2.73 28.085 0 .554.05 1.064.15 1.526.08.464.13.974.13 1.529.36 2.775.87 5.41 1.49 7.911.64 2.543 1.32 4.627 2.06 6.291.9 1.666 2.73 3.194 5.46 4.581a74.435 74.435 0 008.74 3.749c1.45.555 2.86 1.063 4.22 1.525 1.38.464 2.7.974 3.96 1.528l5.74 2.22h-84.92l9.01-3.608c.73 0 1.41-.14 2.05-.418.63-.277 1.32-.507 2.04-.692.19 0 .32-.048.42-.14.09-.092.22-.138.41-.138a97.172 97.172 0 008.32-3.056c2.64-1.11 4.43-2.496 5.33-4.162 1.46-2.407 2.42-4.626 2.87-6.662.45-2.036.68-3.981.68-5.831 0-1.11-.04-2.221-.13-3.331-.1-1.11-.23-2.128-.42-3.053a21.28 21.28 0 01-.41-2.083c-.09-.647-.13-1.341-.13-2.079l-11.2-126.036c-3.27 5.921-8.46 15.409-15.56 28.454a19554.85 19554.85 0 00-22.67 41.781 6006.616 6006.616 0 01-16.11 30.397c-5.28 9.901-9.92 18.554-13.92 25.958a80.345 80.345 0 00-2.05 3.885c-.64 1.296-1.32 2.684-2.05 4.164-.18.555-.46 1.158-.82 1.806-.36.648-.73 1.339-1.09 2.081-2.73 5.738-5.23 11.06-7.51 15.963-2.28 4.903-3.69 7.911-4.24 9.021-.72-1.48-2.13-4.071-4.22-7.772-2.1-3.703-4.23-7.681-6.42-11.937-.18-.185-.28-.325-.28-.417v-.138a78.223 78.223 0 00-2.18-4.166c-.72-1.296-1.46-2.59-2.18-3.886-20.022-37.753-36.502-67.457-49.422-89.112-12.92-21.652-20.667-34.792-23.213-39.42l-7.64 106.047c0 .926-.094 1.943-.28 3.053-.174 1.111-.267 2.406-.267 3.886a271.73 271.73 0 00-.547 6.108 79.826 79.826 0 00-.28 6.663v1.942c0 2.777.227 5.462.694 8.052.453 2.591 1.226 4.811 2.32 6.662.906 1.48 2.453 2.776 4.64 3.886a63.41 63.41 0 007.093 3.055c.36 0 .733.093 1.093.277.36.186.734.278 1.094.278.733.37 1.506.692 2.32.97.813.278 1.6.604 2.32.974l7.653 2.774h-71.28l4.653-2.22c.547 0 1.04-.092 1.494-.278.453-.184.96-.37 1.506-.554a6.88 6.88 0 011.64-.833l1.64-.555c3.094-1.296 6-2.638 8.734-4.026 2.733-1.388 4.64-3.008 5.733-4.859.907-1.85 1.64-5.228 2.187-10.132.546-4.903 1-10.179 1.36-15.73 0-1.296.053-2.546.146-3.748.08-1.204.134-2.454.134-3.75a755.078 755.078 0 002.04-19.894c.64-6.94 1.146-13.927 1.506-20.958 1.094-14.853 1.96-29.01 2.6-42.567.627-13.511 1.227-23.968 1.774-31.417.36-4.81.586-9.253.68-13.324.093-4.072.133-8.144.133-12.215V.556l15.84-.278c.547 1.85 1.227 4.025 2.053 6.523a140.72 140.72 0 002.867 7.912c.36 1.11.72 2.22 1.093 3.33a25.03 25.03 0 001.36 3.331c.187.556.414 1.11.68 1.666.267.558.507 1.112.68 1.668v-.278z" fill="#DABD74"/></svg>