<svg width="125" height="89" viewBox="0 0 125 89" fill="none" xmlns="http://www.w3.org/2000/svg">
<path d="M47.9656 13.8062C48.3474 15.05 48.5542 16.3699 48.5542 17.7373C48.5542 25.1499 42.5745 32.3467 29.7356 40.3853L27.7922 41.6018L25.8489 40.3853C22.9285 38.5566 20.3667 36.7722 18.1458 35.0183C12.0793 43.7327 8.51245 54.3167 8.49219 65.7349H116.505C116.458 38.8267 96.7317 16.5366 70.9504 12.4846L74.0715 0H50.9255L54.0466 12.4846C51.9783 12.8096 49.949 13.2529 47.9656 13.8062ZM62.4988 31.3337C64.043 30.468 65.7983 29.999 67.6059 29.999C73.3682 29.999 78.0559 34.687 78.0559 40.4492C78.0559 46.0269 73.73 51.333 64.4421 57.1484L62.4988 58.365L60.5554 57.1484C51.2676 51.333 46.9416 46.0266 46.9416 40.4492C46.9416 34.687 51.6296 29.999 57.3916 29.999C59.1992 29.9993 60.9546 30.468 62.4988 31.3337Z" fill="#DABD74"/>
<path d="M62.4985 49.6782C69.6086 44.8745 70.7314 41.8674 70.7314 40.4492C70.7314 38.7256 69.3291 37.3232 67.6057 37.3232C66.7063 37.3232 65.8491 37.7134 65.2537 38.3931L62.4985 41.5393L59.7434 38.3931C59.1479 37.7134 58.2908 37.3232 57.3914 37.3232C55.6677 37.3232 54.2656 38.7256 54.2656 40.4492C54.2656 41.8674 55.3884 44.8745 62.4985 49.6782Z" fill="#C4C4C4"/>
<path d="M41.2307 17.7375C41.2307 14.3762 38.4961 11.6416 35.135 11.6416C33.3801 11.6416 31.7083 12.4014 30.5483 13.7263L27.7932 16.8728L25.0381 13.7263C23.8779 12.4014 22.2061 11.6416 20.4512 11.6416C17.0898 11.6416 14.3555 14.3762 14.3555 17.7375C14.3555 21.8962 18.9905 27.127 27.7932 32.9297C36.5955 27.127 41.2307 21.8962 41.2307 17.7375Z" fill="#C4C4C4"/>
<path d="M0 73.1001V80.4243H6.36523L10.3735 88.4407H114.626L118.635 80.4243H125V73.1001H0Z" fill="#DABD74"/>
</svg>
