<svg width="120" height="120" viewBox="0 0 120 120" fill="none" xmlns="http://www.w3.org/2000/svg">
<path d="M100.086 78.2267C104.916 78.2267 108.836 74.3088 108.836 69.4767C108.836 65.0663 108.29 60.1165 100.747 53.2575C100.36 52.9063 99.8095 52.7959 99.3172 52.9756C98.8246 53.1556 98.4727 53.5939 98.4073 54.1128C97.5553 60.5346 91.3359 65.2499 91.3359 69.4764C91.3362 74.3086 95.2543 78.2267 100.086 78.2267Z" fill="#C4C4C4"/>
<path d="M56.5739 25.3355C61.4031 25.3355 65.3238 21.4171 65.3238 16.585C65.3238 12.1746 64.7782 7.2256 57.2345 0.366297C56.8446 0.0143856 56.2969 -0.0947303 55.8046 0.0844576C55.3123 0.264163 54.9604 0.702436 54.8903 1.22138C54.0432 7.6437 47.8252 12.3579 47.8252 16.585C47.8249 21.4171 51.743 25.3355 56.5739 25.3355Z" fill="#C4C4C4"/>
<path d="M15.249 58.1014C20.0767 58.1014 23.9992 54.1836 23.9992 49.3514C23.9992 44.9416 23.4518 39.9926 15.9099 33.1322C15.5228 32.7819 14.9723 32.672 14.48 32.8519C13.9877 33.0311 13.6358 33.4689 13.5701 33.9878C12.7184 40.4102 6.49902 45.1249 6.49902 49.3514C6.49876 54.1833 10.4166 58.1014 15.249 58.1014Z" fill="#C4C4C4"/>
<path d="M26.1254 63.0005H4.37538C2.00819 63.0005 0.09375 64.9175 0.09375 67.2811V115.719C0.09375 118.083 2.00819 120 4.37538 120H26.1254C28.4879 120 30.4057 118.083 30.4057 115.719V67.2811C30.4057 64.9175 28.4879 63.0005 26.1254 63.0005Z" fill="#DABD74"/>
<path d="M61.4566 31.1094H51.6879C49.3235 31.1094 47.4062 33.0269 47.4062 35.3902V115.719C47.4062 118.083 49.3238 120 51.6879 120H61.4566C63.8209 120 65.7429 118.083 65.7429 115.719V35.3902C65.7429 33.0269 63.8209 31.1094 61.4566 31.1094Z" fill="#DABD74"/>
<path d="M115.627 83.0278H84.5482C82.1813 83.0278 80.2666 84.9451 80.2666 87.3089V115.719C80.2666 118.083 82.1813 120 84.5482 120H115.627C117.989 120 119.907 118.083 119.907 115.719V87.3089C119.907 84.9451 117.989 83.0278 115.627 83.0278Z" fill="#DABD74"/>
</svg>
