<svg width="120" height="120" viewBox="0 0 120 120" fill="none" xmlns="http://www.w3.org/2000/svg">
<path d="M49.054 24.9533C42.7162 20.3082 36.2138 14.5831 31.5858 7.64119L27.5344 1.56432C26.6761 0.276894 25.0763 -0.296387 23.5896 0.149863C22.1065 0.599628 21.0938 1.96603 21.0938 3.51455V58.6733C19.0172 57.4623 16.6352 56.7177 14.0625 56.7177C6.3068 56.7177 0 63.0245 0 70.7802C0 78.5359 6.3068 84.8424 14.0625 84.8424C21.8182 84.8424 28.125 78.5356 28.125 70.7799V15.0578C33.0928 21.3371 39.307 26.5257 44.8964 30.6249C47.6428 32.6368 49.2188 35.7406 49.2188 39.1393C49.2188 44.9551 44.4877 49.6862 38.6719 49.6862C36.7287 49.6862 35.1562 51.2586 35.1562 53.2018C35.1562 55.145 36.7287 56.7174 38.6719 56.7174C48.364 56.7174 56.25 48.8314 56.25 39.1393C56.25 33.5603 53.5617 28.2594 49.054 24.9533Z" fill="#C4C4C4"/>
<path d="M115.52 28.7272L65.8322 42.7897C64.3216 43.2223 63.2812 44.6023 63.2812 46.1715V93.8302C61.2047 92.6192 58.8227 91.8746 56.25 91.8746C48.4943 91.8746 42.1875 98.1814 42.1875 105.937C42.1875 113.693 48.4943 120 56.25 120C64.0057 120 70.3125 113.693 70.3125 105.937C70.3125 105.136 70.3125 62.8871 70.3125 62.8871L112.969 50.8334V79.7677C110.892 78.5567 108.51 77.8121 105.938 77.8121C98.1818 77.8121 91.875 84.1189 91.875 91.8746C91.875 99.6303 98.1818 105.937 105.938 105.937C113.693 105.937 120 99.6303 120 91.8746C120 91.073 120 32.109 120 32.109C120 29.7837 117.776 28.0899 115.52 28.7272Z" fill="#DABD74"/>
</svg>
