<svg width="160" height="160" viewBox="0 0 160 160" fill="none" xmlns="http://www.w3.org/2000/svg">
<g clip-path="url(#clip0)">
<path d="M28.5125 111.3L19.9599 131.044L2.45775 140.55C0.874464 141.41 -0.0757597 143.102 0.0136069 144.901C0.102973 146.701 1.21568 148.29 2.87646 148.989L28.1638 159.634C28.75 159.881 29.368 160.001 29.9814 160.001C31.1204 160.001 32.2437 159.586 33.1211 158.795C34.471 157.578 34.9956 155.689 34.4666 153.95L28.6031 134.674L37.0626 115.145C38.6065 115.479 40.1723 115.651 41.7394 115.651C44.5954 115.651 47.4529 115.096 50.1773 113.986C55.7074 111.733 60.0289 107.46 62.3462 101.957L71.6622 79.8271L19.7327 97.1368C20.7217 102.722 23.8111 107.848 28.5125 111.3Z" fill="#DABD74"/>
<path d="M123.053 28.7993C123.825 29.2805 124.682 29.5099 125.529 29.5099C127.093 29.5099 128.622 28.7275 129.51 27.3026L137.603 14.3266C138.973 12.1303 138.303 9.23929 136.106 7.86942C133.91 6.49924 131.019 7.17011 129.649 9.36616L121.556 22.3421C120.187 24.5385 120.857 27.4295 123.053 28.7993Z" fill="#DABD74"/>
<path d="M104.77 20.6454C105.272 22.8112 107.2 24.2751 109.332 24.2751C109.683 24.2751 110.038 24.2357 110.394 24.1529C112.916 23.5686 114.487 21.0504 113.902 18.5288L110.449 3.63109C109.865 1.10945 107.348 -0.463527 104.825 0.123293C102.304 0.707613 100.733 3.22581 101.317 5.74745L104.77 20.6454Z" fill="#DABD74"/>
<path d="M131.788 38.2216C132.29 40.3876 134.218 41.8512 136.35 41.8512C136.7 41.8512 137.057 41.8118 137.412 41.729L152.31 38.2762C154.832 37.6919 156.403 35.1737 155.818 32.6521C155.234 30.1304 152.717 28.5575 150.194 29.1443L135.296 32.5971C132.774 33.1817 131.204 35.6999 131.788 38.2216Z" fill="#DABD74"/>
<path d="M49.2993 25.6727C51.8419 25.6727 53.9032 23.6115 53.9032 21.0688C53.9032 18.5261 51.8419 16.4648 49.2993 16.4648C46.7566 16.4648 44.6953 18.5261 44.6953 21.0688C44.6953 23.6115 46.7566 25.6727 49.2993 25.6727Z" fill="#DABD74"/>
<path d="M33.809 16.9374C36.3517 16.9374 38.413 14.8761 38.413 12.3334C38.413 9.79075 36.3517 7.72949 33.809 7.72949C31.2663 7.72949 29.2051 9.79075 29.2051 12.3334C29.2051 14.8761 31.2663 16.9374 33.809 16.9374Z" fill="#DABD74"/>
<path d="M29.0043 33.6713C31.547 33.6713 33.6083 31.61 33.6083 29.0673C33.6083 26.5246 31.547 24.4634 29.0043 24.4634C26.4616 24.4634 24.4004 26.5246 24.4004 29.0673C24.4004 31.61 26.4616 33.6713 29.0043 33.6713Z" fill="#DABD74"/>
<path d="M134.159 73.4312L118.533 36.3128C118.051 35.1673 117.133 34.2602 115.982 33.7912C114.831 33.3218 113.541 33.329 112.395 33.8115L80 47.4493L47.6049 33.8115C46.4591 33.3293 45.1689 33.3215 44.0178 33.7912C42.8663 34.2602 41.9489 35.1673 41.4664 36.3128L21.1355 84.607C20.7924 85.4223 20.5059 86.2472 20.2656 87.0768L76.5007 68.3317L81.563 56.3066L134.159 73.4312ZM53.9659 63.704C51.4233 63.704 49.362 61.6426 49.362 59.1001C49.362 56.5575 51.4233 54.4961 53.9659 54.4961C56.5085 54.4961 58.5698 56.5575 58.5698 59.1001C58.5698 61.6426 56.5085 63.704 53.9659 63.704Z" fill="#C4C4C4"/>
<path d="M157.543 140.55L140.04 131.043L131.488 111.3C139.563 105.37 142.892 94.5037 138.962 84.8533L82.75 66.5522L97.6542 101.956C99.9712 107.46 104.293 111.732 109.823 113.986C112.548 115.096 115.404 115.651 118.261 115.651C119.827 115.651 121.394 115.478 122.938 115.145L131.398 134.674L125.534 153.95C125.005 155.689 125.529 157.577 126.879 158.795C127.757 159.586 128.88 160.001 130.019 160.001C130.633 160.001 131.25 159.881 131.837 159.634L157.125 148.989C158.785 148.29 159.898 146.7 159.987 144.901C160.076 143.101 159.126 141.41 157.543 140.55ZM117.515 96.3582C114.973 96.3582 112.912 94.2968 112.912 91.7543C112.912 89.2117 114.973 87.1503 117.515 87.1503C120.058 87.1503 122.119 89.2117 122.119 91.7543C122.119 94.2968 120.058 96.3582 117.515 96.3582Z" fill="#DABD74"/>
</g>
<defs>
<clipPath id="clip0">
<rect width="160" height="160" fill="white"/>
</clipPath>
</defs>
</svg>
