<svg width="160" height="160" viewBox="0 0 160 160" fill="none" xmlns="http://www.w3.org/2000/svg">
<g clip-path="url(#clip0)">
<path d="M9.6875 37.5H56.5625V56.25H9.6875V37.5Z" fill="#DABD74"/>
<path d="M9.6875 65.625H56.5625V131.25H9.6875V65.625Z" fill="#DABD74"/>
<path d="M103.438 37.5H150.312V56.25H103.438V37.5Z" fill="#DABD74"/>
<path d="M103.438 131.25H150.312V65.625H103.438V131.25ZM112.812 103.125H140.938V112.5H112.812V103.125Z" fill="#DABD74"/>
<path d="M107.832 24.8016C111 22.1237 112.812 18.2097 112.812 14.0625C112.812 6.30813 106.504 0 98.75 0C92.5884 0 87.1959 3.94594 85.3466 9.81437L80 26.6791L74.6534 9.81437C72.8041 3.94594 67.4116 0 61.25 0C53.4956 0 47.1875 6.30813 47.1875 14.0625C47.1875 18.2097 49.0003 22.1237 52.1772 24.8062L67.1941 37.5H65.9375V160L80 145.938L94.0625 160V37.5H92.8081L107.832 24.8016ZM94.2822 12.6434C94.9047 10.6888 96.6994 9.375 98.75 9.375C101.332 9.375 103.438 11.4762 103.438 14.0625C103.438 15.445 102.833 16.7541 101.78 17.6469L89.375 28.125L94.2822 12.6434ZM56.5625 14.0625C56.5625 11.4762 58.6681 9.375 61.25 9.375C63.3009 9.375 65.0953 10.6888 65.7178 12.6434L70.625 28.125L58.2288 17.6513C57.1669 16.7541 56.5625 15.445 56.5625 14.0625Z" fill="#C4C4C4"/>
</g>
<defs>
<clipPath id="clip0">
<rect width="160" height="160" fill="white"/>
</clipPath>
</defs>
</svg>
