<svg width="280" height="50" viewBox="0 0 280 50" fill="none" xmlns="http://www.w3.org/2000/svg">
<path fill-rule="evenodd" clip-rule="evenodd" d="M30.1157 -2.67029e-05C30.2075 0.344604 30.2994 0.657963 30.3916 0.93784C30.4831 1.21835 30.5757 1.4878 30.6669 1.74651C30.7133 2.0485 30.7819 2.3287 30.8738 2.58804C30.9657 2.84644 31.0579 3.14811 31.1491 3.49305C31.7928 5.34763 32.7347 7.90282 33.9751 11.1596C35.2155 14.4155 36.5245 17.7904 37.9028 21.2835C37.9947 21.4992 38.0866 21.7153 38.1788 21.9304C38.2703 22.1459 38.3628 22.3619 38.4544 22.578C40.1083 26.8469 41.6822 30.7825 43.1753 34.3836C44.6687 37.9847 45.6678 40.303 46.1729 41.3379C46.3109 41.6831 46.4489 41.9851 46.5865 42.2442C46.7241 42.5029 46.8628 42.7834 47.0001 43.085C47.0913 43.3005 47.207 43.5267 47.3443 43.7642C47.483 44.0011 47.6203 44.2497 47.7579 44.5084C47.9881 44.9393 48.4585 45.3275 49.1709 45.6728C49.8826 46.0177 50.6525 46.3415 51.479 46.6429C51.6634 46.6865 51.8471 46.7509 52.0305 46.8368C52.2146 46.9237 52.398 46.9881 52.5824 47.0308C52.7201 47.0741 52.8463 47.1281 52.9607 47.1928C53.0764 47.2573 53.2026 47.3113 53.3402 47.3546L54.7872 47.8723H34.3887L36.1802 47.2257C36.4558 47.1821 36.7547 47.0962 37.076 46.966C37.3981 46.8368 37.7427 46.7076 38.1101 46.5784C38.7532 46.363 39.3391 46.1033 39.8674 45.8017C40.3954 45.5003 40.7289 45.1336 40.8665 44.7024C40.8665 44.7024 40.8665 44.6913 40.8665 44.6698C40.8665 44.6481 40.8894 44.6162 40.9355 44.5729C40.9355 44.5296 40.9355 44.4977 40.9355 44.4756C40.9355 44.4541 40.9355 44.4219 40.9355 44.3792C40.9355 44.1632 40.8894 43.8827 40.7978 43.5374C40.706 43.1924 40.5757 42.875 40.4529 42.5673L27.1843 9.37834L27.1076 9.33854L26.6701 8.34539L19.6408 25.2949H28.8157L30.187 28.6588H18.1934L13.3689 40.7557C13.3228 40.8852 13.2891 40.9822 13.2659 41.0473C13.243 41.1117 13.2312 41.1878 13.2312 41.2734C13.1397 41.4459 13.059 41.6399 12.9903 41.8559C12.9217 42.071 12.8641 42.2871 12.8177 42.5029C12.6797 42.9773 12.5653 43.43 12.4734 43.8612C12.3809 44.2924 12.3351 44.6162 12.3351 44.8319C12.3351 44.8745 12.3351 44.9074 12.3351 44.9286C12.3351 44.9507 12.3351 44.9826 12.3351 45.0259C12.5188 45.4141 12.8749 45.7262 13.4039 45.9637C13.9319 46.201 14.5181 46.4275 15.1611 46.6429C15.2533 46.6429 15.3445 46.6536 15.4371 46.6751C15.5286 46.6975 15.5976 46.7291 15.6433 46.7721C15.8735 46.8589 16.103 46.9341 16.3322 46.9986C16.5624 47.0636 16.7686 47.1388 16.9527 47.2257L18.8136 47.8723H0L1.5153 47.3546C1.837 47.2687 2.1937 47.1612 2.58405 47.0308C2.97474 46.9016 3.35331 46.7721 3.72112 46.6429C4.50216 46.3839 5.23711 46.0825 5.92628 45.7372C6.61545 45.3923 7.07512 45.0259 7.30428 44.6379C7.44225 44.4219 7.55734 44.2064 7.64887 43.9904C7.74108 43.7753 7.83328 43.581 7.92515 43.4085C8.01601 43.279 8.08567 43.1498 8.13177 43.02C8.17754 42.8911 8.2233 42.7395 8.2694 42.5673C8.36126 42.3955 8.44135 42.2227 8.51 42.0502C8.57966 41.8774 8.65974 41.6831 8.75195 41.4683C9.34858 40.2604 9.93513 38.9987 10.5092 37.6831C11.0836 36.3684 11.6695 35.0198 12.2661 33.64C12.5882 32.9501 12.9099 32.2492 13.2312 31.5372C13.553 30.8258 13.8743 30.1034 14.1967 29.3702C16.5852 23.8068 18.7443 18.5994 20.6742 13.7467C22.6044 8.89536 23.7983 5.80091 24.2584 4.46345C24.3957 4.03258 24.5222 3.64468 24.6373 3.29942C24.7517 2.95447 24.8557 2.6092 24.9472 2.26362C24.9472 2.13474 24.9701 2.01628 25.0158 1.90856C25.0623 1.80053 25.0848 1.68207 25.0848 1.55256C25.1764 1.3368 25.2571 1.09989 25.3261 0.841175C25.3951 0.58215 25.4523 0.323444 25.4981 0.0650482L30.1157 -2.67029e-05Z" fill="black"/>
<path d="M97.492 9.15694V29.776C97.492 37.374 95.5693 42.6334 91.7242 45.5539C87.8791 48.4741 83.4942 49.9123 78.5687 49.8682C73.8597 49.8245 69.6364 48.3094 65.8996 45.323C62.1624 42.3365 60.2938 37.44 60.2938 30.6327V6.78555C60.2938 6.74148 60.2938 6.66427 60.2938 6.55458C60.2938 6.44489 60.3156 6.32426 60.3586 6.1927C60.3586 6.10488 60.3586 5.99519 60.3586 5.86331C60.3586 5.73142 60.3586 5.59985 60.3586 5.46764C60.3586 5.292 60.3476 5.12762 60.326 4.97386C60.3042 4.8201 60.2722 4.65509 60.2292 4.47946C60.1858 4.216 60.1213 3.9638 60.0346 3.7219C59.9482 3.48032 59.8188 3.25001 59.646 3.03063C59.5596 2.94281 59.4299 2.83279 59.2571 2.70123C59.0843 2.56934 58.8894 2.45966 58.6736 2.37184C58.328 2.1962 57.9391 2.03118 57.5071 1.87742C57.0752 1.72398 56.6432 1.55896 56.2113 1.38333C55.736 1.25144 55.2715 1.11987 54.818 0.987988C54.3642 0.856422 53.9646 0.746731 53.6187 0.658913L52.1282 0.131996H74.0974L72.6718 0.724537C72.412 0.900169 72.1098 1.03204 71.7642 1.11986C71.4187 1.20768 71.0516 1.29551 70.6627 1.38333C70.5763 1.42707 70.4899 1.46019 70.4035 1.48239C70.3171 1.50426 70.2307 1.53708 70.1443 1.58083C69.4099 1.75646 68.7077 1.96523 68.0381 2.20681C67.3682 2.44838 66.9039 2.72311 66.6448 3.03063C66.6017 3.11845 66.5473 3.195 66.4828 3.26062C66.4179 3.32656 66.3641 3.40376 66.3207 3.49158C66.0619 3.97441 65.9103 4.46883 65.8673 4.97386C65.8239 5.47889 65.8024 6.03894 65.8024 6.65366V30.8302C65.8024 36.1002 66.9793 39.877 69.3342 42.1609C71.6889 44.4448 74.7021 45.8721 78.3744 46.443C78.72 46.4868 79.044 46.5199 79.3462 46.5418C79.649 46.5637 79.9516 46.5746 80.2538 46.5746C83.8397 46.5746 86.9937 45.2242 89.7154 42.5234C92.4369 39.8223 93.7982 36.2099 93.7982 31.6865V7.04867C93.7982 7.04867 93.7982 7.03774 93.7982 7.01554C93.7982 6.99367 93.7982 6.96086 93.7982 6.91711C93.7982 6.60991 93.7982 6.29112 93.7982 5.96173C93.7982 5.63233 93.7552 5.292 93.6688 4.94041C93.6254 4.67727 93.5495 4.41351 93.4416 4.15005C93.3337 3.8866 93.1935 3.62315 93.0201 3.3597C92.9337 3.27188 92.8043 3.1728 92.6312 3.06311C92.4587 2.95342 92.2426 2.83279 91.9834 2.70123C91.6809 2.56934 91.3242 2.42652 90.9138 2.27276C90.5037 2.119 90.0828 1.95397 89.6502 1.77834C89.1319 1.64677 88.6462 1.49301 88.1924 1.31738C87.7386 1.14174 87.3393 0.987976 86.9937 0.856411L85.5026 0.131996H105.722L104.426 0.856411C104.081 1.07579 103.681 1.25144 103.227 1.38333C102.774 1.51489 102.309 1.66864 101.834 1.84428C101.1 2.06398 100.397 2.29463 99.7277 2.53621C99.0581 2.77779 98.6151 3.0525 98.399 3.3597C98.2265 3.57941 98.0857 3.9638 97.9778 4.51258C97.8696 5.06168 97.7727 5.6436 97.6863 6.25832C97.6 6.91711 97.5458 7.52121 97.5243 8.06999C97.5025 8.61909 97.492 9.00286 97.492 9.22289V9.15694ZM132.227 26.2186L130.932 26.4827L138.125 34.5851C138.903 35.5073 139.626 36.353 140.296 37.1215C140.965 37.89 141.624 38.6475 142.272 39.3941C142.445 39.6139 142.629 39.8223 142.823 40.0201C143.018 40.2176 143.201 40.4264 143.374 40.6461C143.893 41.2171 144.443 41.7877 145.026 42.3584C145.61 42.9294 146.225 43.5441 146.874 44.2032C147.262 44.5545 147.597 44.8726 147.878 45.1583C148.159 45.4442 148.45 45.7183 148.753 45.9817C148.926 46.1133 149.088 46.2452 149.239 46.3771C149.39 46.5086 149.574 46.6405 149.789 46.7721C150.178 47.0356 150.621 47.3103 151.118 47.5959C151.615 47.8812 152.252 48.2219 153.03 48.6169L154.78 49.4073L152.641 49.9342C152.555 49.9782 152.447 50.0001 152.317 50.0001C152.187 50.0001 152.036 50.0001 151.863 50.0001C151.172 50.0001 150.319 49.8798 149.304 49.6379C148.288 49.3967 147.241 49.1001 146.161 48.7488C144.951 48.2656 143.493 47.1456 141.787 45.3889C140.08 43.6319 138.319 41.7437 136.505 39.7235C136.461 39.6795 136.418 39.647 136.375 39.6248C136.332 39.6029 136.31 39.5698 136.31 39.5257C135.921 39.1307 135.554 38.7353 135.209 38.3403C134.863 37.945 134.517 37.55 134.172 37.1546L124.71 26.8777H122.961V42.4903C122.961 43.2369 122.993 43.8847 123.058 44.4335C123.122 44.9826 123.371 45.5208 123.803 46.0477C124.062 46.399 124.526 46.6955 125.196 46.9371C125.866 47.1787 126.568 47.3875 127.303 47.5631C127.432 47.6069 127.551 47.6509 127.659 47.6947C127.767 47.7387 127.886 47.7606 128.015 47.7606C128.361 47.8484 128.685 47.9469 128.987 48.0569C129.29 48.1666 129.57 48.2656 129.83 48.3535L131.255 48.8804H109.286L110.777 48.4194C111.123 48.3753 111.523 48.2875 111.976 48.156C112.43 48.0241 112.894 47.8925 113.37 47.7606C113.845 47.585 114.298 47.42 114.73 47.2665C115.162 47.1128 115.529 46.9477 115.832 46.7721C116.091 46.6843 116.296 46.5746 116.447 46.443C116.599 46.3111 116.718 46.2011 116.804 46.1133C117.02 45.8502 117.171 45.5539 117.258 45.2242C117.344 44.8948 117.409 44.5545 117.452 44.2032C117.452 43.9401 117.452 43.6872 117.452 43.4456C117.452 43.2041 117.452 42.9512 117.452 42.6878C117.452 42.644 117.452 42.5781 117.452 42.4903C117.452 42.4025 117.452 42.3365 117.452 42.2928V6.58771C117.452 6.01705 117.419 5.48951 117.355 5.00667C117.29 4.52351 117.085 4.06224 116.739 3.62315C116.437 3.27188 115.951 2.93154 115.281 2.60215C114.612 2.27275 113.909 1.95398 113.175 1.64678C112.743 1.47114 112.322 1.30676 111.911 1.153C111.501 0.999241 111.123 0.856422 110.777 0.724537L109.352 0.131996H121.146C121.794 0.175743 122.399 0.186367 122.961 0.164494C123.522 0.142296 124.084 0.109806 124.645 0.0660591C124.732 0.0660591 124.818 0.0660591 124.905 0.0660591C124.991 0.0660591 125.077 0.0660591 125.164 0.0660591C125.639 0.0660591 126.114 0.0547981 126.59 0.0326042C127.065 0.0107269 127.562 0.00012207 128.08 0.00012207C128.555 0.00012207 129.042 0.0107269 129.538 0.0326042C130.035 0.0547981 130.564 0.087925 131.126 0.131996C131.471 0.175743 131.807 0.219501 132.131 0.263573C132.454 0.30732 132.789 0.351383 133.134 0.395134C135.727 0.966106 138.125 2.34996 140.328 4.54539C142.532 6.74147 143.633 9.79385 143.633 13.7025C143.633 16.689 142.91 19.0382 141.462 20.7511C140.015 22.4637 138.427 23.7597 136.699 24.6379C135.921 25.0333 135.144 25.3623 134.366 25.6258C133.589 25.8892 132.876 26.1089 132.227 26.2846V26.2186ZM129.246 3.09625C129.117 3.14032 128.998 3.16219 128.89 3.16219C128.782 3.16219 128.685 3.14032 128.598 3.09625C128.469 3.09625 128.35 3.09625 128.242 3.09625C128.134 3.09625 128.015 3.09625 127.886 3.09625C127.843 3.09625 127.799 3.09625 127.756 3.09625C127.713 3.09625 127.67 3.09625 127.627 3.09625C126.806 3.09625 126.017 3.15093 125.261 3.26062C124.505 3.37064 123.997 3.51345 123.738 3.68909C123.349 3.95254 123.122 4.30382 123.058 4.74291C122.993 5.182 122.961 5.6436 122.961 6.12676C122.961 6.17051 122.961 6.20332 122.961 6.22519C122.961 6.24739 122.961 6.28051 122.961 6.32426V24.111L126.006 24.0451C129.419 24.0451 132.357 23.0897 134.82 21.1796C137.283 19.2688 138.492 16.7546 138.449 13.6366C138.449 13.5047 138.449 13.3731 138.449 13.2416C138.449 13.1097 138.449 12.9778 138.449 12.8462C138.233 10.167 137.293 7.98218 135.63 6.29113C133.966 4.6004 132.141 3.60127 130.154 3.29375C130.024 3.25 129.884 3.21687 129.733 3.195C129.581 3.17281 129.419 3.16219 129.246 3.16219V3.09625ZM198.911 9.15694V29.776C198.911 37.374 196.99 42.6334 193.145 45.5539C189.301 48.4741 184.914 49.9123 179.989 49.8682C175.28 49.8245 171.057 48.3094 167.32 45.323C163.583 42.3365 161.714 37.44 161.714 30.6327V6.78555C161.714 6.74148 161.714 6.66427 161.714 6.55458C161.714 6.44489 161.736 6.32426 161.779 6.1927C161.779 6.10488 161.779 5.99519 161.779 5.86331C161.779 5.73142 161.779 5.59985 161.779 5.46764C161.779 5.292 161.768 5.12762 161.746 4.97386C161.724 4.8201 161.692 4.65509 161.649 4.47946C161.606 4.216 161.541 3.9638 161.455 3.7219C161.368 3.48032 161.239 3.25001 161.066 3.03063C160.98 2.94281 160.85 2.83279 160.677 2.70123C160.505 2.56934 160.31 2.45966 160.094 2.37184C159.748 2.1962 159.359 2.03118 158.927 1.87742C158.495 1.72398 158.063 1.55896 157.631 1.38333C157.156 1.25144 156.691 1.11987 156.238 0.987988C155.785 0.856422 155.385 0.746731 155.039 0.658913L153.548 0.131996H175.517L174.092 0.724537C173.832 0.900169 173.53 1.03204 173.184 1.11986C172.839 1.20768 172.472 1.29551 172.083 1.38333C171.997 1.42707 171.91 1.46019 171.823 1.48239C171.737 1.50426 171.651 1.53708 171.564 1.58083C170.83 1.75646 170.128 1.96523 169.458 2.20681C168.788 2.44838 168.324 2.72311 168.065 3.03063C168.022 3.11845 167.968 3.195 167.903 3.26062C167.838 3.32656 167.784 3.40376 167.741 3.49158C167.482 3.97441 167.331 4.46883 167.287 4.97386C167.244 5.47889 167.223 6.03894 167.223 6.65366V30.8302C167.223 36.1002 168.4 39.877 170.754 42.1609C173.109 44.4448 176.122 45.8721 179.794 46.443C180.14 46.4868 180.464 46.5199 180.766 46.5418C181.069 46.5637 181.372 46.5746 181.674 46.5746C185.26 46.5746 188.415 45.2242 191.136 42.5234C193.857 39.8223 195.218 36.2099 195.218 31.6865V7.04867C195.218 7.04867 195.218 7.03774 195.218 7.01554C195.218 6.99367 195.218 6.96086 195.218 6.91711C195.218 6.60991 195.218 6.29112 195.218 5.96173C195.218 5.63233 195.174 5.292 195.088 4.94041C195.044 4.67727 194.968 4.41351 194.861 4.15005C194.753 3.8866 194.614 3.62315 194.44 3.3597C194.354 3.27188 194.225 3.1728 194.05 3.06311C193.88 2.95342 193.661 2.83279 193.405 2.70123C193.101 2.56934 192.744 2.42652 192.335 2.27276C191.924 2.119 191.503 1.95397 191.07 1.77834C190.551 1.64677 190.066 1.49301 189.614 1.31738C189.158 1.14174 188.76 0.987976 188.415 0.856411L186.923 0.131996H207.142L205.848 0.856411C205.499 1.07579 205.101 1.25144 204.648 1.38333C204.193 1.51489 203.731 1.66864 203.253 1.84428C202.519 2.06398 201.816 2.29463 201.148 2.53621C200.477 2.77779 200.034 3.0525 199.819 3.3597C199.645 3.57941 199.506 3.9638 199.398 4.51258C199.291 5.06168 199.193 5.6436 199.107 6.25832C199.019 6.91711 198.965 7.52121 198.943 8.06999C198.924 8.61909 198.911 9.00286 198.911 9.22289V9.15694ZM225.546 5.79736C226.41 7.68559 227.556 9.93636 228.983 12.5493C230.407 15.1626 231.897 17.8747 233.454 20.6855C233.625 20.9927 233.79 21.2893 233.938 21.5746C234.09 21.8602 234.252 22.1343 234.426 22.3978C236.672 26.3508 238.777 29.9848 240.745 33.3006C242.71 36.6165 243.973 38.6475 244.536 39.3941C245.919 37.1106 247.862 33.6082 250.368 28.8869C252.874 24.1657 255.51 19.1701 258.273 13.9001C258.403 13.6803 258.532 13.4497 258.662 13.2081C258.792 12.9665 258.921 12.7365 259.051 12.5168C259.44 11.7699 259.839 11.0233 260.251 10.277C260.662 9.53041 261.061 8.78347 261.45 8.03687C261.795 7.37807 262.108 6.76335 262.39 6.1927C262.668 5.62172 262.94 5.05043 263.2 4.47946C263.241 4.34789 263.295 4.216 263.361 4.08443C263.424 3.95255 263.478 3.82098 263.523 3.68909C263.782 3.16219 264.032 2.60215 264.269 2.00931C264.507 1.41646 264.776 0.790466 265.079 0.131996L268.643 0.0660591C268.687 0.856415 268.728 1.58083 268.772 2.24026C268.817 2.89873 268.858 3.51345 268.902 4.08443C268.902 4.27132 268.912 4.43571 268.934 4.58947C268.956 4.74291 268.965 4.88605 268.965 5.01762C269.01 5.76423 269.064 6.53271 269.13 7.32371C269.193 8.11407 269.269 8.97038 269.355 9.8923C269.484 11.5177 269.636 13.2522 269.81 15.0748C269.981 16.8971 270.155 18.7307 270.326 20.5861C270.76 25.7689 271.171 30.5448 271.557 34.8926C271.946 39.2516 272.165 41.469 272.206 41.5571C272.206 41.6887 272.218 41.8096 272.241 41.9193C272.26 42.0293 272.272 42.1503 272.272 42.2821C272.358 42.9406 272.478 43.566 272.627 44.1594C272.779 44.7629 272.94 45.2573 273.114 45.6523C273.329 46.0477 273.763 46.4102 274.411 46.7393C275.057 47.0687 275.75 47.3656 276.484 47.6291C276.829 47.7606 277.164 47.8812 277.487 47.9909C277.813 48.1009 278.126 48.2219 278.427 48.3535L279.788 48.8804H259.633L261.773 48.0241C261.947 48.0241 262.108 47.9909 262.26 47.925C262.409 47.859 262.573 47.8047 262.744 47.7606C262.788 47.7606 262.82 47.7494 262.842 47.7275C262.864 47.7056 262.896 47.6947 262.94 47.6947C263.63 47.4753 264.288 47.2337 264.915 46.9696C265.541 46.7062 265.966 46.3771 266.181 45.9817C266.526 45.4108 266.753 44.8842 266.861 44.401C266.969 43.9179 267.022 43.4563 267.022 43.0172C267.022 42.7537 267.013 42.4903 266.991 42.2268C266.969 41.9634 266.937 41.7218 266.893 41.5024C266.848 41.3268 266.817 41.1618 266.795 41.008C266.772 40.8546 266.763 40.6899 266.763 40.5145L264.105 10.6061C263.33 12.0112 262.099 14.2626 260.412 17.3584C258.728 20.4545 256.934 23.7597 255.032 27.2731C253.738 29.732 252.463 32.1368 251.21 34.4863C249.957 36.8359 248.855 38.8891 247.906 40.6461C247.732 40.9533 247.571 41.2608 247.419 41.568C247.267 41.8756 247.105 42.2049 246.931 42.5562C246.89 42.6878 246.824 42.8309 246.738 42.9847C246.653 43.1385 246.564 43.3025 246.479 43.4785C245.83 44.8401 245.238 46.103 244.697 47.2665C244.156 48.43 243.821 49.1438 243.691 49.4073C243.52 49.056 243.185 48.4413 242.688 47.5631C242.191 46.6843 241.685 45.7402 241.166 44.7304C241.122 44.6864 241.099 44.6532 241.099 44.6314C241.099 44.6095 241.099 44.5985 241.099 44.5985C240.928 44.2473 240.754 43.9179 240.58 43.61C240.41 43.3025 240.235 42.9953 240.065 42.6878C235.312 33.7291 231.4 26.6802 228.334 21.5415C225.268 16.4033 223.429 13.2853 222.825 12.1868L221.012 37.3522C221.012 37.5719 220.989 37.8131 220.945 38.0766C220.904 38.3403 220.882 38.6475 220.882 38.9988C220.837 39.4379 220.793 39.9211 220.752 40.4483C220.708 40.9755 220.686 41.5024 220.686 42.0293C220.686 42.1171 220.686 42.2049 220.686 42.2928C220.686 42.3806 220.686 42.4462 220.686 42.4903C220.686 43.1491 220.739 43.7863 220.85 44.401C220.958 45.0158 221.141 45.5427 221.401 45.9817C221.616 46.333 221.983 46.6405 222.502 46.904C223.021 47.1678 223.581 47.4093 224.185 47.6291C224.271 47.6291 224.359 47.6509 224.445 47.6947C224.53 47.7387 224.619 47.7606 224.704 47.7606C224.878 47.8484 225.062 47.925 225.255 47.9909C225.448 48.0569 225.635 48.1341 225.806 48.2219L227.622 48.8804H210.705L211.809 48.3535C211.939 48.3535 212.056 48.3316 212.164 48.2875C212.271 48.2438 212.392 48.1997 212.521 48.156C212.651 48.0681 212.781 48.0022 212.911 47.9584C213.04 47.9144 213.17 47.8703 213.3 47.8266C214.034 47.519 214.724 47.2006 215.372 46.8712C216.021 46.5418 216.474 46.1574 216.733 45.7183C216.948 45.2792 217.122 44.4776 217.252 43.3138C217.382 42.1503 217.489 40.8983 217.575 39.581C217.575 39.2735 217.588 38.9769 217.61 38.6916C217.629 38.406 217.641 38.1094 217.641 37.8019C217.815 36.309 217.977 34.7388 218.126 33.0809C218.277 31.434 218.398 29.776 218.483 28.1075C218.743 24.5829 218.948 21.2236 219.1 18.0062C219.249 14.8001 219.391 12.3187 219.521 10.5511C219.606 9.40946 219.66 8.35533 219.682 7.38934C219.705 6.42302 219.714 5.4567 219.714 4.4907C219.714 4.08443 219.714 3.66721 219.714 3.22813C219.714 2.78872 219.714 2.34996 219.714 1.91023C219.714 1.60271 219.714 1.30676 219.714 1.02111C219.714 0.735786 219.714 0.439198 219.714 0.131996L223.473 0.0660591C223.603 0.505146 223.765 1.02112 223.961 1.61397C224.154 2.20681 224.382 2.83278 224.641 3.49158C224.727 3.75503 224.812 4.01849 224.901 4.28194C224.986 4.54539 225.094 4.80884 225.223 5.0723C225.268 5.20418 225.321 5.33575 225.385 5.46764C225.448 5.59985 225.505 5.73142 225.546 5.86331V5.79736Z" fill="black"/>
</svg>
