<svg width="160" height="160" viewBox="0 0 160 160" fill="none" xmlns="http://www.w3.org/2000/svg">
<g clip-path="url(#clip0)">
<path d="M30.0235 69.3436C30.6118 68.5426 30.8579 67.5408 30.7076 66.5584C30.5573 65.576 30.0228 64.6936 29.2219 64.1053C28.421 63.5169 27.4191 63.2708 26.4367 63.4212C25.4544 63.5715 24.5719 64.1059 23.9836 64.9068L18.8012 71.9907C20.0581 58.0391 25.9913 44.9212 35.6386 34.7645C45.2858 24.6078 58.0813 18.008 71.9499 16.0354C85.8184 14.0628 99.9467 16.8331 112.043 23.8971C124.14 30.961 133.495 41.9043 138.593 54.9522C138.949 55.8767 139.657 56.622 140.563 57.024C141.468 57.4261 142.496 57.452 143.421 57.096C144.345 56.74 145.091 56.0313 145.493 55.1259C145.895 54.2204 145.921 53.1923 145.565 52.2678C139.861 37.6168 129.365 25.3281 115.787 17.4029C102.208 9.47765 86.3468 6.38263 70.785 8.62181C55.2231 10.861 40.8776 18.3025 30.0845 29.7345C19.2913 41.1666 12.6861 55.9158 11.3445 71.5806L7.01965 63.8256C6.52525 62.9604 5.70738 62.327 4.74598 62.0648C3.78459 61.8026 2.75841 61.9331 1.89319 62.4275C1.02798 62.9219 0.394603 63.7398 0.132404 64.7012C-0.129796 65.6626 0.00065729 66.6888 0.495066 67.554L10.9344 86.4939C11.2333 87.0932 11.6977 87.5943 12.2726 87.9379C12.8474 88.2815 13.5087 88.4532 14.1781 88.4326C14.7663 88.4342 15.3466 88.2965 15.8715 88.0308C16.3964 87.7651 16.8509 87.379 17.198 86.904L30.0235 69.3436Z" fill="#C4C4C4"/>
<path d="M160.253 92.1981L149.813 73.2582C149.511 72.7111 149.076 72.2488 148.548 71.9138C148.021 71.5788 147.417 71.3818 146.794 71.341C146.17 71.3001 145.546 71.4168 144.979 71.6801C144.412 71.9435 143.921 72.3451 143.55 72.8481L130.761 90.2221C130.47 90.6161 130.258 91.0637 130.14 91.5394C130.021 92.0151 129.998 92.5095 130.07 92.9943C130.143 93.4792 130.311 93.9449 130.564 94.3649C130.817 94.7848 131.15 95.1508 131.544 95.4418C131.938 95.7336 132.386 95.9448 132.862 96.0634C133.337 96.182 133.832 96.2056 134.317 96.1329C134.801 96.0602 135.267 95.8925 135.687 95.6396C136.107 95.3867 136.473 95.0534 136.764 94.6588L141.946 87.575C140.696 101.529 134.768 114.652 125.123 124.814C115.479 134.976 102.684 141.581 88.8139 143.558C74.944 145.535 60.8129 142.768 48.7131 135.706C36.6133 128.643 27.2545 117.7 22.155 104.651C21.7991 103.726 21.0904 102.981 20.1849 102.579C19.2795 102.177 18.2514 102.151 17.3269 102.507C16.4023 102.863 15.657 103.572 15.255 104.477C14.853 105.383 14.8271 106.411 15.1831 107.335C20.8912 121.989 31.3932 134.278 44.9782 142.2C58.5631 150.122 74.4304 153.211 89.995 150.962C105.56 148.714 119.904 141.262 130.692 129.819C141.48 118.376 148.075 103.618 149.403 87.9478L153.728 95.8146C154.222 96.6798 155.04 97.3132 156.002 97.5754C156.963 97.8376 157.989 97.7071 158.854 97.2127C159.72 96.7183 160.353 95.9005 160.615 94.9391C160.877 93.9777 160.747 92.9515 160.253 92.0863V92.1981Z" fill="#C4C4C4"/>
<path d="M83.2266 83.1768V90.6334C85.911 89.7013 87.3277 87.949 87.3277 86.9051C87.2905 85.5256 86.7312 84.6308 83.2266 83.1768Z" fill="#DABD74"/>
<path d="M71.6694 68.0395C71.2593 70.0155 72.6761 71.7678 75.3977 72.6626H75.6587V64.4976C74.727 64.6506 73.8578 65.0646 73.1517 65.6915C72.4457 66.3183 71.9317 67.1325 71.6694 68.0395Z" fill="#DABD74"/>
<path d="M79.4955 30.1958C69.8357 30.1958 60.3927 33.0603 52.3608 38.427C44.3289 43.7938 38.0688 51.4217 34.3721 60.3463C30.6755 69.2709 29.7082 79.0912 31.5928 88.5655C33.4773 98.0397 38.129 106.742 44.9596 113.573C51.7901 120.404 60.4928 125.055 69.9671 126.94C79.4414 128.824 89.2617 127.857 98.1863 124.16C107.111 120.464 114.739 114.204 120.106 106.172C125.472 98.1398 128.337 88.6969 128.337 79.037C128.317 66.0896 123.165 53.6781 114.01 44.5228C104.854 35.3676 92.443 30.2155 79.4955 30.1958ZM83.2239 98.4244C83.2239 98.4244 84.3797 104.278 79.4955 104.278C74.6114 104.278 75.7672 98.6481 75.7672 98.6481C72.7952 98.4746 69.9753 97.2755 67.7886 95.2553C66.6418 93.9754 65.7665 92.4764 65.2154 90.8487C64.6643 89.2211 64.4489 87.4986 64.5822 85.7853C64.5822 84.7965 64.975 83.8482 65.6742 83.149C66.3734 82.4498 67.3217 82.057 68.3105 82.057C69.2993 82.057 70.2477 82.4498 70.9469 83.149C71.6461 83.8482 72.0389 84.7965 72.0389 85.7853C72.0389 90.2593 74.5368 90.744 75.7672 90.9304V80.5656C75.3571 80.5656 62.8671 76.8373 64.5822 66.4725C65.2042 63.91 66.6213 61.6101 68.6305 59.9023C70.6397 58.1944 73.1379 57.1663 75.7672 56.9653C75.7672 56.9653 75.0588 52.3794 79.4955 52.3794C83.9323 52.3794 83.2239 57.5991 83.2239 57.5991C85.7723 58.3494 88.0833 59.7462 89.9322 61.6539C91.781 63.5616 93.1049 65.9151 93.7751 68.4858C93.9277 69.4261 93.7146 70.3892 93.1795 71.1773C92.6444 71.9654 91.828 72.5188 90.8977 72.7239C89.9675 72.9291 88.994 72.7704 88.1771 72.2804C87.3602 71.7904 86.7618 71.0063 86.5048 70.089C85.9439 68.3016 84.7855 66.7615 83.2239 65.7269V75.3087C90.867 78.0676 94.7817 80.6402 94.7817 87.2394C94.7444 92.4963 89.7112 97.0822 83.2239 98.4244Z" fill="#DABD74"/>
</g>
<defs>
<clipPath id="clip0">
<rect width="160" height="160" fill="white"/>
</clipPath>
</defs>
</svg>
