<svg width="160" height="160" viewBox="0 0 160 160" fill="none" xmlns="http://www.w3.org/2000/svg">
<g clip-path="url(#clip0)">
<path d="M0 126.417V154.001C0 157.315 2.68469 160.002 5.99656 160.002H107.015C110.327 160.002 113.012 157.315 113.012 154.001V126.417H0ZM63.3381 147.544H49.6731C47.0844 147.544 44.9856 145.444 44.9856 142.854C44.9856 140.263 47.0844 138.163 49.6731 138.163H63.3381C65.9269 138.163 68.0256 140.263 68.0256 142.854C68.0256 145.444 65.9269 147.544 63.3381 147.544Z" fill="#DABD74"/>
<path d="M98.6862 92.6402L79.4991 97.7811C78.3131 98.0992 77.0884 98.2605 75.86 98.2605C72.1034 98.2605 68.5716 96.7974 65.9156 94.1408C62.375 90.6005 60.9803 85.3958 62.2762 80.5586L67.4097 61.4008C65.2712 55.6071 64.1894 49.5152 64.1894 43.2452C64.1894 25.3424 73.1831 9.50361 86.8872 0.000488281H5.99656C2.68469 0.000800781 0 2.68549 0 5.99736V117.042H113.011V95.7042C108.089 95.3583 103.293 94.3339 98.6862 92.6402Z" fill="#DABD74"/>
<path d="M116.782 0.0273438C92.9513 0.0273438 73.5638 19.4148 73.5638 43.2455C73.5638 49.3686 74.8126 55.2627 77.2779 60.7923L71.3317 82.9845C70.8982 84.602 71.361 86.3283 72.5451 87.5123C73.4357 88.403 74.6329 88.8855 75.8598 88.8855C76.2642 88.8855 76.672 88.833 77.0726 88.7255L99.2885 82.773C104.803 85.2227 110.679 86.4633 116.782 86.4633C140.613 86.4633 160 67.0758 160 43.2455C160 19.4148 140.613 0.0273438 116.782 0.0273438ZM130.756 51.6327C130.107 56.072 126.733 60.5673 121.249 62.2511V65.7664C121.249 68.3552 119.15 70.4539 116.562 70.4539C113.973 70.4539 111.874 68.3552 111.874 65.7664V62.7008C109.653 62.3777 107.662 61.6705 105.069 60.207C102.815 58.9345 102.019 56.0752 103.291 53.8208C104.564 51.5664 107.424 50.7705 109.678 52.0427C112.191 53.4611 113.157 53.5889 116.534 53.5714C119.812 53.5527 121.288 51.5911 121.48 50.277C121.652 49.0989 120.821 48.2217 119.011 47.6698C113.482 45.9833 110.262 44.6427 107.898 43.0427C104.733 40.9008 103.187 37.1283 103.863 33.1977C104.582 29.0139 107.696 25.5595 111.874 24.2273V20.9511C111.874 18.3623 113.973 16.2636 116.562 16.2636C119.15 16.2636 121.249 18.3623 121.249 20.9511V23.9527C123.374 24.4939 124.945 25.3411 125.834 25.9095C125.835 25.9083 125.836 25.9067 125.838 25.9055C126.571 26.3623 127.329 26.8952 128.146 27.5345C130.186 29.1292 130.547 32.0748 128.952 34.1145C127.358 36.1542 124.412 36.5145 122.372 34.9205C121.575 34.2973 120.943 33.862 120.313 33.5352C120.313 33.5348 120.313 33.5345 120.313 33.5342C119.468 33.1186 117.519 32.4211 114.874 33.1092C113.732 33.4061 113.321 34.1095 113.178 34.5027C113.028 34.9155 113.089 35.2048 113.127 35.258C113.127 35.258 113.133 35.2652 113.153 35.278C115.055 36.5658 118.564 37.7314 121.746 38.702C124.896 39.663 127.404 41.423 129 43.792C130.538 46.0755 131.162 48.8602 130.756 51.6327Z" fill="#C4C4C4"/>
</g>
<defs>
<clipPath id="clip0">
<rect width="160" height="160" fill="white"/>
</clipPath>
</defs>
</svg>
