<svg width="368" height="40" viewBox="0 0 368 40" fill="none" xmlns="http://www.w3.org/2000/svg">
<g clip-path="url(#clip0)">
<path fill-rule="evenodd" clip-rule="evenodd" d="M24.5517 35.673H42.7514V4.27051H24.5517V35.673Z" fill="#FF5F00"/>
<path fill-rule="evenodd" clip-rule="evenodd" d="M25.7079 19.9712C25.7079 13.6004 28.8146 7.92634 33.6522 4.26995C30.114 1.59548 25.6502 0 20.7981 0C9.31144 0 0.0001297 8.94154 0.0001297 19.9712C0.0001297 31.0008 9.31144 39.9424 20.7981 39.9424C25.6502 39.9424 30.114 38.3469 33.6522 35.6724C28.8146 32.0155 25.7079 26.342 25.7079 19.9712Z" fill="#EB001B"/>
<path fill-rule="evenodd" clip-rule="evenodd" d="M66.6547 32.3467V31.5717H66.4438L66.2017 32.1048L65.9591 31.5717H65.7482V32.3467H65.8967V31.7619L66.1243 32.2662H66.2786L66.5062 31.7608V32.3467H66.6547ZM65.3195 32.3467V31.7037H65.5899V31.5728H64.9023V31.7037H65.1722V32.3467H65.3195ZM67.3041 19.9712C67.3041 31.0008 57.9922 39.9424 46.5062 39.9424C41.6541 39.9424 37.1897 38.3469 33.652 35.6724C38.4897 32.016 41.5963 26.342 41.5963 19.9712C41.5963 13.6009 38.4897 7.9269 33.652 4.26995C37.1897 1.59548 41.6541 0 46.5062 0C57.9922 0 67.3041 8.94154 67.3041 19.9712Z" fill="#F79E1B"/>
</g>
<g clip-path="url(#clip1)">
<path d="M140.002 39.4232H130.281L136.361 0.702148H146.082L140.002 39.4232Z" fill="#00579F"/>
<path d="M175.239 1.64851C173.321 0.865044 170.28 0 166.52 0C156.92 0 150.16 5.27238 150.119 12.8103C150.039 18.3718 154.959 21.4607 158.638 23.3151C162.399 25.21 163.678 26.4468 163.678 28.1358C163.639 30.7298 160.639 31.9256 157.84 31.9256C153.959 31.9256 151.879 31.3091 148.719 29.8659L147.439 29.2472L146.079 37.9392C148.359 39.0091 152.559 39.9584 156.92 40C167.12 40 173.76 34.8092 173.839 26.7764C173.878 22.3685 171.28 18.991 165.679 16.2311C162.279 14.4594 160.197 13.2647 160.197 11.452C160.237 9.804 161.958 8.11607 165.796 8.11607C168.957 8.0334 171.278 8.81577 173.037 9.59869L173.917 10.0099L175.239 1.64851Z" fill="#00579F"/>
<path d="M188.157 25.7057C188.957 23.4812 192.038 14.8719 192.038 14.8719C191.998 14.9545 192.837 12.6063 193.317 11.1648L193.996 14.5012C193.996 14.5012 195.837 23.7698 196.237 25.7057C194.718 25.7057 190.077 25.7057 188.157 25.7057ZM200.156 0.702148H192.637C190.318 0.702148 188.557 1.40185 187.556 3.91485L173.117 39.4227H183.317C183.317 39.4227 184.996 34.6436 185.357 33.6143C186.476 33.6143 196.398 33.6143 197.838 33.6143C198.117 34.9737 198.998 39.4227 198.998 39.4227H207.998L200.156 0.702148Z" fill="#00579F"/>
<path d="M122.16 0.702148L112.64 27.1062L111.6 21.7512C109.84 15.5721 104.32 8.85874 98.16 5.52066L106.88 39.3822H117.159L132.439 0.702148H122.16Z" fill="#00579F"/>
<path d="M103.8 0.702148H88.16L88 1.48452C100.2 4.69777 108.28 12.4432 111.6 21.7528L108.2 3.95701C107.64 1.48397 105.92 0.783725 103.8 0.702148Z" fill="#FAA61A"/>
</g>
<path fill-rule="evenodd" clip-rule="evenodd" d="M352.282 0H325.711C327.14 8.85714 335.711 17.1429 345.14 17.1429H366.282C366.568 16.2857 366.568 15.1429 366.568 14.2857C366.568 6.28571 360.282 0 352.282 0Z" fill="url(#paint0_linear)"/>
<path fill-rule="evenodd" clip-rule="evenodd" d="M328 18.5713V39.9999H340.857V28.5713H352.286C358.571 28.5713 364 24.2856 365.714 18.5713H328Z" fill="#4DB45F"/>
<path fill-rule="evenodd" clip-rule="evenodd" d="M282.286 0V40H293.715C293.715 40 296.572 40 298 37.1429C305.715 21.7143 308 17.1429 308 17.1429H309.429V40H322.286V0H310.857C310.857 0 308 0.285714 306.572 2.85714C300 16 296.572 22.8571 296.572 22.8571H295.143V0H282.286Z" fill="#4DB45F"/>
<path fill-rule="evenodd" clip-rule="evenodd" d="M228 40V0H240.857C240.857 0 244.571 0 246.571 5.71429C251.714 20.8571 252.286 22.8571 252.286 22.8571C252.286 22.8571 253.429 19.1429 258 5.71429C260 0 263.714 0 263.714 0H276.571V40H263.714V18.5714H262.286L255.143 40H249.429L242.286 18.5714H240.857V40H228Z" fill="#4DB45F"/>
<defs>
<linearGradient id="paint0_linear" x1="325.637" y1="8.57143" x2="366.568" y2="8.57143" gradientUnits="userSpaceOnUse">
<stop stop-color="#00B4E6"/>
<stop offset="1" stop-color="#088CCB"/>
</linearGradient>
<clipPath id="clip0">
<rect width="68" height="40" fill="white"/>
</clipPath>
<clipPath id="clip1">
<rect width="120" height="40" fill="white" transform="translate(88)"/>
</clipPath>
</defs>
</svg>
