<svg width="130" height="21" viewBox="0 0 130 21" fill="none" xmlns="http://www.w3.org/2000/svg">
<path d="M119.5 0C118.121 -1.6443e-08 116.756 0.271591 115.482 0.799265C114.208 1.32694 113.05 2.10036 112.075 3.07538C111.1 4.05039 110.327 5.20791 109.799 6.48182C109.272 7.75574 109 9.12112 109 10.5C109 11.8789 109.272 13.2443 109.799 14.5182C110.327 15.7921 111.1 16.9496 112.075 17.9246C113.05 18.8996 114.208 19.6731 115.482 20.2007C116.756 20.7284 118.121 21 119.5 21L119.5 10.5V0Z" fill="#00AA6C"/>
<circle cx="92.5" cy="10.5" r="10.5" fill="#00AA6C"/>
<circle cx="65.5" cy="10.5" r="10.5" fill="#00AA6C"/>
<circle cx="37.5" cy="10.5" r="10.5" fill="#00AA6C"/>
<circle cx="10.5" cy="10.5" r="10.5" fill="#00AA6C"/>
</svg>
