<svg width="283" height="93" viewBox="0 0 283 93" fill="none" xmlns="http://www.w3.org/2000/svg">
<path d="M274.185 56.8364L282.036 62.078C279.488 65.8369 273.394 72.2855 262.857 72.2855C249.773 72.2855 240.028 62.147 240.028 49.2497C240.028 35.5248 249.876 26.2139 261.755 26.2139C273.703 26.2139 279.557 35.7317 281.451 40.8699L282.484 43.4907L251.701 56.2501C254.042 60.8711 257.692 63.216 262.857 63.216C268.022 63.216 271.603 60.6642 274.185 56.8364ZM250.048 48.5255L270.604 39.9733C269.468 37.1111 266.094 35.0765 262.065 35.0765C256.935 35.0765 249.807 39.6284 250.048 48.5255Z" fill="#FF302F"/>
<path d="M225.188 2.72949H235.104V70.1817H225.188V2.72949Z" fill="#20B15A"/>
<path d="M209.555 28.0069H219.128V68.9748C219.128 85.9758 209.108 92.9762 197.263 92.9762C186.107 92.9762 179.392 85.4585 176.879 79.3547L185.659 75.6993C187.243 79.4582 191.065 83.9067 197.263 83.9067C204.872 83.9067 209.555 79.1823 209.555 70.3542V67.0437H209.211C206.938 69.8024 202.6 72.2854 197.091 72.2854C185.59 72.2854 175.054 62.2503 175.054 49.3185C175.054 36.3177 185.59 26.1792 197.091 26.1792C202.565 26.1792 206.938 28.6276 209.211 31.3174H209.555V28.0069ZM210.244 49.3185C210.244 41.1801 204.838 35.2487 197.951 35.2487C190.996 35.2487 185.142 41.1801 185.142 49.3185C185.142 57.3534 190.996 63.1814 197.951 63.1814C204.838 63.2159 210.244 57.3534 210.244 49.3185Z" fill="#3686F7"/>
<path d="M120.615 49.146C120.615 62.4227 110.285 72.1818 97.6143 72.1818C84.9431 72.1818 74.6133 62.3882 74.6133 49.146C74.6133 35.8004 84.9431 26.0757 97.6143 26.0757C110.285 26.0757 120.615 35.8004 120.615 49.146ZM110.561 49.146C110.561 40.8697 104.57 35.1797 97.6143 35.1797C90.6589 35.1797 84.6676 40.8697 84.6676 49.146C84.6676 57.3534 90.6589 63.1123 97.6143 63.1123C104.57 63.1123 110.561 57.3534 110.561 49.146Z" fill="#FF302F"/>
<path d="M170.853 49.2497C170.853 62.5263 160.523 72.2855 147.852 72.2855C135.18 72.2855 124.851 62.5263 124.851 49.2497C124.851 35.9041 135.18 26.2139 147.852 26.2139C160.523 26.2139 170.853 35.8696 170.853 49.2497ZM160.764 49.2497C160.764 40.9734 154.773 35.2834 147.817 35.2834C140.862 35.2834 134.87 40.9734 134.87 49.2497C134.87 57.4571 140.862 63.216 147.817 63.216C154.807 63.216 160.764 57.4226 160.764 49.2497Z" fill="#FFBA40"/>
<path d="M36.8064 62.1812C22.3792 62.1812 11.0853 50.5253 11.0853 36.0762C11.0853 21.6271 22.3792 9.97123 36.8064 9.97123C44.5882 9.97123 50.2696 13.0404 54.4704 16.9716L61.3913 10.0402C55.5378 4.41918 47.7216 0.143066 36.8064 0.143066C17.0421 0.143066 0.411133 16.2819 0.411133 36.0762C0.411133 55.8705 17.0421 72.0094 36.8064 72.0094C47.4806 72.0094 55.5378 68.4919 61.839 61.9398C68.3123 55.4567 70.3094 46.3527 70.3094 38.9729C70.3094 36.6625 70.0339 34.283 69.724 32.5243H36.8064V42.1111H60.2551C59.5664 48.1114 57.6726 52.2151 54.8836 55.0084C51.5092 58.4224 46.1721 62.1812 36.8064 62.1812Z" fill="#3686F7"/>
</svg>
