<svg width="263" height="124" viewBox="0 0 263 124" fill="none" xmlns="http://www.w3.org/2000/svg">
<path d="M42.3159 45.9538C55.7937 47.1171 67.3106 55.133 73.3641 66.5028C66.1017 68.0915 58.995 71.4101 52.0084 75.4499C49.4387 65.4363 48.5237 55.8818 42.3159 45.9538ZM74.7346 69.3551C76.7816 74.0909 77.9156 79.3118 77.9156 84.799C77.9156 91.9071 76.0133 98.5715 72.6896 104.31C68.537 102.77 62.6111 99.2063 57.9979 90.9603C55.8611 87.1422 54.3821 83.4363 53.2419 79.8039C59.6701 75.3058 66.6544 71.5315 74.7346 69.3551ZM64.3165 114.389C57.4935 120.25 48.6222 123.793 38.9224 123.793C27.9072 123.793 17.9603 119.224 10.8691 111.88C24.1614 105.599 34.7672 94.2839 46.8251 84.6318C47.603 88.9489 48.8148 93.7178 50.7388 98.81C53.993 107.425 59.8527 112.023 64.3165 114.389ZM0 82.4654C0.592393 72.4315 4.97806 63.4181 11.7435 56.8398C16.2505 52.4565 21.8147 49.1543 28.0165 47.3517C32.4843 46.0535 36.7595 45.7876 38.9443 51.0723C39.7105 52.9257 39.8861 55.2268 39.5815 57.7899C37.627 74.2335 15.9172 101.534 3.81107 91.5517C1.16485 89.3698 0.122389 86.0835 0 82.4654ZM44.3795 59.3364C44.7941 61.6886 45.0606 63.777 45.1681 65.3022C45.3854 68.3821 45.3345 73.1343 46.0133 79.0889C41.6126 81.8683 37.2568 84.8207 32.9379 87.6871C34.8834 85.059 37.705 80.4241 40.9481 72.5609C43.1258 67.2792 44.0692 62.8533 44.3795 59.3364Z" fill="url(#paint0_linear)"/>
<path d="M43.5553 43.7686C43.5553 43.7686 38.321 40.8848 35.7127 34.1182C33.1046 27.3497 32.329 18.0454 24.4335 9.02261C16.5385 -0.000156403 16.5385 -0.000156403 16.5385 -0.000156403C16.5385 -0.000156403 11.3221 13.6757 20.2043 23.9674C29.0863 34.259 35.219 36.7263 35.219 36.7263L36.1355 38.3823C36.1355 38.3823 34.6903 37.5729 32.5051 36.5855C30.3195 35.5982 28.9809 34.3294 23.6235 31.1582C18.2656 27.9851 14.8115 27.3516 10.6524 27.5628C6.49337 27.7739 1.13602 30.1005 1.13602 30.1005C1.13602 30.1005 7.19838 34.9648 13.3313 36.2336C19.4643 37.5025 29.2626 36.7263 30.2495 36.8671C31.2369 37.0078 33.5626 38.1359 36.3121 40.1106C39.0611 42.0852 40.6653 43.4245 40.6653 43.4245C41.341 43.4831 42.3766 43.5183 43.5553 43.7686Z" fill="url(#paint1_linear)"/>
<path d="M52.427 8.1997C58.7378 9.49983 62.1391 17.4747 60.0227 26.0145C57.9067 34.5544 51.0746 40.4255 44.7632 39.1254C43.9712 38.9631 43.2245 38.6953 42.5293 38.3336C40.1261 32.613 39.8498 25.774 42.2433 18.7337C42.7594 17.2146 43.3831 15.7385 44.1016 14.3152C42.1457 16.9585 40.5732 19.8833 39.5071 23.0173C38.2756 26.6401 37.8343 30.2043 38.0885 33.5534C36.4789 30.2492 36.0405 25.8601 37.1677 21.3106C39.2838 12.7707 46.1161 6.90151 52.427 8.1997Z" fill="url(#paint2_linear)"/>
<path fill-rule="evenodd" clip-rule="evenodd" d="M108.696 69.8561C108.75 70.0694 108.803 70.2633 108.857 70.4365C108.91 70.6101 108.964 70.7769 109.017 70.937C109.044 71.1239 109.083 71.2974 109.137 71.4579C109.19 71.6178 109.244 71.8045 109.297 72.018C109.671 73.1658 110.218 74.7473 110.939 76.763C111.659 78.7781 112.42 80.867 113.221 83.0289C113.274 83.1625 113.327 83.2962 113.381 83.4293C113.434 83.5627 113.488 83.6964 113.541 83.8301C114.502 86.4722 115.416 88.9081 116.284 91.1369C117.152 93.3657 117.732 94.8005 118.026 95.441C118.106 95.6547 118.186 95.8416 118.266 96.002C118.346 96.1621 118.426 96.3357 118.506 96.5224C118.559 96.6557 118.626 96.7957 118.706 96.9427C118.787 97.0894 118.866 97.2432 118.946 97.4034C119.08 97.67 119.353 97.9103 119.767 98.124C120.181 98.3375 120.628 98.5379 121.108 98.7244C121.215 98.7514 121.322 98.7913 121.429 98.8445C121.536 98.8982 121.642 98.9381 121.749 98.9645C121.829 98.9913 121.903 99.0247 121.969 99.0648C122.036 99.1047 122.11 99.1381 122.19 99.1649L123.03 99.4854H111.179L112.22 99.0851C112.38 99.0582 112.554 99.005 112.74 98.9244C112.927 98.8445 113.128 98.7645 113.341 98.6845C113.715 98.5512 114.055 98.3905 114.362 98.2038C114.669 98.0173 114.863 97.7903 114.943 97.5234C114.943 97.5234 114.943 97.5166 114.943 97.5033C114.943 97.4898 114.956 97.47 114.983 97.4433C114.983 97.4165 114.983 97.3967 114.983 97.383C114.983 97.3697 114.983 97.3498 114.983 97.3234C114.983 97.1897 114.956 97.0161 114.903 96.8024C114.849 96.5889 114.774 96.3924 114.702 96.202L106.993 75.6606L106.949 75.6359L106.695 75.0212L102.611 85.5117H107.941L108.738 87.5937H101.77L98.9667 95.0807C98.9399 95.1609 98.9203 95.2209 98.9068 95.2612C98.8935 95.3011 98.8867 95.3482 98.8867 95.4012C98.8335 95.5079 98.7866 95.6279 98.7467 95.7617C98.7068 95.8948 98.6734 96.0285 98.6464 96.1621C98.5663 96.4557 98.4998 96.7359 98.4464 97.0028C98.3926 97.2696 98.366 97.47 98.366 97.6036C98.366 97.63 98.366 97.6503 98.366 97.6634C98.366 97.6771 98.366 97.6968 98.366 97.7236C98.4728 97.9639 98.6797 98.1571 98.987 98.3041C99.2937 98.4509 99.6343 98.5911 100.008 98.7244C100.062 98.7244 100.114 98.7311 100.168 98.7444C100.221 98.7582 100.262 98.7778 100.288 98.8044C100.422 98.8582 100.555 98.9047 100.688 98.9446C100.822 98.9848 100.942 99.0314 101.049 99.0851L102.13 99.4854H91.1995L92.0798 99.1649C92.2667 99.1117 92.474 99.0453 92.7008 98.9645C92.9278 98.8845 93.1477 98.8044 93.3614 98.7244C93.8152 98.5641 94.2422 98.3776 94.6426 98.1639C95.043 97.9504 95.31 97.7236 95.4432 97.4835C95.5233 97.3498 95.5902 97.2165 95.6434 97.0827C95.697 96.9496 95.7505 96.8294 95.8039 96.7226C95.8567 96.6425 95.8972 96.5625 95.9239 96.4821C95.9505 96.4024 95.9771 96.3085 96.0039 96.202C96.0573 96.0956 96.1038 95.9887 96.1437 95.8819C96.1842 95.775 96.2307 95.6547 96.2843 95.5218C96.6309 94.7742 96.9717 93.9933 97.3052 93.179C97.639 92.3653 97.9793 91.5307 98.326 90.6767C98.5131 90.2497 98.7 89.8158 98.8867 89.3752C99.0736 88.9349 99.2603 88.4877 99.4476 88.034C100.835 84.5906 102.09 81.3677 103.211 78.3643C104.332 75.3616 105.026 73.4464 105.293 72.6186C105.373 72.3519 105.447 72.1119 105.513 71.8982C105.58 71.6847 105.64 71.471 105.694 71.2571C105.694 71.1773 105.707 71.104 105.733 71.0373C105.76 70.9705 105.774 70.8972 105.774 70.817C105.827 70.6835 105.874 70.5368 105.914 70.3767C105.954 70.2164 105.987 70.0563 106.014 69.8963L108.696 69.8561Z" fill="white"/>
<path d="M150.372 75.3666V87.8986C150.372 92.5165 149.184 95.7131 146.808 97.4881C144.432 99.2629 141.723 100.137 138.68 100.11C135.771 100.084 133.162 99.1628 130.853 97.3477C128.544 95.5326 127.389 92.5566 127.389 88.4192V73.9253C127.389 73.8985 127.389 73.8516 127.389 73.7849C127.389 73.7183 127.403 73.6449 127.429 73.565C127.429 73.5116 127.429 73.4449 127.429 73.3648C127.429 73.2846 127.429 73.2047 127.429 73.1243C127.429 73.0176 127.423 72.9176 127.409 72.8242C127.396 72.7307 127.376 72.6305 127.349 72.5237C127.323 72.3636 127.283 72.2103 127.229 72.0633C127.176 71.9164 127.096 71.7765 126.989 71.6431C126.936 71.5898 126.856 71.5229 126.749 71.4429C126.642 71.3628 126.522 71.2961 126.388 71.2427C126.175 71.136 125.935 71.0357 125.668 70.9422C125.401 70.849 125.134 70.7487 124.867 70.6419C124.573 70.5618 124.286 70.4818 124.006 70.4016C123.726 70.3217 123.479 70.255 123.265 70.2016L122.344 69.8814H135.918L135.037 70.2415C134.876 70.3483 134.69 70.4284 134.476 70.4818C134.263 70.5352 134.036 70.5886 133.796 70.6419C133.742 70.6685 133.689 70.6886 133.635 70.7021C133.582 70.7154 133.529 70.7354 133.475 70.762C133.022 70.8687 132.588 70.9956 132.174 71.1424C131.76 71.2893 131.473 71.4562 131.313 71.6431C131.287 71.6965 131.253 71.743 131.213 71.7829C131.173 71.823 131.14 71.8699 131.113 71.9233C130.953 72.2167 130.859 72.5172 130.833 72.8242C130.806 73.1311 130.793 73.4715 130.793 73.8451V88.5392C130.793 91.7423 131.52 94.0377 132.975 95.4259C134.43 96.814 136.291 97.6815 138.56 98.0285C138.774 98.0551 138.974 98.0752 139.161 98.0885C139.348 98.1018 139.535 98.1085 139.721 98.1085C141.937 98.1085 143.885 97.2877 145.567 95.6462C147.248 94.0045 148.09 91.8089 148.09 89.0597V74.0852C148.09 74.0852 148.09 74.0786 148.09 74.0651C148.09 74.0518 148.09 74.0319 148.09 74.0053C148.09 73.8186 148.09 73.6248 148.09 73.4246C148.09 73.2244 148.063 73.0176 148.01 72.8039C147.983 72.6439 147.936 72.4836 147.869 72.3235C147.802 72.1634 147.716 72.0033 147.609 71.8431C147.555 71.7898 147.475 71.7295 147.368 71.6629C147.262 71.5962 147.128 71.5229 146.968 71.4429C146.781 71.3628 146.561 71.276 146.307 71.1825C146.054 71.0891 145.794 70.9888 145.527 70.882C145.207 70.802 144.906 70.7086 144.626 70.6018C144.346 70.4951 144.099 70.4016 143.885 70.3217L142.964 69.8814H155.456L154.656 70.3217C154.442 70.455 154.195 70.5618 153.915 70.6419C153.635 70.7219 153.348 70.8153 153.054 70.9221C152.6 71.0556 152.167 71.1958 151.753 71.3426C151.339 71.4895 151.066 71.6564 150.932 71.8431C150.825 71.9767 150.738 72.2103 150.672 72.5438C150.605 72.8776 150.545 73.2312 150.492 73.6049C150.438 74.0053 150.405 74.3724 150.392 74.706C150.378 75.0397 150.372 75.273 150.372 75.4067V75.3666ZM171.832 85.7364L171.032 85.8969L175.476 90.8214C175.956 91.382 176.404 91.8959 176.817 92.363C177.231 92.8301 177.638 93.2905 178.038 93.7443C178.145 93.8778 178.259 94.0045 178.379 94.1248C178.499 94.2448 178.612 94.3717 178.719 94.5052C179.039 94.8522 179.38 95.1991 179.74 95.5459C180.101 95.8929 180.481 96.2666 180.881 96.6672C181.121 96.8807 181.328 97.074 181.502 97.2476C181.675 97.4214 181.855 97.588 182.042 97.7481C182.149 97.8281 182.249 97.9082 182.343 97.9884C182.436 98.0684 182.549 98.1485 182.683 98.2285C182.923 98.3886 183.197 98.5556 183.504 98.7292C183.81 98.9026 184.204 99.1097 184.685 99.3497L185.766 99.8301L184.445 100.15C184.391 100.177 184.324 100.19 184.244 100.19C184.164 100.19 184.071 100.19 183.964 100.19C183.537 100.19 183.01 100.117 182.383 99.9703C181.755 99.8237 181.108 99.6434 180.441 99.4299C179.693 99.1362 178.793 98.4555 177.738 97.3878C176.684 96.3199 175.596 95.1723 174.475 93.9445C174.448 93.9177 174.422 93.898 174.395 93.8845C174.368 93.8712 174.355 93.851 174.355 93.8243C174.115 93.5842 173.888 93.3439 173.674 93.1038C173.461 92.8635 173.247 92.6234 173.034 92.3832L167.188 86.137H166.107V95.6261C166.107 96.0798 166.127 96.4736 166.167 96.8071C166.207 97.1409 166.361 97.468 166.628 97.7882C166.788 98.0017 167.074 98.182 167.488 98.3288C167.902 98.4756 168.336 98.6025 168.79 98.7093C168.87 98.7358 168.943 98.7626 169.01 98.7892C169.076 98.816 169.15 98.8293 169.23 98.8293C169.443 98.8827 169.644 98.9425 169.83 99.0094C170.017 99.076 170.191 99.1362 170.351 99.1896L171.232 99.5099H157.659L158.58 99.2297C158.793 99.2029 159.04 99.1495 159.32 99.0696C159.601 98.9894 159.888 98.9094 160.181 98.8293C160.475 98.7225 160.755 98.6222 161.022 98.529C161.289 98.4355 161.516 98.3352 161.702 98.2285C161.863 98.1751 161.99 98.1084 162.083 98.0285C162.176 97.9483 162.25 97.8815 162.303 97.8281C162.437 97.6682 162.53 97.4881 162.584 97.2877C162.637 97.0875 162.677 96.8807 162.704 96.6672C162.704 96.5072 162.704 96.3536 162.704 96.2067C162.704 96.0599 162.704 95.9062 162.704 95.7461C162.704 95.7195 162.704 95.6794 162.704 95.6261C162.704 95.5727 162.704 95.5326 162.704 95.506V73.8051C162.704 73.4582 162.684 73.1376 162.643 72.8441C162.603 72.5505 162.477 72.2701 162.263 72.0033C162.076 71.7898 161.776 71.5829 161.362 71.3827C160.949 71.1825 160.515 70.9888 160.061 70.802C159.794 70.6953 159.534 70.5954 159.28 70.5019C159.027 70.4085 158.793 70.3217 158.58 70.2415L157.699 69.8814H164.986C165.386 69.908 165.76 69.9144 166.107 69.9011C166.454 69.8876 166.801 69.8679 167.148 69.8413C167.201 69.8413 167.255 69.8413 167.308 69.8413C167.361 69.8413 167.415 69.8413 167.468 69.8413C167.762 69.8413 168.055 69.8345 168.349 69.821C168.643 69.8077 168.95 69.8012 169.27 69.8012C169.563 69.8012 169.864 69.8077 170.171 69.821C170.478 69.8345 170.805 69.8546 171.152 69.8814C171.365 69.908 171.572 69.9346 171.773 69.9614C171.973 69.9879 172.179 70.0147 172.393 70.0413C173.995 70.3883 175.476 71.2294 176.837 72.5638C178.199 73.8985 178.879 75.7537 178.879 78.1293C178.879 79.9445 178.432 81.3723 177.538 82.4133C176.644 83.4542 175.663 84.2419 174.595 84.7757C174.115 85.016 173.634 85.216 173.154 85.3761C172.673 85.5362 172.233 85.6698 171.832 85.7765V85.7364ZM169.99 71.683C169.911 71.7098 169.837 71.7231 169.771 71.7231C169.704 71.7231 169.644 71.7098 169.59 71.683C169.51 71.683 169.437 71.683 169.37 71.683C169.303 71.683 169.23 71.683 169.15 71.683C169.123 71.683 169.096 71.683 169.07 71.683C169.043 71.683 169.016 71.683 168.99 71.683C168.483 71.683 167.995 71.7162 167.528 71.7829C167.061 71.8498 166.748 71.9366 166.587 72.0433C166.347 72.2035 166.207 72.417 166.167 72.6838C166.127 72.9507 166.107 73.2313 166.107 73.5249C166.107 73.5515 166.107 73.5714 166.107 73.5847C166.107 73.5982 166.107 73.6184 166.107 73.6449V84.4554L167.988 84.4154C170.097 84.4154 171.912 83.8347 173.434 82.6738C174.956 81.5124 175.703 79.9843 175.676 78.0893C175.676 78.0091 175.676 77.9291 175.676 77.8492C175.676 77.769 175.676 77.6889 175.676 77.6089C175.543 75.9805 174.962 74.6526 173.934 73.6248C172.907 72.5972 171.779 71.99 170.551 71.803C170.471 71.7765 170.384 71.7563 170.291 71.743C170.198 71.7295 170.097 71.7231 169.99 71.7231V71.683ZM213.032 75.3666V87.8986C213.032 92.5165 211.845 95.7131 209.47 97.4881C207.094 99.2629 204.384 100.137 201.341 100.11C198.431 100.084 195.822 99.1628 193.513 97.3477C191.205 95.5326 190.05 92.5566 190.05 88.4192V73.9253C190.05 73.8985 190.05 73.8516 190.05 73.7849C190.05 73.7183 190.063 73.6449 190.09 73.565C190.09 73.5116 190.09 73.4449 190.09 73.3648C190.09 73.2846 190.09 73.2047 190.09 73.1243C190.09 73.0176 190.083 72.9176 190.07 72.8242C190.057 72.7307 190.037 72.6305 190.01 72.5237C189.983 72.3636 189.943 72.2103 189.89 72.0633C189.837 71.9164 189.756 71.7765 189.65 71.6431C189.596 71.5898 189.516 71.5229 189.41 71.4429C189.303 71.3628 189.182 71.2961 189.049 71.2427C188.835 71.136 188.595 71.0357 188.328 70.9422C188.061 70.849 187.795 70.7487 187.528 70.6419C187.234 70.5618 186.947 70.4818 186.667 70.4016C186.387 70.3217 186.14 70.255 185.926 70.2016L185.005 69.8814H198.578L197.698 70.2415C197.537 70.3483 197.35 70.4284 197.137 70.4818C196.923 70.5352 196.696 70.5886 196.456 70.6419C196.403 70.6685 196.35 70.6886 196.296 70.7021C196.243 70.7154 196.189 70.7354 196.136 70.762C195.682 70.8687 195.248 70.9956 194.835 71.1424C194.421 71.2893 194.134 71.4562 193.974 71.6431C193.947 71.6965 193.914 71.743 193.874 71.7829C193.834 71.823 193.8 71.8699 193.774 71.9233C193.614 72.2167 193.52 72.5172 193.493 72.8242C193.467 73.1311 193.454 73.4715 193.454 73.8451V88.5392C193.454 91.7423 194.181 94.0377 195.635 95.4259C197.09 96.814 198.952 97.6815 201.221 98.0285C201.434 98.0551 201.634 98.0752 201.821 98.0885C202.008 98.1018 202.195 98.1085 202.382 98.1085C204.598 98.1085 206.547 97.2877 208.228 95.6462C209.909 94.0045 210.75 91.8089 210.75 89.0597V74.0852C210.75 74.0852 210.75 74.0786 210.75 74.0651C210.75 74.0518 210.75 74.0319 210.75 74.0053C210.75 73.8186 210.75 73.6248 210.75 73.4246C210.75 73.2244 210.723 73.0176 210.67 72.8039C210.643 72.6439 210.596 72.4836 210.529 72.3235C210.463 72.1634 210.377 72.0033 210.269 71.8431C210.216 71.7898 210.136 71.7295 210.029 71.6629C209.923 71.5962 209.788 71.5229 209.63 71.4429C209.442 71.3628 209.221 71.276 208.969 71.1825C208.715 71.0891 208.455 70.9888 208.187 70.882C207.866 70.802 207.567 70.7086 207.288 70.6018C207.006 70.4951 206.76 70.4016 206.547 70.3217L205.625 69.8814H218.117L217.317 70.3217C217.102 70.455 216.856 70.5618 216.576 70.6419C216.295 70.7219 216.009 70.8153 215.714 70.9221C215.261 71.0556 214.826 71.1958 214.414 71.3426C213.999 71.4895 213.726 71.6564 213.593 71.8431C213.485 71.9767 213.399 72.2103 213.333 72.5438C213.266 72.8776 213.206 73.2312 213.153 73.6049C213.098 74.0053 213.065 74.3724 213.051 74.706C213.04 75.0397 213.032 75.273 213.032 75.4067V75.3666ZM229.488 73.3247C230.021 74.4723 230.729 75.8403 231.611 77.4284C232.491 79.0168 233.412 80.6651 234.374 82.3735C234.479 82.5602 234.581 82.7404 234.673 82.9139C234.767 83.0875 234.866 83.254 234.974 83.4142C236.362 85.8168 237.662 88.0254 238.878 90.0408C240.092 92.0561 240.872 93.2905 241.22 93.7443C242.075 92.3564 243.275 90.2277 244.824 87.3582C246.372 84.4887 248.001 81.4524 249.707 78.2494C249.787 78.1159 249.868 77.9757 249.948 77.8288C250.028 77.682 250.108 77.5422 250.188 77.4087C250.429 76.9547 250.675 76.501 250.929 76.0474C251.183 75.5936 251.43 75.1396 251.67 74.6858C251.883 74.2854 252.077 73.9118 252.251 73.565C252.423 73.218 252.591 72.8707 252.751 72.5237C252.777 72.4437 252.81 72.3636 252.851 72.2836C252.89 72.2035 252.923 72.1235 252.951 72.0433C253.111 71.7231 253.266 71.3827 253.412 71.0224C253.559 70.6621 253.725 70.2816 253.913 69.8814L256.114 69.8413C256.142 70.3217 256.167 70.762 256.194 71.1628C256.222 71.563 256.247 71.9366 256.274 72.2836C256.274 72.3972 256.28 72.4971 256.294 72.5906C256.308 72.6838 256.314 72.7708 256.314 72.8508C256.341 73.3046 256.374 73.7716 256.415 74.2524C256.454 74.7328 256.501 75.2532 256.554 75.8135C256.634 76.8015 256.728 77.8556 256.836 78.9634C256.941 80.071 257.049 81.1854 257.154 82.3131C257.422 85.4631 257.676 88.3658 257.915 91.0083C258.155 93.6577 258.29 95.0053 258.316 95.0589C258.316 95.1389 258.323 95.2124 258.337 95.279C258.349 95.3459 258.357 95.4194 258.357 95.4996C258.409 95.8998 258.484 96.2798 258.576 96.6406C258.669 97.0073 258.769 97.3078 258.877 97.5479C259.01 97.7882 259.278 98.0085 259.678 98.2085C260.077 98.4088 260.505 98.5892 260.959 98.7493C261.172 98.8293 261.379 98.9026 261.579 98.9693C261.78 99.0361 261.974 99.1097 262.159 99.1896L263 99.5099H250.548L251.87 98.9894C251.977 98.9894 252.077 98.9693 252.171 98.9292C252.263 98.8891 252.364 98.8561 252.47 98.8293C252.497 98.8293 252.517 98.8224 252.53 98.8092C252.544 98.7959 252.564 98.7892 252.591 98.7892C253.017 98.6559 253.424 98.509 253.811 98.3485C254.198 98.1884 254.46 97.9884 254.593 97.7481C254.806 97.4011 254.947 97.081 255.013 96.7874C255.08 96.4937 255.113 96.2132 255.113 95.9463C255.113 95.7862 255.107 95.6261 255.094 95.4659C255.08 95.3058 255.06 95.159 255.033 95.0257C255.006 94.9189 254.986 94.8186 254.972 94.7252C254.959 94.6319 254.953 94.5318 254.953 94.4253L253.311 76.2474C252.832 77.1014 252.071 78.4697 251.029 80.3513C249.989 82.2331 248.88 84.2419 247.705 86.3773C246.906 87.8718 246.118 89.3334 245.344 90.7614C244.569 92.1894 243.889 93.4373 243.302 94.5052C243.195 94.6919 243.095 94.8788 243.001 95.0655C242.908 95.2525 242.808 95.4526 242.7 95.6661C242.675 95.7461 242.634 95.8331 242.581 95.9266C242.528 96.02 242.473 96.1197 242.421 96.2267C242.02 97.0543 241.654 97.8218 241.32 98.529C240.986 99.2361 240.778 99.67 240.698 99.8301C240.593 99.6166 240.385 99.243 240.078 98.7093C239.772 98.1751 239.459 97.6013 239.138 96.9876C239.111 96.9608 239.097 96.9407 239.097 96.9274C239.097 96.9141 239.097 96.9074 239.097 96.9074C238.991 96.6939 238.884 96.4937 238.776 96.3066C238.671 96.1197 238.563 95.933 238.458 95.7461C235.521 90.3012 233.105 86.017 231.21 82.8937C229.316 79.7708 228.18 77.8758 227.806 77.2081L226.686 92.5032C226.686 92.6367 226.672 92.7834 226.645 92.9435C226.62 93.1038 226.606 93.2905 226.606 93.504C226.579 93.7709 226.551 94.0645 226.526 94.385C226.498 94.7054 226.485 95.0257 226.485 95.3459C226.485 95.3993 226.485 95.4526 226.485 95.506C226.485 95.5594 226.485 95.5993 226.485 95.6261C226.485 96.0265 226.518 96.4138 226.586 96.7874C226.653 97.161 226.766 97.4813 226.927 97.7481C227.06 97.9616 227.286 98.1485 227.607 98.3087C227.928 98.469 228.274 98.6158 228.647 98.7493C228.7 98.7493 228.755 98.7626 228.807 98.7892C228.86 98.816 228.915 98.8293 228.968 98.8293C229.075 98.8827 229.189 98.9292 229.308 98.9693C229.427 99.0094 229.542 99.0563 229.648 99.1097L230.77 99.5099H220.318L221.001 99.1896C221.081 99.1896 221.153 99.1763 221.22 99.1495C221.286 99.1229 221.36 99.0962 221.441 99.0696C221.521 99.0162 221.601 98.9761 221.681 98.9495C221.761 98.9227 221.841 98.896 221.922 98.8694C222.375 98.6825 222.801 98.4889 223.202 98.2887C223.603 98.0885 223.882 97.8549 224.043 97.588C224.176 97.3211 224.283 96.8339 224.363 96.1266C224.444 95.4194 224.51 94.6585 224.563 93.8579C224.563 93.671 224.571 93.4907 224.584 93.3173C224.596 93.1437 224.604 92.9634 224.604 92.7765C224.711 91.8692 224.811 90.9149 224.903 89.9072C224.997 88.9062 225.071 87.8986 225.124 86.8845C225.284 84.7423 225.411 82.7006 225.505 80.7451C225.597 78.7964 225.685 77.2883 225.765 76.2139C225.818 75.5201 225.851 74.8794 225.865 74.2923C225.879 73.705 225.884 73.1177 225.884 72.5305C225.884 72.2836 225.884 72.03 225.884 71.7632C225.884 71.4961 225.884 71.2294 225.884 70.9622C225.884 70.7753 225.884 70.5954 225.884 70.4218C225.884 70.2484 225.884 70.0681 225.884 69.8814L228.207 69.8413C228.287 70.1082 228.387 70.4218 228.508 70.7821C228.628 71.1424 228.768 71.5229 228.929 71.9233C228.981 72.0834 229.034 72.2435 229.089 72.4037C229.142 72.5638 229.208 72.7239 229.288 72.884C229.316 72.9642 229.349 73.0441 229.388 73.1243C229.427 73.2047 229.462 73.2846 229.488 73.3648V73.3247Z" fill="white"/>
<defs>
<linearGradient id="paint0_linear" x1="-5.07269" y1="42.116" x2="82.2911" y2="121.201" gradientUnits="userSpaceOnUse">
<stop stop-color="#CFA550"/>
<stop offset="0.100775" stop-color="#DCBA56"/>
<stop offset="0.147287" stop-color="#FDE064"/>
<stop offset="0.217054" stop-color="#FFFA99"/>
<stop offset="0.255814" stop-color="#FDE064"/>
<stop offset="0.348837" stop-color="#DCBA56"/>
<stop offset="0.51938" stop-color="#CFA550"/>
<stop offset="0.689922" stop-color="#FDE064"/>
<stop offset="0.782946" stop-color="#FFFA99"/>
<stop offset="0.829457" stop-color="#FDE064"/>
<stop offset="0.899225" stop-color="#CFA550"/>
<stop offset="1" stop-color="#CFA550"/>
</linearGradient>
<linearGradient id="paint1_linear" x1="-2.31531" y1="-1.37263" x2="46.6268" y2="41.5241" gradientUnits="userSpaceOnUse">
<stop stop-color="#CFA550"/>
<stop offset="0.100775" stop-color="#DCBA56"/>
<stop offset="0.147287" stop-color="#FDE064"/>
<stop offset="0.217054" stop-color="#FFFA99"/>
<stop offset="0.255814" stop-color="#FDE064"/>
<stop offset="0.348837" stop-color="#DCBA56"/>
<stop offset="0.51938" stop-color="#CFA550"/>
<stop offset="0.689922" stop-color="#FDE064"/>
<stop offset="0.782946" stop-color="#FFFA99"/>
<stop offset="0.829457" stop-color="#FDE064"/>
<stop offset="0.899225" stop-color="#CFA550"/>
<stop offset="1" stop-color="#CFA550"/>
</linearGradient>
<linearGradient id="paint2_linear" x1="35.4614" y1="8.18601" x2="62.1575" y2="36.5447" gradientUnits="userSpaceOnUse">
<stop stop-color="#CFA550"/>
<stop offset="0.100775" stop-color="#DCBA56"/>
<stop offset="0.147287" stop-color="#FDE064"/>
<stop offset="0.217054" stop-color="#FFFA99"/>
<stop offset="0.255814" stop-color="#FDE064"/>
<stop offset="0.348837" stop-color="#DCBA56"/>
<stop offset="0.51938" stop-color="#CFA550"/>
<stop offset="0.689922" stop-color="#FDE064"/>
<stop offset="0.782946" stop-color="#FFFA99"/>
<stop offset="0.829457" stop-color="#FDE064"/>
<stop offset="0.899225" stop-color="#CFA550"/>
<stop offset="1" stop-color="#CFA550"/>
</linearGradient>
</defs>
</svg>
