<svg width="177" height="30" viewBox="0 0 177 30" fill="none" xmlns="http://www.w3.org/2000/svg">
<path d="M65.0938 11.9121H54.6923L51.5 1.875L48.3077 11.9121H37.9062L46.4142 18.0879L43.1008 28.125L51.5 21.9047L59.8992 28.125L56.5795 18.0879L65.0938 11.9121Z" fill="#FBBC05"/>
<path d="M28.0938 11.9121H17.6923L14.5 1.875L11.3077 11.9121H0.90625L9.41424 18.0879L6.10076 28.125L14.5 21.9047L22.8992 28.125L19.5795 18.0879L28.0938 11.9121Z" fill="#FBBC05"/>
<path d="M139.094 11.9121H128.692L125.5 1.875L122.308 11.9121H111.906L120.414 18.0879L117.101 28.125L125.5 21.9047L133.899 28.125L130.58 18.0879L139.094 11.9121Z" fill="#FBBC05"/>
<path d="M176.094 11.9121H165.692L162.5 1.875L159.308 11.9121H148.906L157.414 18.0879L154.101 28.125L162.5 21.9047L170.899 28.125L167.58 18.0879L176.094 11.9121Z" fill="#FBBC05"/>
<path d="M102.094 11.9121H91.6923L88.5 1.875L85.3077 11.9121H74.9062L83.4142 18.0879L80.1008 28.125L88.5 21.9047L96.8992 28.125L93.5795 18.0879L102.094 11.9121Z" fill="#FBBC05"/>
</svg>
