<svg width="283" height="61" viewBox="0 0 283 61" fill="none" xmlns="http://www.w3.org/2000/svg">
<g clip-path="url(#clip0)">
<path d="M281.41 40.7607C280.532 40.7607 279.819 41.4831 279.819 42.3726C279.819 43.2621 280.532 43.9845 281.41 43.9845C282.287 43.9845 283 43.2621 283 42.3726C283 41.4831 282.287 40.7607 281.41 40.7607ZM281.41 43.7289C280.67 43.7289 280.071 43.1188 280.071 42.3726C280.071 41.6228 280.673 41.0163 281.41 41.0163C282.15 41.0163 282.751 41.6263 282.751 42.3726C282.751 43.1189 282.149 43.7289 281.41 43.7289ZM281.927 42.0965C281.927 41.8034 281.722 41.6296 281.42 41.6296H280.912V43.0984H281.16V42.5668H281.433L281.695 43.0984H281.964L281.675 42.5124C281.83 42.4407 281.927 42.2975 281.927 42.0965ZM281.41 42.3385H281.164V41.8512H281.41C281.578 41.8512 281.679 41.9364 281.679 42.0932C281.678 42.2533 281.574 42.3385 281.41 42.3385ZM89.7329 24.4474V20.5488H83.834V43.7425H89.7329V29.8352C89.7329 27.3168 91.327 26.0797 93.8125 26.0797H97.0411V20.5489H94.2833C92.1241 20.5488 90.2475 21.6904 89.7329 24.4474ZM102.567 11.375C100.549 11.375 99.0018 12.9903 99.0018 15.035C99.0018 17.032 100.549 18.6473 102.567 18.6473C104.585 18.6473 106.132 17.032 106.132 15.035C106.132 12.9902 104.585 11.375 102.567 11.375ZM99.624 43.7425H105.51V20.5488H99.624V43.7425ZM133.545 32.1456C133.545 38.767 128.248 44.1345 121.713 44.1345C119.076 44.1345 116.685 43.2586 114.768 41.7796V50.5514H108.883V20.5488H114.768V22.5117C116.685 21.0327 119.076 20.1569 121.713 20.1569C128.248 20.1569 133.545 25.5243 133.545 32.1456ZM127.622 32.1456C127.622 28.5504 124.743 25.6333 121.195 25.6333C117.647 25.6333 114.768 28.5504 114.768 32.1456C114.768 35.7409 117.647 38.658 121.195 38.658C124.743 38.658 127.622 35.7444 127.622 32.1456ZM235.839 30.1112L232.405 29.157C230.145 28.5606 229.267 27.8586 229.267 26.6489C229.267 25.4697 230.505 24.645 232.274 24.645C233.959 24.645 235.28 25.7628 235.28 27.1941V27.3269H240.705V27.1941C240.705 22.9853 237.319 20.1568 232.274 20.1568C227.28 20.1568 223.651 22.9819 223.651 26.877C223.651 29.9066 225.632 32.1898 229.089 33.1372L232.378 34.0471C234.877 34.7491 235.805 35.5262 235.805 36.92C235.805 38.3888 234.463 39.377 232.465 39.377C230.384 39.377 228.981 38.0411 228.981 36.0578V35.9248H223.223V36.0578C223.223 40.8151 227.004 44.1411 232.418 44.1411C237.635 44.1411 241.422 40.8935 241.422 36.4224C241.422 34.2278 240.453 31.3585 235.839 30.1112ZM154.423 20.5488H160.309V43.7425H154.423V41.7795C152.506 43.2586 150.115 44.1344 147.478 44.1344C140.944 44.1344 135.647 38.767 135.647 32.1456C135.647 25.5241 140.944 20.1568 147.478 20.1568C150.115 20.1568 152.506 21.0326 154.423 22.5116V20.5488ZM154.423 32.1456C154.423 28.547 151.544 25.6333 147.996 25.6333C144.448 25.6333 141.569 28.5504 141.569 32.1456C141.569 35.7409 144.448 38.658 147.996 38.658C151.548 38.658 154.423 35.7444 154.423 32.1456ZM181.561 12.2951H187.446V43.7459H181.561V41.7829C179.644 43.262 177.252 44.1378 174.616 44.1378C168.081 44.1378 162.784 38.7704 162.784 32.149C162.784 25.5275 168.081 20.1602 174.616 20.1602C177.252 20.1602 179.644 21.0361 181.561 22.515V12.2951ZM181.561 32.1456C181.561 28.5504 178.682 25.6333 175.134 25.6333C171.586 25.6333 168.707 28.5504 168.707 32.1456C168.707 35.7409 171.582 38.658 175.134 38.658C178.682 38.658 181.561 35.7444 181.561 32.1456ZM214.772 43.7425H220.657V20.5488H214.772V43.7425ZM217.715 11.375C215.697 11.375 214.15 12.9903 214.15 15.035C214.15 17.032 215.697 18.6473 217.715 18.6473C219.732 18.6473 221.28 17.032 221.28 15.035C221.28 12.9902 219.732 11.375 217.715 11.375ZM266.86 32.1456C266.86 38.767 261.564 44.1345 255.029 44.1345C248.494 44.1345 243.197 38.7671 243.197 32.1456C243.197 25.5242 248.494 20.1569 255.029 20.1569C261.564 20.1569 266.86 25.5243 266.86 32.1456ZM261.456 32.1456C261.456 28.5504 258.577 25.6333 255.029 25.6333C251.481 25.6333 248.602 28.5504 248.602 32.1456C248.602 35.7409 251.477 38.658 255.029 38.658C258.577 38.658 261.456 35.7444 261.456 32.1456ZM86.7195 12.2951H64.1426V17.6147H72.5001V43.7425H78.3654V17.6147H86.7229V12.2951H86.7195ZM200.895 37.3903L195.659 20.5489H189.477L197.331 43.7425H204.413L212.313 20.5489H206.132L200.895 37.3903ZM275.484 24.4474V20.5488H269.585V43.7425H275.484V29.8352C275.484 27.3168 277.078 26.0797 279.563 26.0797H282.792V20.5489H280.034C277.875 20.5488 276.002 21.6904 275.484 24.4474Z" fill="black"/>
<path d="M30.1013 61C46.7252 61 60.2015 47.3447 60.2015 30.5C60.2015 13.6553 46.7252 0 30.1013 0C13.4773 0 0.000976562 13.6553 0.000976562 30.5C0.000976562 47.3447 13.4773 61 30.1013 61Z" fill="#34E0A1"/>
<path d="M48.6914 24.5497L52.3236 20.5455H44.2689C40.2365 17.7544 35.3666 16.1289 30.0999 16.1289C24.8398 16.1289 19.9835 17.7579 15.9577 20.5455H7.88281L11.515 24.5497C9.28865 26.608 7.89294 29.5728 7.89294 32.8648C7.89294 39.0773 12.8638 44.114 18.9948 44.114C21.9073 44.114 24.5608 42.9758 26.5417 41.1151L30.0999 45.0409L33.6582 41.1185C35.6391 42.9792 38.2892 44.114 41.2017 44.114C47.3327 44.114 52.3102 39.0773 52.3102 32.8648C52.3135 29.5694 50.9179 26.6046 48.6914 24.5497ZM18.9981 40.4778C14.8479 40.4778 11.4848 37.0701 11.4848 32.8648C11.4848 28.6595 14.848 25.2517 18.9981 25.2517C23.1482 25.2517 26.5113 28.6595 26.5113 32.8648C26.5113 37.0701 23.1482 40.4778 18.9981 40.4778ZM30.1032 32.6433C30.1032 27.6337 26.508 23.3331 21.7626 21.4963C24.3287 20.4091 27.1436 19.8059 30.0999 19.8059C33.0561 19.8059 35.8743 20.4091 38.4405 21.4963C33.6985 23.3365 30.1032 27.6338 30.1032 32.6433ZM41.2051 40.4778C37.0549 40.4778 33.6917 37.0701 33.6917 32.8648C33.6917 28.6595 37.0549 25.2517 41.2051 25.2517C45.3553 25.2517 48.7183 28.6595 48.7183 32.8648C48.7183 37.0701 45.3552 40.4778 41.2051 40.4778ZM41.2051 28.8708C39.0291 28.8708 37.2668 30.6565 37.2668 32.8614C37.2668 35.0662 39.0291 36.8519 41.2051 36.8519C43.381 36.8519 45.1433 35.0662 45.1433 32.8614C45.1432 30.6599 43.381 28.8708 41.2051 28.8708ZM22.9363 32.8648C22.9363 35.0696 21.174 36.8553 18.9981 36.8553C16.8222 36.8553 15.0598 35.0696 15.0598 32.8648C15.0598 30.6599 16.8222 28.8742 18.9981 28.8742C21.174 28.8708 22.9363 30.6599 22.9363 32.8648Z" fill="black"/>
</g>
<defs>
<clipPath id="clip0">
<rect width="283" height="61" fill="white"/>
</clipPath>
</defs>
</svg>
