<svg width="50" height="50" viewBox="0 0 50 50" fill="none" xmlns="http://www.w3.org/2000/svg">
<path d="M9.27727 0C6.81973 0.00957648 4.46558 0.990076 2.72783 2.72783C0.990076 4.46558 0.00957648 6.81973 0 9.27727V40.7227C0.00957648 43.1803 0.990076 45.5344 2.72783 47.2722C4.46558 49.0099 6.81973 49.9904 9.27727 50H40.7227C43.1803 49.9904 45.5344 49.0099 47.2722 47.2722C49.0099 45.5344 49.9904 43.1803 50 40.7227V9.27727C49.9904 6.81973 49.0099 4.46558 47.2722 2.72783C45.5344 0.990076 43.1803 0.00957648 40.7227 0H9.27727ZM9.27727 4.54545H40.7227C43.3591 4.54545 45.4545 6.64091 45.4545 9.27727V40.7227C45.4545 43.3591 43.3591 45.4545 40.7227 45.4545H9.27727C8.65479 45.4585 8.03771 45.3388 7.46185 45.1023C6.88599 44.8659 6.3628 44.5175 5.92263 44.0774C5.48245 43.6372 5.13406 43.114 4.89765 42.5381C4.66124 41.9623 4.54153 41.3452 4.54545 40.7227V9.27727C4.54545 6.64091 6.64091 4.54545 9.27727 4.54545ZM24.3614 16.4318C22.6909 16.4159 21.2705 16.4318 20.4727 16.8227C19.9386 17.0818 19.5318 17.6659 19.7795 17.6932C20.0909 17.7386 20.7909 17.8886 21.1659 18.3955C21.6432 19.0432 21.6273 20.5091 21.6273 20.5091C21.6273 20.5091 21.8932 24.5386 20.9773 25.0455C20.3477 25.3909 19.4864 24.6886 17.6227 21.4841C16.6727 19.8341 15.9545 18.0136 15.9545 18.0136C15.9545 18.0136 15.8182 17.675 15.5727 17.4977C15.2705 17.2773 14.8523 17.2045 14.8523 17.2045L10.4045 17.2318C10.4045 17.2318 9.73864 17.2591 9.5 17.5432C9.27727 17.8091 9.48182 18.3318 9.48182 18.3318C9.48182 18.3318 12.9614 26.4727 16.9023 30.575C20.5159 34.3409 24.6182 34.0909 24.6182 34.0909H26.4818C26.4818 34.0909 27.0409 34.0295 27.325 33.7273C27.5932 33.4432 27.5841 32.9091 27.5841 32.9091C27.5841 32.9091 27.5477 30.4159 28.7023 30.0432C29.8477 29.6864 31.3023 32.4568 32.8568 33.5227C34.0386 34.3295 34.9341 34.1523 34.9341 34.1523L39.0909 34.0909C39.0909 34.0909 41.2568 33.9568 40.2273 32.2432C40.1477 32.1114 39.6318 30.9841 37.1477 28.675C34.5364 26.2614 34.8841 26.6523 38.025 22.4705C39.9341 19.9227 40.6977 18.3682 40.4568 17.6932C40.2295 17.0636 38.825 17.2318 38.825 17.2318L34.1455 17.2591C34.1455 17.2591 33.8 17.2136 33.5432 17.3659C33.3666 17.4971 33.2259 17.6706 33.1341 17.8705C33.1341 17.8705 32.3886 19.8409 31.4023 21.5205C29.325 25.0523 28.4818 25.2477 28.1455 25.0273C27.3545 24.5114 27.55 22.9659 27.55 21.875C27.55 18.4386 28.0727 17.0182 26.5386 16.6477C26.0318 16.5227 25.6591 16.4432 24.3636 16.4318H24.3614Z">
</svg>
