<svg width="255" height="140" viewBox="0 0 255 140" fill="none" xmlns="http://www.w3.org/2000/svg">
<path d="M29.3559 110.815V81.2985L51.1599 18.7695H41.9052L24.8766 68.7117L10.1061 27.4183H0L20.0642 80.9672V110.815H29.3559Z" fill="#FF0000"/>
<path d="M69.4854 99.2949C67.8195 101.834 64.6729 103.932 61.4893 103.932C56.7879 103.932 54.5668 99.5158 54.5668 92.7439C54.5668 85.1624 57.0471 80.1572 68.4118 80.1572H69.4854V99.2949ZM78.518 97.5284V69.889C78.518 55.6461 72.743 51.2297 62.3037 51.2297C56.3437 51.2297 50.939 53.6588 48.2366 55.867L49.9765 63.9269C53.0491 61.2403 57.0471 58.8112 61.7114 58.8112C66.8941 58.8112 69.4854 62.0499 69.4854 69.7786V73.275H68.1897C51.6423 73.275 45.1641 81.1877 45.1641 93.8112C45.1641 105.367 50.939 111.661 59.3793 111.661C64.5619 111.661 67.8195 109.416 70.4108 106.177H71.0032C71.1142 107.686 71.4844 109.563 71.8176 110.814H79.5545C79.1103 108.017 78.518 103.122 78.518 97.5284ZM99.0634 65.215C101.173 62.3076 104.431 59.4001 108.318 59.4001C111.835 59.4001 113.834 60.909 113.834 65.3254V110.814H123.089V64.5158C123.089 55.5357 118.979 51.2297 111.243 51.2297C105.727 51.2297 101.284 54.8365 99.6186 57.0447H99.0634V51.929H89.8827V110.814H99.0634V65.215ZM150.075 111.661C154.888 111.661 158.182 109.416 160.774 106.177H161.366L162.069 110.814H168.881V27.418H159.7V53.4379C157.96 52.1498 155.036 51.2297 152.222 51.2297C140.339 51.2297 132.121 61.8291 132.121 83.6535C132.121 101.834 138.488 111.661 150.075 111.661ZM159.7 99.4053C158.182 101.724 155.739 103.932 151.149 103.932C144.448 103.932 141.894 95.541 141.894 81.7765C141.894 69.7786 145.411 58.7008 152.778 58.7008C155.85 58.7008 157.849 59.6209 159.7 61.4979V99.4053ZM211.934 106.876L209.823 99.8838C207.491 101.503 203.715 103.822 198.57 103.822C191.277 103.822 187.538 96.8291 187.538 83.5431H212.156V78.501C212.156 58.5536 205.714 51.2297 195.867 51.2297C183.318 51.2297 178.024 64.9942 178.024 83.8743C178.024 101.982 185.539 111.661 197.718 111.661C203.604 111.661 208.195 109.784 211.934 106.876ZM195.867 58.7008C201.124 58.7008 202.79 66.0247 202.79 76.072H187.649C188.242 65.5831 190.241 58.7008 195.867 58.7008ZM243.029 52.0394L234.922 73.3854L227.296 52.0394H217.82L228.962 80.378L216.635 110.814H225.668L234.589 86.561L243.733 110.814H253.246L240.919 79.5683L251.951 52.0394H243.029Z" fill="black"/>
</svg>
