<svg width="50" height="50" viewBox="0 0 50 50" fill="none" xmlns="http://www.w3.org/2000/svg">
<path d="M32.3075 16.3145H17.6925C14.825 16.3145 12.5 18.6145 12.5 21.4495V28.6744C12.5 31.5119 14.825 33.8094 17.6925 33.8094H32.3075C35.175 33.8094 37.5 31.5094 37.5 28.6744V21.4495C37.5 18.612 35.175 16.3145 32.3075 16.3145ZM28.7975 25.4145L21.96 28.6395C21.9182 28.6592 21.872 28.6681 21.8259 28.6653C21.7797 28.6625 21.7349 28.6481 21.6958 28.6234C21.6567 28.5988 21.6244 28.5646 21.602 28.5241C21.5796 28.4837 21.5677 28.4382 21.5675 28.392V21.742C21.5679 21.6951 21.5803 21.6491 21.6035 21.6084C21.6267 21.5677 21.6599 21.5335 21.6999 21.5092C21.74 21.4849 21.7856 21.4713 21.8324 21.4696C21.8793 21.4679 21.9258 21.4782 21.9675 21.4995L28.8025 24.9245C28.8474 24.9479 28.885 24.9834 28.9111 25.0269C28.9371 25.0704 28.9506 25.1203 28.9501 25.171C28.9496 25.2217 28.9351 25.2713 28.9081 25.3142C28.8812 25.3572 28.8429 25.3919 28.7975 25.4145Z" fill="white"/>
<path d="M10 5C8.67392 5 7.40215 5.52678 6.46447 6.46447C5.52678 7.40215 5 8.67392 5 10V40C5 41.3261 5.52678 42.5979 6.46447 43.5355C7.40215 44.4732 8.67392 45 10 45H40C41.3261 45 42.5979 44.4732 43.5355 43.5355C44.4732 42.5979 45 41.3261 45 40V10C45 8.67392 44.4732 7.40215 43.5355 6.46447C42.5979 5.52678 41.3261 5 40 5H10ZM10 0H40C42.6522 0 45.1957 1.05357 47.0711 2.92893C48.9464 4.8043 50 7.34784 50 10V40C50 42.6522 48.9464 45.1957 47.0711 47.0711C45.1957 48.9464 42.6522 50 40 50H10C7.34784 50 4.8043 48.9464 2.92893 47.0711C1.05357 45.1957 0 42.6522 0 40V10C0 7.34784 1.05357 4.8043 2.92893 2.92893C4.8043 1.05357 7.34784 0 10 0Z" fill="white"/>
</svg>
