<svg width="122" height="122" fill="none" xmlns="http://www.w3.org/2000/svg"><g clip-path="url(#clip0)"><path d="M66.024 17.49c-2.67 0-4.365 2.977-4.766 2.977-.35 0-1.976-2.978-4.767-2.978-2.714 0-4.93 2.239-5.075 4.95-.082 1.53.411 2.696 1.107 3.751 1.39 2.11 7.466 7.186 8.744 7.186 1.305 0 7.327-5.058 8.726-7.186.697-1.06 1.19-2.22 1.107-3.752-.146-2.71-2.362-4.949-5.076-4.949zM50.466 2.926c-1.925 0-3.146 2.146-3.435 2.146-.253 0-1.424-2.146-3.435-2.146-1.956 0-3.553 1.613-3.658 3.567-.059 1.103.297 1.943.798 2.703 1.001 1.52 5.38 5.179 6.301 5.179.941 0 5.28-3.646 6.29-5.179.501-.764.856-1.6.797-2.703-.105-1.954-1.702-3.567-3.658-3.567zm27.543 0c-1.925 0-3.146 2.146-3.435 2.146-.253 0-1.424-2.146-3.435-2.146-1.957 0-3.554 1.613-3.658 3.567-.06 1.103.296 1.943.797 2.703 1.002 1.52 5.38 5.179 6.301 5.179.941 0 5.28-3.646 6.29-5.179.502-.764.857-1.6.797-2.703-.103-1.954-1.7-3.567-3.657-3.567z" fill="#C4C4C4"/><path d="M57.05 42.253c-.437-2.855-1.012-4.602-2.662-5.08L25.58 28.83a2.585 2.585 0 00-.72-.103c-1.38 0-2.647 1.137-4.244 2.974-1.243 1.43-2.793 3.449-4.481 5.837-3.366 4.763-6.415 9.74-7.415 12.104-2.249 5.312-1.724 11.584 1.477 17.662 2.37 4.5 7.167 9.22 12.34 12.178-.502 2.328-1.79 7.314-3.457 12.995-2.9 9.89-4.4 13.281-4.772 13.828-.187.106-.896.328-2.434.328-1.19 0-2.587-.138-4.038-.397l-.11-.02a20.401 20.401 0 01-1.03-.223c-.942-.218-2.01-.465-3.037-.465-2.374 0-3.27 1.377-3.605 2.531-.091.314-.11.807.314 1.371 2.415 3.214 23.848 9.64 30.384 9.64.682 0 2.496 0 2.87-1.289.978-3.378-2.458-4.578-4.51-5.296-.364-.127-.706-.246-.992-.363l-.1-.041c-3.728-1.519-5.315-3.002-5.51-3.4-.024-.668.503-4.338 3.263-14.29 1.535-5.537 3.05-10.44 3.855-12.76 11.51.695 25.977-6.257 27.89-17.856.417-2.532.5-8.37.2-14.195-.151-2.925-.382-5.46-.668-7.327zm-3.562 11.18c-.084.772-.487.82-.728.734-2.135-.771-4.356-1.148-6.75-1.148-3.535 0-6.877.816-10.11 1.604-2.928.715-5.694 1.39-8.34 1.39-3.337 0-7.73-.932-12.115-8.198l-.15-.248c-.12-.227.018-.747.307-1.221 3.12-5.131 7.342-10.795 9.31-12.79.193-.197.47-.163.621-.119 6.305 1.84 23.933 6.955 26.599 7.725.223.065.313.32.313.32.64 1.986 1.132 5.965 1.043 11.952zm68.46 54.628c-.335-1.155-1.232-2.532-3.605-2.532-1.028 0-2.096.248-3.038.466-.375.086-.728.168-1.03.223l-.109.019c-1.452.259-2.848.397-4.038.397-1.556 0-2.263-.226-2.427-.32-.381-.557-1.881-3.949-4.779-13.835-1.666-5.681-2.955-10.668-3.457-12.995 5.173-2.958 9.97-7.678 12.34-12.179 3.202-6.077 3.726-12.35 1.477-17.661-1-2.365-4.05-7.342-7.415-12.105-1.689-2.388-3.238-4.407-4.481-5.837-1.597-1.837-2.864-2.975-4.245-2.975-.24 0-.482.035-.72.104l-28.808 8.344c-1.649.478-2.225 2.224-2.662 5.08-.286 1.867-.517 4.401-.668 7.328-.3 5.825-.216 11.662.201 14.194 1.913 11.6 16.383 18.555 27.89 17.857.804 2.318 2.32 7.223 3.855 12.76 2.764 9.967 3.288 13.633 3.264 14.279-.21.423-1.8 1.899-5.509 3.411l-.103.041c-.285.116-.627.237-.99.363-2.053.718-5.488 1.919-4.51 5.296.373 1.289 2.187 1.289 2.87 1.289 6.535 0 27.968-6.426 30.383-9.64.424-.565.404-1.058.314-1.372zm-15.192-61.14c.121.218.088.42.042.496l-.242.398c-4.386 7.266-8.778 8.197-12.115 8.198-2.647 0-5.413-.675-8.342-1.39-3.232-.788-6.574-1.603-10.109-1.603-2.547 0-4.899.426-7.16 1.3-.103.04-.312.02-.312-.28-.085-5.764.44-10.45 1.049-12.595.023-.084.018-.193.295-.302L96.5 33.428c.396-.127.48.02.552.09 1.959 1.934 6.564 8.24 9.704 13.404z" fill="#DABD74"/></g><defs><clipPath id="clip0"><path fill="#fff" d="M0 0h122v122H0z"/></clipPath></defs></svg>