<svg width="122" height="122" fill="none" xmlns="http://www.w3.org/2000/svg"><path d="M110.297 84.391c-2.052 0-4.135.129-6.19.382a49.534 49.534 0 00-15.729 4.645c6.522 2.734 13.429 4.062 20.914 4.062v7.149c-8.79 0-16.738-1.595-24.298-4.875-8.56-3.714-16.431-9.484-24.062-17.64-11.208-11.98-25.384-19.329-40.997-21.255A66.323 66.323 0 000 57.406v16.337a56.504 56.504 0 0111.703-1.222 57.9 57.9 0 017.065.436c15.055 1.856 28.486 9.466 37.818 21.424l-5.635 4.398C42.793 88.325 31.053 81.674 17.893 80.05a50.787 50.787 0 00-6.19-.382A49.33 49.33 0 000 81.073v26.192h122v-21.47a49.307 49.307 0 00-11.703-1.405z" fill="#DABD74"/><path d="M102.065 67.547A66.166 66.166 0 0072.129 79.04c2.81 2.464 5.67 4.599 8.598 6.417.457-.277.919-.549 1.382-.812 6.5-3.694 13.606-6.038 21.123-6.965a57.954 57.954 0 017.065-.436c3.946 0 7.868.412 11.703 1.223V68.093a66.292 66.292 0 00-19.935-.546z" fill="#DABD74"/><path d="M45.978 57.713c7.455 3.957 14.243 9.178 20.174 15.518.245.261.49.515.735.77a73.132 73.132 0 0125.454-11.905c-1.734-15.76-15.126-28.06-31.34-28.06-12.606 0-23.506 7.435-28.548 18.15a72.82 72.82 0 0113.525 5.527zm11.448-42.979h7.148v10.167h-7.148V14.734zM32.488 23.33l6.19-3.574 5.084 8.804-6.19 3.575-5.084-8.805zm-17.3 19.916l3.574-6.19 8.804 5.083-3.574 6.19-8.805-5.083zm63.05-14.682l5.083-8.804 6.19 3.574-5.083 8.805-6.19-3.575zM94.43 42.139l8.804-5.084 3.574 6.19-8.804 5.084-3.574-6.19z" fill="#C4C4C4"/></svg>