<svg width="122" height="122" fill="none" xmlns="http://www.w3.org/2000/svg"><path d="M61.016 36.224c1.549 0 4.535-1.827 8.877-5.431 2.998-2.49 6.746-5.977 8.272-8.298 1.157-1.759 2.46-4.232 2.27-7.777C80.122 8.826 75.367 4.21 69.614 4.21c-4.103 0-6.979 3.027-8.572 4.763-1.512-1.708-4.413-4.763-8.653-4.763-5.754 0-10.508 4.616-10.824 10.508-.192 3.591 1.205 6.16 2.272 7.779 2.358 3.579 13.75 13.727 17.18 13.727z" fill="#C4C4C4"/><path d="M83.325 40.438A38.463 38.463 0 0061 47.55a38.461 38.461 0 00-22.325-7.111C17.35 40.438 0 57.788 0 79.112c0 21.326 17.35 38.675 38.675 38.675A38.46 38.46 0 0061 110.677a38.46 38.46 0 0022.325 7.111c21.325 0 38.675-17.349 38.675-38.675 0-21.325-17.35-38.675-38.675-38.675zM61 97.21a28.616 28.616 0 01-6.428-18.097A28.616 28.616 0 0161 61.016a28.617 28.617 0 016.428 18.097A28.615 28.615 0 0161 97.21zM9.922 79.113c0-15.854 12.899-28.753 28.753-28.753a28.578 28.578 0 0114.843 4.136C47.981 61.19 44.65 69.77 44.65 79.113c0 9.344 3.331 17.924 8.868 24.617a28.58 28.58 0 01-14.843 4.136c-15.854 0-28.753-12.898-28.753-28.753zm73.403 28.753a28.58 28.58 0 01-14.843-4.136c5.537-6.692 8.868-15.273 8.868-24.617 0-9.344-3.331-17.924-8.868-24.616a28.58 28.58 0 0114.843-4.136c15.855 0 28.753 12.898 28.753 28.753 0 15.854-12.899 28.752-28.753 28.752z" fill="#DABD74"/></svg>