<svg width="122" height="122" fill="none" xmlns="http://www.w3.org/2000/svg"><g clip-path="url(#clip0)"><path d="M7.743 15.283l-7.055 1.25 8.385 47.372L0 106.716h7.322l5.264-24.837H24.57l1.244-7.165h-11.71l1.52-7.165h11.435l1.244-7.164H15.724L7.743 15.283zm105.183 48.622l8.385-47.373-7.055-1.249-7.981 45.102h-10.44l1.248 7.164h9.292l1.519 7.165h-9.565l1.247 7.165h9.837l5.264 24.837h7.322l-9.073-42.811z" fill="#DABD74"/><path d="M47.007 33.2l4.497 4.497h21.499l4.499-4.497c3.95-3.953 3.948-10.358-.002-14.308-4.209-4.345-11.734-3.792-15.247 1.137-3.324-4.478-9.65-5.412-14.131-2.088-4.937 3.6-5.464 10.977-1.115 15.259z" fill="#C4C4C4"/><path d="M87.032 51.568l-1.165-6.706H38.274l-1.165 6.706L62.07 70.746l24.961-19.178z" fill="#DABD74"/><path d="M88.42 59.537L62.07 79.78 35.725 59.54l-6.499 37.387a8.345 8.345 0 001.84 6.811 8.339 8.339 0 006.397 2.978h49.224a8.345 8.345 0 006.398-2.978 8.351 8.351 0 001.839-6.813L88.42 59.537z" fill="#DABD74"/></g><defs><clipPath id="clip0"><path fill="#fff" d="M0 0h122v122H0z"/></clipPath></defs></svg>