<svg width="67" height="62" fill="none" xmlns="http://www.w3.org/2000/svg"><path d="M43.569 42.478h-1.593v-21.73c0-2.078-1.891-3.768-4.215-3.768h-2.194v-1.274c2.49-.769 4.283-2.883 4.283-5.367 0-1.392-.569-3.73-1.385-5.684C37.16 1.523 35.535 0 33.5 0c-2.036 0-3.66 1.523-4.966 4.655-.816 1.955-1.385 4.292-1.385 5.684 0 2.484 1.793 4.598 4.283 5.367v1.274h-2.194c-2.324 0-4.215 1.69-4.215 3.768v21.73h-1.592c-1.142 0-2.068.827-2.068 1.848V59.69c0 1.021.926 1.848 2.068 1.848h20.138c1.141 0 2.067-.827 2.067-1.848V44.326c0-1.021-.926-1.848-2.067-1.848zM33.499 3.97c1.119 1.398 2.217 4.874 2.217 6.368 0 1.093-.994 1.981-2.216 1.981-1.223 0-2.217-.888-2.217-1.981 0-1.403 1.038-4.894 2.217-6.368zm-4.34 16.777c0-.04.035-.071.08-.071h8.522c.044 0 .08.032.08.072v21.729h-8.683v-21.73zM41.5 57.843H25.498v-11.67H41.5v11.67z" fill="#fff"/><path d="M38.356 48.803c-.863-.669-2.17-.585-2.916.187l-1.94 2.003-1.939-2.003c-.747-.772-2.053-.856-2.916-.188-.863.669-.957 1.836-.21 2.607l3.502 3.617c.822.85 2.3.854 3.126 0l3.503-3.617c.747-.771.653-1.938-.21-2.606zM18.259 19.526H2.067C.925 19.526 0 20.354 0 21.374v15.152c0 4.376 3.48 8.04 8.096 8.896v12.42h-5.49c-1.142 0-2.067.828-2.067 1.849 0 1.02.925 1.848 2.067 1.848H17.72c1.142 0 2.068-.828 2.068-1.848s-.926-1.848-2.068-1.848h-5.49V45.422c4.616-.856 8.096-4.52 8.096-8.896V21.374c0-1.02-.925-1.848-2.067-1.848zm-2.067 3.696V26.9H4.135v-3.677h12.057zm0 13.304c0 2.971-2.705 5.389-6.029 5.389s-6.028-2.418-6.028-5.39v-5.93H16.19v5.93zM64.93 19.527H48.74c-1.143 0-2.068.828-2.068 1.848v15.152c0 4.377 3.48 8.04 8.096 8.895v12.422h-5.49c-1.141 0-2.067.827-2.067 1.848 0 1.02.926 1.848 2.068 1.848H64.39c1.142 0 2.067-.828 2.067-1.848s-.925-1.848-2.067-1.848h-5.489V45.422c4.616-.856 8.096-4.519 8.096-8.895V21.375c0-1.02-.925-1.848-2.067-1.848zm-2.067 3.696V26.9H50.806v-3.677h12.057zm0 13.304c0 2.971-2.704 5.389-6.028 5.389-3.324 0-6.029-2.418-6.029-5.39v-5.93h12.057v5.93z" fill="#DABD74"/></svg>