<svg width="67" height="68" fill="none" xmlns="http://www.w3.org/2000/svg"><g clip-path="url(#clip0)"><path d="M33.501 26.103c-3.024-5.476-7.777-9.066-13.907-9.066-9.211 0-15.871 7.66-15.871 17.06 0 11.34 11.287 19.859 21.259 28.228 1.564 1.313 3.182 2.67 4.86 4.099 2.344 1.993 5.86 1.982 8.18-.027C55.36 51.39 63.28 44.624 63.28 34.097c0-9.394-6.655-17.06-15.87-17.06-6.133 0-10.885 3.592-13.909 9.066zm0 6.35a3.93 3.93 0 013.927 3.926 3.93 3.93 0 01-3.927 3.927 3.93 3.93 0 01-3.926-3.927 3.93 3.93 0 013.926-3.926zm1.952 30.976a2.37 2.37 0 01-3.066.005c-1.689-1.437-6.597-5.556-7.422-6.252a5.81 5.81 0 001.306-.98 5.894 5.894 0 001.168-6.638 13.678 13.678 0 016.062-1.406c2.215 0 4.355.523 6.288 1.52-1.05 2.2-.691 4.89 1.131 6.712.43.43.91.776 1.423 1.046a1212.206 1212.206 0 01-6.89 5.993zm11.956-42.465c6.81 0 11.945 5.646 11.945 13.134 0 6.436-3.884 11.44-12.853 19.623-.262.081-1.615 1.082-2.804-.107-.795-.794-.74-2.108.092-2.864 7.886-7.167 11.639-11.498 11.639-16.727H51.5c0 3.15-2.237 6.315-9.061 12.636a17.54 17.54 0 00-8.939-2.427c-3.09 0-6.077.795-8.73 2.307-5.755-5.107-9.27-9.04-9.27-12.516h-3.926c0 5.22 4.326 10.008 11.8 16.515.864.753.922 2.085.12 2.887-1.227 1.227-2.843.077-2.83.077C12.63 46.468 7.65 40.889 7.65 34.098c0-7.488 5.135-13.134 11.945-13.134 6.178 0 9.508 4.88 11.033 8.11-2.912 1.15-4.978 3.99-4.978 7.305 0 4.33 3.523 7.853 7.852 7.853 4.33 0 7.853-3.523 7.853-7.853 0-3.315-2.067-6.155-4.978-7.305 1.525-3.23 4.855-8.11 11.033-8.11z" fill="#DABD74"/><path d="M15.833.912c-2.1 0-4.08.848-5.573 2.387a8.002 8.002 0 00-2.28 5.597c0 4.33 3.523 7.852 7.853 7.852s7.853-3.523 7.853-7.852c0-2.095-.81-4.082-2.28-5.597-1.492-1.54-3.472-2.387-5.573-2.387zm0 11.91a3.93 3.93 0 01-3.926-3.926c0-2.2 1.798-4.058 3.926-4.058 2.129 0 3.926 1.858 3.926 4.058a3.93 3.93 0 01-3.926 3.926zm43.19-3.926c0-2.095-.81-4.082-2.28-5.597C55.25 1.759 53.271.912 51.17.912c-2.101 0-4.08.848-5.573 2.387a8.002 8.002 0 00-2.28 5.597c0 4.33 3.523 7.852 7.853 7.852s7.853-3.523 7.853-7.852zm-11.78 0c0-2.2 1.799-4.058 3.927-4.058s3.926 1.858 3.926 4.058a3.93 3.93 0 01-3.926 3.926 3.93 3.93 0 01-3.926-3.926z" fill="#fff"/></g><defs><clipPath id="clip0"><path fill="#fff" transform="translate(0 .912)" d="M0 0h67v67H0z"/></clipPath></defs></svg>