<svg width="67" height="68" fill="none" xmlns="http://www.w3.org/2000/svg"><g clip-path="url(#clip0)"><path d="M65.03 55.58h-.14V28.116c0-5.718-4.652-10.37-10.37-10.37H39.79C51.916 6.2 40.184-3.415 33.5 2.934c-6.682-6.35-18.41 3.27-6.286 14.812h-14.73c-5.718 0-10.37 4.652-10.37 10.37V55.58h-.14c-1.084 0-1.962.88-1.962 1.965 0 5.716 4.652 10.367 10.37 10.367h46.24c5.718 0 10.37-4.652 10.37-10.37a1.963 1.963 0 00-1.962-1.962zM25.859 7.698a2.844 2.844 0 012.84-2.842c2.16 0 2.82 2.077 2.902 2.368.207.887.99 1.515 1.901 1.515h.003a1.951 1.951 0 001.9-1.52c.08-.291.736-2.363 2.9-2.363a2.844 2.844 0 012.84 2.842c0 3.9-4.975 8.54-7.643 9.943-2.547-1.34-7.643-5.961-7.643-9.943zM6.039 28.116a6.452 6.452 0 016.444-6.445h42.038a6.452 6.452 0 016.445 6.445V40.99c-.115 2.976-4.371 2.97-4.483 0v-8.67c-.324-8.184-12.014-8.171-12.332 0v4.204c-.114 2.974-4.37 2.971-4.483 0V32.32c-.347-8.221-12.02-8.136-12.332 0a2.244 2.244 0 01-2.241 2.241 2.244 2.244 0 01-2.242-2.241c-.338-8.18-11.995-8.178-12.332 0v12.61c-.114 2.975-4.37 2.971-4.483 0V28.116zm0 22.554c3.89 1.596 8.467-1.403 8.407-5.739V32.32a2.244 2.244 0 012.241-2.241 2.244 2.244 0 012.241 2.24 6.174 6.174 0 006.166 6.167c3.4 0 6.166-2.766 6.166-6.166a2.244 2.244 0 012.242-2.241c1.221 0 2.241.983 2.241 2.24v4.205c.323 8.18 12.013 8.175 12.332 0V32.32c.113-2.972 4.37-2.974 4.483 0v8.67c-.06 4.336 4.518 7.335 8.408 5.74v8.85H6.038v-4.91zm50.584 13.317H10.382a6.456 6.456 0 01-6.14-4.482h58.52a6.457 6.457 0 01-6.14 4.482z" fill="#DABD74"/><mask id="mask0" maskUnits="userSpaceOnUse" x="0" y="0" width="67" height="68"><path d="M65.029 55.58h-.14V28.116c0-5.718-4.651-10.37-10.37-10.37H39.79c12.126-11.547.394-21.161-6.29-14.812-6.682-6.35-18.41 3.27-6.286 14.812h-14.73c-5.718 0-10.37 4.652-10.37 10.37V55.58h-.14c-1.084 0-1.962.88-1.962 1.965 0 5.716 4.652 10.367 10.37 10.367h46.24c5.718 0 10.37-4.652 10.37-10.37a1.962 1.962 0 00-1.962-1.962zM25.858 7.698a2.844 2.844 0 012.84-2.842c2.16 0 2.82 2.077 2.902 2.368.207.887.99 1.515 1.901 1.515h.003a1.951 1.951 0 001.9-1.52c.08-.291.736-2.363 2.9-2.363a2.844 2.844 0 012.84 2.842c0 3.9-4.975 8.54-7.643 9.943-2.547-1.34-7.643-5.961-7.643-9.943zM6.038 28.116a6.452 6.452 0 016.444-6.445H54.52a6.452 6.452 0 016.445 6.445V40.99c-.115 2.976-4.371 2.97-4.483 0v-8.67c-.324-8.184-12.014-8.171-12.332 0v4.204c-.114 2.974-4.37 2.971-4.483 0V32.32c-.347-8.221-12.02-8.136-12.332 0a2.244 2.244 0 01-2.242 2.241 2.244 2.244 0 01-2.24-2.241c-.339-8.18-11.996-8.178-12.333 0v12.61c-.114 2.975-4.37 2.971-4.483 0V28.116zm0 22.554c3.89 1.596 8.467-1.403 8.407-5.739V32.32a2.244 2.244 0 012.241-2.241 2.244 2.244 0 012.241 2.24 6.174 6.174 0 006.166 6.167c3.4 0 6.166-2.766 6.166-6.166a2.244 2.244 0 012.242-2.241c1.221 0 2.241.983 2.241 2.24v4.205c.323 8.18 12.013 8.175 12.332 0V32.32c.113-2.972 4.37-2.974 4.483 0v8.67c-.06 4.336 4.518 7.335 8.408 5.74v8.85H6.037v-4.91zm50.584 13.317H10.38a6.456 6.456 0 01-6.14-4.482h58.52a6.457 6.457 0 01-6.14 4.482z" fill="#000"/></mask><g mask="url(#mask0)"><rect x="6" y="25.912" width="55" height="28" rx="2" fill="#fff"/></g></g><defs><clipPath id="clip0"><path fill="#fff" transform="translate(0 .912)" d="M0 0h67v67H0z"/></clipPath></defs></svg>