<svg width="67" height="68" fill="none" xmlns="http://www.w3.org/2000/svg"><g clip-path="url(#clip0)"><path d="M19.662 9.879L6.7 56.176a5.873 5.873 0 00-4.975 1.668A5.867 5.867 0 000 62.016c0 1.577.613 3.058 1.725 4.172a5.861 5.861 0 004.161 1.725 5.861 5.861 0 004.162-1.725 5.866 5.866 0 001.724-4.172 5.99 5.99 0 00-.055-.814l46.207-12.987L19.662 9.88zM7.274 63.405a1.963 1.963 0 11-2.776-2.775 1.963 1.963 0 012.776 2.775zM37.42 49.89l-27.01 7.592 7.528-26.888h3.107v8.203h8.188v8.204h8.187v2.89zm-4.263-6.824v-8.204h-8.188V26.66h-5.93l2.59-9.248 28.774 28.83-9.059 2.547v-5.722h-8.187z" fill="#DABD74"/><path d="M36.339.912l-3.798.992c.066.261 1.549 6.456-3.654 11.372l2.69 2.864C38.518 9.584 36.432 1.263 36.34.912zm6.809 5.18h3.925v3.935h-3.925V6.092zm16.317 12.314h3.924v3.935h-3.924v-3.935zm-1.962 18.539h3.924v3.935h-3.924v-3.935zm-4.676-8.388c-3.35 1.419-5.26 3.382-5.339 3.465l2.827 2.73c.058-.06 5.926-6.02 15.418-2.77L67 28.256c-6.155-2.106-11.105-1-14.173.3zm-11.505-3.169c.18-.056 4.468-1.423 9.255-4.988 6.367-4.742 10.617-11.167 12.292-18.58L59.04.952c-1.475 6.53-5.073 11.983-10.694 16.207-4.266 3.206-8.16 4.463-8.199 4.476l.58 1.845.594 1.91z" fill="#fff"/></g><defs><clipPath id="clip0"><path fill="#fff" transform="translate(0 .912)" d="M0 0h67v67H0z"/></clipPath></defs></svg>