<svg width="79" height="80" fill="none" xmlns="http://www.w3.org/2000/svg"><g clip-path="url(#clip0)"><path d="M47.729 50.945c-1.646 0-3.292-.658-4.28-1.646l-3.29-3.291c-.66-.659-.66-1.646 0-2.305.657-.658 1.645-.658 2.303 0l3.292 3.292c.988.988 2.963.988 4.28 0 1.316-1.317 1.316-2.962 0-4.28l-9.876-9.874c-.658-.658-.658-1.646 0-2.304.658-.659 1.646-.659 2.304 0l9.875 9.875c2.304 2.304 2.304 6.254 0 8.887-1.316.988-2.962 1.646-4.608 1.646zM11.52 28.892c-.66 0-1.317-.33-1.647-.988-.329-.987 0-1.646.988-2.304l14.154-5.925c2.963-1.317 6.583-.658 8.888 1.646l1.975 1.975c.658.658.658 1.646 0 2.304-.659.658-1.646.658-2.305 0l-1.975-1.646c-1.316-1.317-3.62-1.646-5.266-.987l-14.154 5.925h-.659z" fill="#DABD74"/><path d="M35.548 35.474c-1.646 0-2.963-.659-4.28-1.646-1.316-1.646-1.974-3.62-1.645-5.596.33-1.975 1.317-3.62 3.292-4.28l11.52-5.595c2.305-.987 4.609-1.317 6.913-.33l17.117 6.913c.987.33 1.316 1.317.987 2.305-.33.987-1.317 1.316-2.304.987L50.03 21.32c-1.316-.659-2.962-.659-3.95 0l-11.52 5.595c-.988.33-1.646.988-1.646 1.975 0 .988 0 1.646.658 2.305.987.987 2.304.987 3.292.658l10.204-5.267c.658-.329 1.646 0 2.304.659.33.658 0 1.645-.658 2.304L38.51 34.815c-.987.33-1.975.659-2.962.659zM41.146 57.2c-1.646 0-3.292-.659-4.28-1.975l-4.279-4.28c-.658-.658-.658-1.645 0-2.304.659-.658 1.646-.658 2.305 0l4.279 4.28c.987.987 2.962.987 4.279 0 1.317-.988.987-2.963 0-4.28l-3.292-3.291c-.658-.659-.658-1.646 0-2.305.659-.658 1.646-.658 2.304 0l3.292 3.292c2.304 2.304 2.304 6.254 0 8.888-1.316 1.316-2.962 1.975-4.608 1.975z" fill="#DABD74"/><path d="M33.904 63.124c-1.646 0-2.962-.658-4.279-1.646l-7.57-6.912c-2.963-2.633-6.584-3.95-10.534-3.95-.988-.33-1.646-.987-1.646-1.975 0-.987.658-1.646 1.646-1.646 4.608 0 9.216 1.646 12.837 4.938l7.571 6.912c1.317.988 2.963.988 4.28 0 1.316-1.316 1.316-2.962 0-4.28l-3.292-3.29c-.659-.659-.659-1.646 0-2.305.658-.658 1.645-.658 2.304 0l3.292 3.292c2.304 2.304 2.304 6.254 0 8.887-1.317 1.317-2.963 1.975-4.609 1.975zM59.58 51.932c-.987 0-1.645 0-2.633-.33l-6.254-1.974c-.987-.33-1.317-1.317-.987-1.975.329-.988 1.316-1.317 1.974-.988l6.255 1.975c1.645.658 3.62.33 4.937-.987l3.621-3.292c.658-.658 1.646-.658 2.304 0 .659.658.659 1.646 0 2.304l-3.62 3.292c-1.976 1.316-3.95 1.975-5.597 1.975z" fill="#DABD74"/><path d="M77.353 53.579h-9.875c-.988 0-1.646-.659-1.646-1.646V22.308c0-.988.658-1.646 1.646-1.646h9.875c.987 0 1.646.658 1.646 1.646v29.625c0 .987-.659 1.646-1.646 1.646zm-8.23-3.292h6.584V23.954h-6.583v26.333zM11.52 53.579H1.647C.658 53.579 0 52.92 0 51.933V22.308c0-.988.658-1.646 1.646-1.646h9.875c.987 0 1.646.658 1.646 1.646v29.625c0 .987-.659 1.646-1.646 1.646zm-8.228-3.292h6.583V23.954H3.292v26.333z" fill="#fff"/></g><defs><clipPath id="clip0"><path fill="#fff" transform="translate(0 .912)" d="M0 0h79v79H0z"/></clipPath></defs></svg>