<svg width="54" height="87" fill="none" xmlns="http://www.w3.org/2000/svg"><path d="M29.327 32.176c9.341.807 17.323 6.368 21.519 14.255-5.034 1.103-9.96 3.405-14.801 6.207-1.781-6.947-2.415-13.575-6.718-20.462zM51.795 48.41A26.958 26.958 0 0154 59.124a26.94 26.94 0 01-3.622 13.536c-2.878-1.069-6.985-3.54-10.182-9.261-1.481-2.65-2.506-5.22-3.296-7.74 4.455-3.12 9.295-5.739 14.895-7.249zm-7.22 31.242a26.902 26.902 0 01-17.6 6.524c-7.634 0-14.528-3.17-19.442-8.265 9.212-4.357 16.563-12.207 24.92-18.903a55.677 55.677 0 002.712 9.836c2.255 5.977 6.316 9.166 9.41 10.808zM0 57.505a26.98 26.98 0 018.139-17.777 26.982 26.982 0 0111.278-6.582c3.096-.901 6.06-1.086 7.574 2.58.53 1.286.652 2.883.441 4.661-1.354 11.407-16.4 30.347-24.79 23.422C.806 62.295.084 60.015 0 57.505zM30.758 41.46c.287 1.632.472 3.08.546 4.139.15 2.136.115 5.433.586 9.564-3.05 1.928-6.069 3.976-9.062 5.965 1.348-1.823 3.304-5.039 5.551-10.494 1.51-3.664 2.163-6.734 2.378-9.174z" fill="url(#paint0_linear)"/><path d="M30.118 30.465s-3.643-2.007-5.458-6.717c-1.816-4.711-2.356-11.188-7.851-17.468L11.313 0s-3.63 9.519 2.552 16.682c6.182 7.164 10.45 8.881 10.45 8.881l.639 1.153s-1.006-.564-2.527-1.25c-1.521-.688-2.453-1.571-6.182-3.779-3.73-2.208-6.134-2.649-9.028-2.502-2.895.147-6.624 1.766-6.624 1.766s4.22 3.386 8.488 4.27c4.269.882 11.089.342 11.776.44.687.098 2.306.883 4.22 2.258 1.913 1.374 3.03 2.306 3.03 2.306.47.041 1.19.066 2.011.24z" fill="url(#paint1_linear)"/><path d="M35.636 5.713c4.392.905 6.76 6.456 5.287 12.4-1.473 5.944-6.229 10.03-10.622 9.126a5.944 5.944 0 01-1.554-.551c-1.673-3.982-1.866-8.742-.2-13.643a23.84 23.84 0 011.294-3.075 22.247 22.247 0 00-3.198 6.057c-.857 2.521-1.164 5.002-.988 7.333-1.12-2.3-1.425-5.354-.64-8.521 1.473-5.944 6.228-10.03 10.62-9.126z" fill="url(#paint2_linear)"/><defs><linearGradient id="paint0_linear" x1="-3.516" y1="29.513" x2="57.086" y2="84.318" gradientUnits="userSpaceOnUse"><stop stop-color="#CFA550"/><stop offset=".101" stop-color="#DCBA56"/><stop offset=".147" stop-color="#FDE064"/><stop offset=".217" stop-color="#FFFA99"/><stop offset=".256" stop-color="#FDE064"/><stop offset=".349" stop-color="#DCBA56"/><stop offset=".519" stop-color="#CFA550"/><stop offset=".69" stop-color="#FDE064"/><stop offset=".783" stop-color="#FFFA99"/><stop offset=".829" stop-color="#FDE064"/><stop offset=".899" stop-color="#CFA550"/><stop offset="1" stop-color="#CFA550"/></linearGradient><linearGradient id="paint1_linear" x1="-1.809" y1="-.955" x2="32.256" y2="28.903" gradientUnits="userSpaceOnUse"><stop stop-color="#CFA550"/><stop offset=".101" stop-color="#DCBA56"/><stop offset=".147" stop-color="#FDE064"/><stop offset=".217" stop-color="#FFFA99"/><stop offset=".256" stop-color="#FDE064"/><stop offset=".349" stop-color="#DCBA56"/><stop offset=".519" stop-color="#CFA550"/><stop offset=".69" stop-color="#FDE064"/><stop offset=".783" stop-color="#FFFA99"/><stop offset=".829" stop-color="#FDE064"/><stop offset=".899" stop-color="#CFA550"/><stop offset="1" stop-color="#CFA550"/></linearGradient><linearGradient id="paint2_linear" x1="23.827" y1="5.704" x2="42.408" y2="25.442" gradientUnits="userSpaceOnUse"><stop stop-color="#CFA550"/><stop offset=".101" stop-color="#DCBA56"/><stop offset=".147" stop-color="#FDE064"/><stop offset=".217" stop-color="#FFFA99"/><stop offset=".256" stop-color="#FDE064"/><stop offset=".349" stop-color="#DCBA56"/><stop offset=".519" stop-color="#CFA550"/><stop offset=".69" stop-color="#FDE064"/><stop offset=".783" stop-color="#FFFA99"/><stop offset=".829" stop-color="#FDE064"/><stop offset=".899" stop-color="#CFA550"/><stop offset="1" stop-color="#CFA550"/></linearGradient></defs></svg>