<svg width="1172" height="211" viewBox="0 0 1172 211" fill="none" xmlns="http://www.w3.org/2000/svg">
<path fill-rule="evenodd" clip-rule="evenodd" d="M119.325 0.382355C119.689 1.86127 120.053 3.20596 120.419 4.40698C120.781 5.61072 121.148 6.76703 121.509 7.87723C121.693 9.17313 121.965 10.3755 122.329 11.4884C122.693 12.5973 123.059 13.8918 123.42 15.3721C125.971 23.3306 129.703 34.2956 134.617 48.2714C139.532 62.2431 144.719 76.7259 150.18 91.7156C150.544 92.6415 150.908 93.5687 151.273 94.4918C151.636 95.4163 152.003 96.3435 152.365 97.2707C158.919 115.59 165.155 132.479 171.071 147.932C176.988 163.385 180.947 173.334 182.948 177.774C183.495 179.256 184.041 180.552 184.587 181.663C185.132 182.774 185.681 183.977 186.225 185.272C186.587 186.196 187.045 187.167 187.589 188.186C188.139 189.203 188.683 190.27 189.228 191.38C190.14 193.229 192.004 194.895 194.827 196.377C197.647 197.857 200.697 199.246 203.972 200.54C204.703 200.727 205.431 201.003 206.157 201.372C206.887 201.745 207.613 202.021 208.344 202.204C208.889 202.39 209.389 202.622 209.843 202.9C210.301 203.176 210.801 203.408 211.347 203.594L217.08 205.815H136.256L143.355 203.041C144.447 202.854 145.631 202.485 146.904 201.926C148.18 201.372 149.545 200.818 151.001 200.263C153.549 199.339 155.871 198.224 157.964 196.93C160.056 195.637 161.377 194.063 161.923 192.212C161.923 192.212 161.923 192.165 161.923 192.073C161.923 191.979 162.013 191.842 162.196 191.657C162.196 191.471 162.196 191.334 162.196 191.239C162.196 191.147 162.196 191.009 162.196 190.826C162.196 189.898 162.013 188.695 161.651 187.213C161.287 185.733 160.771 184.371 160.284 183.05L107.711 40.6275L107.407 40.4566L105.673 36.1948L77.8213 108.93H114.175L119.608 123.365H72.0867L52.9706 175.276C52.788 175.832 52.6546 176.248 52.5626 176.527C52.472 176.804 52.4253 177.13 52.4253 177.498C52.0627 178.238 51.7426 179.07 51.4706 179.997C51.1986 180.921 50.9707 181.848 50.7867 182.774C50.24 184.81 49.7867 186.752 49.4227 188.603C49.056 190.453 48.8746 191.842 48.8746 192.768C48.8746 192.951 48.8746 193.092 48.8746 193.183C48.8746 193.278 48.8746 193.415 48.8746 193.601C49.6026 195.266 51.0133 196.606 53.1093 197.625C55.2013 198.643 57.5239 199.615 60.0719 200.54C60.4373 200.54 60.7986 200.586 61.1653 200.678C61.528 200.774 61.8013 200.91 61.9826 201.094C62.8946 201.467 63.804 201.789 64.712 202.066C65.624 202.345 66.4413 202.668 67.1706 203.041L74.544 205.815H0L6.00397 203.594C7.27864 203.225 8.69194 202.764 10.2386 202.204C11.7866 201.65 13.2866 201.094 14.7439 200.54C17.8386 199.428 20.7507 198.135 23.4813 196.653C26.212 195.173 28.0333 193.601 28.9413 191.936C29.4879 191.009 29.944 190.084 30.3066 189.157C30.672 188.234 31.0373 187.4 31.4013 186.66C31.7613 186.104 32.0373 185.55 32.22 184.993C32.4013 184.44 32.5826 183.789 32.7653 183.05C33.1293 182.313 33.4466 181.571 33.7186 180.831C33.9946 180.09 34.3119 179.256 34.6773 178.334C37.0413 173.151 39.3653 167.737 41.64 162.091C43.916 156.449 46.2373 150.662 48.6013 144.741C49.8773 141.78 51.152 138.772 52.4253 135.717C53.7 132.664 54.9733 129.564 56.2507 126.418C65.7147 102.544 74.2693 80.1975 81.916 59.3734C89.564 38.5548 94.2947 25.2757 96.1173 19.5363C96.6613 17.6873 97.1626 16.0228 97.6186 14.5412C98.072 13.0609 98.484 11.5793 98.8466 10.0963C98.8466 9.54321 98.9373 9.03485 99.1186 8.5726C99.3026 8.10901 99.392 7.60066 99.392 7.04489C99.7547 6.11905 100.075 5.10237 100.348 3.99217C100.621 2.88062 100.848 1.77045 101.029 0.661606L119.325 0.382355Z" fill="#DABD74"/>
<path d="M403.547 38.5872V125.477C403.547 157.495 395.445 179.659 379.244 191.966C363.043 204.271 344.567 210.332 323.813 210.146C303.972 209.962 286.177 203.577 270.432 190.992C254.685 178.407 246.812 157.773 246.812 129.087V28.5941C246.812 28.4084 246.812 28.0831 246.812 27.6208C246.812 27.1586 246.904 26.6502 247.085 26.0958C247.085 25.7257 247.085 25.2635 247.085 24.7077C247.085 24.152 247.085 23.5975 247.085 23.0404C247.085 22.3002 247.039 21.6075 246.948 20.9596C246.856 20.3116 246.721 19.6163 246.54 18.8761C246.357 17.7659 246.085 16.7032 245.72 15.6838C245.356 14.6658 244.811 13.6952 244.083 12.7707C243.719 12.4007 243.172 11.937 242.444 11.3826C241.716 10.8268 240.895 10.3646 239.985 9.99455C238.529 9.25443 236.891 8.55899 235.071 7.91104C233.251 7.26443 231.431 6.56906 229.611 5.82893C227.608 5.27316 225.651 4.71872 223.74 4.16295C221.828 3.60852 220.144 3.14629 218.687 2.77621L212.407 0.555771H304.973L298.967 3.05275C297.872 3.79288 296.599 4.3486 295.143 4.71867C293.687 5.08875 292.14 5.45886 290.501 5.82893C290.137 6.01329 289.773 6.15285 289.409 6.24638C289.045 6.33856 288.681 6.47684 288.317 6.66119C285.223 7.40132 282.264 8.28108 279.443 9.2991C276.62 10.3171 274.664 11.4748 273.572 12.7707C273.391 13.1408 273.161 13.4634 272.889 13.7399C272.616 14.0178 272.389 14.3431 272.207 14.7132C271.116 16.7479 270.477 18.8314 270.296 20.9596C270.113 23.0878 270.023 25.4479 270.023 28.0383V129.919C270.023 152.127 274.981 168.043 284.904 177.667C294.825 187.292 307.521 193.306 322.995 195.712C324.451 195.897 325.816 196.036 327.089 196.129C328.365 196.221 329.64 196.267 330.913 196.267C346.023 196.267 359.312 190.576 370.78 179.195C382.247 167.812 387.983 152.589 387.983 133.528V29.7029C387.983 29.7029 387.983 29.6569 387.983 29.5633C387.983 29.4711 387.983 29.3329 387.983 29.1485C387.983 27.854 387.983 26.5106 387.983 25.1225C387.983 23.7344 387.801 22.3002 387.437 20.8186C387.255 19.7098 386.935 18.5982 386.48 17.488C386.025 16.3778 385.435 15.2677 384.704 14.1575C384.34 13.7874 383.795 13.3699 383.065 12.9076C382.339 12.4454 381.428 11.937 380.336 11.3826C379.061 10.8268 377.559 10.225 375.829 9.57703C374.101 8.92908 372.328 8.23366 370.505 7.49353C368.321 6.9391 366.275 6.29112 364.363 5.55099C362.451 4.81087 360.768 4.1629 359.312 3.60847L353.029 0.555771H438.224L432.763 3.60847C431.308 4.53296 429.623 5.27316 427.712 5.82893C425.8 6.38336 423.843 7.03127 421.84 7.77139C418.747 8.69724 415.788 9.6692 412.967 10.6872C410.145 11.7052 408.279 12.8629 407.368 14.1575C406.641 15.0833 406.048 16.7032 405.593 19.0157C405.137 21.3297 404.729 23.7819 404.365 26.3723C404.001 29.1485 403.773 31.6942 403.683 34.0068C403.591 36.3207 403.547 37.938 403.547 38.8652V38.5872ZM549.904 110.486L544.444 111.599L574.753 145.743C578.029 149.629 581.079 153.193 583.9 156.431C586.721 159.67 589.497 162.862 592.228 166.008C592.956 166.934 593.731 167.812 594.549 168.646C595.368 169.478 596.141 170.358 596.869 171.284C599.055 173.69 601.375 176.095 603.832 178.5C606.292 180.906 608.884 183.496 611.616 186.274C613.253 187.754 614.664 189.095 615.847 190.298C617.029 191.503 618.259 192.658 619.533 193.769C620.261 194.323 620.945 194.879 621.583 195.435C622.219 195.989 622.992 196.545 623.901 197.099C625.54 198.209 627.407 199.367 629.5 200.571C631.592 201.773 634.279 203.209 637.555 204.873L644.928 208.204L635.916 210.424C635.552 210.61 635.097 210.702 634.552 210.702C634.005 210.702 633.368 210.702 632.64 210.702C629.728 210.702 626.132 210.195 621.855 209.176C617.576 208.159 613.163 206.909 608.611 205.429C603.515 203.393 597.371 198.673 590.181 191.27C582.989 183.866 575.572 175.909 567.925 167.396C567.743 167.21 567.561 167.074 567.379 166.98C567.197 166.888 567.107 166.748 567.107 166.563C565.468 164.898 563.921 163.232 562.465 161.567C561.008 159.901 559.552 158.237 558.096 156.571L518.229 113.263H510.859V179.055C510.859 182.202 510.995 184.932 511.267 187.244C511.54 189.558 512.588 191.826 514.408 194.046C515.5 195.527 517.456 196.777 520.279 197.795C523.1 198.813 526.059 199.692 529.153 200.432C529.699 200.617 530.199 200.803 530.653 200.987C531.108 201.173 531.609 201.265 532.156 201.265C533.612 201.635 534.977 202.05 536.251 202.513C537.525 202.975 538.708 203.393 539.803 203.763L545.808 205.983H453.241L459.523 204.041C460.979 203.855 462.664 203.485 464.575 202.931C466.487 202.375 468.444 201.821 470.447 201.265C472.448 200.525 474.359 199.829 476.18 199.183C477.999 198.535 479.547 197.839 480.82 197.099C481.912 196.729 482.779 196.267 483.415 195.712C484.052 195.157 484.553 194.693 484.919 194.323C485.828 193.214 486.465 191.966 486.829 190.576C487.193 189.188 487.465 187.754 487.648 186.274C487.648 185.165 487.648 184.099 487.648 183.081C487.648 182.063 487.648 180.998 487.648 179.888C487.648 179.703 487.648 179.425 487.648 179.055C487.648 178.685 487.648 178.407 487.648 178.223V27.7604C487.648 25.3557 487.511 23.1325 487.237 21.0979C486.964 19.0618 486.101 17.118 484.645 15.2677C483.371 13.7874 481.323 12.3532 478.501 10.9651C475.68 9.577 472.721 8.23367 469.627 6.93912C467.807 6.19899 466.031 5.50629 464.301 4.85834C462.573 4.21039 460.979 3.60852 459.523 3.05275L453.517 0.555771H503.212C505.943 0.740128 508.491 0.784897 510.859 0.692719C513.225 0.599182 515.591 0.462265 517.957 0.277908C518.321 0.277908 518.685 0.277908 519.049 0.277908C519.413 0.277908 519.777 0.277908 520.141 0.277908C522.143 0.277908 524.145 0.230453 526.149 0.136917C528.152 0.0447388 530.244 4.57764e-05 532.429 4.57764e-05C534.431 4.57764e-05 536.48 0.0447388 538.573 0.136917C540.665 0.230453 542.896 0.370056 545.263 0.555771C546.719 0.740128 548.131 0.924515 549.496 1.11023C550.86 1.29459 552.271 1.48027 553.725 1.66463C564.649 4.07074 574.753 9.90234 584.037 19.154C593.32 28.4084 597.963 41.2712 597.963 57.7426C597.963 70.3276 594.913 80.2272 588.813 87.4455C582.716 94.6625 576.027 100.124 568.747 103.825C565.468 105.491 562.192 106.877 558.916 107.988C555.64 109.098 552.635 110.024 549.904 110.764V110.486ZM537.343 13.0473C536.797 13.233 536.297 13.3251 535.843 13.3251C535.388 13.3251 534.977 13.233 534.613 13.0473C534.067 13.0473 533.568 13.0473 533.112 13.0473C532.657 13.0473 532.156 13.0473 531.609 13.0473C531.428 13.0473 531.245 13.0473 531.064 13.0473C530.881 13.0473 530.7 13.0473 530.519 13.0473C527.06 13.0473 523.737 13.2777 520.552 13.7399C517.364 14.2035 515.227 14.8054 514.135 15.5455C512.496 16.6557 511.54 18.136 511.267 19.9863C510.995 21.8367 510.859 23.7819 510.859 25.8179C510.859 26.0023 510.859 26.1406 510.859 26.2328C510.859 26.3263 510.859 26.4659 510.859 26.6502V101.604L523.689 101.326C538.071 101.326 550.449 97.3004 560.827 89.2511C571.204 81.1991 576.3 70.6041 576.117 57.4647C576.117 56.909 576.117 56.3545 576.117 55.8001C576.117 55.2443 576.117 54.6885 576.117 54.1341C575.208 42.8437 571.248 33.6368 564.24 26.5106C557.231 19.3858 549.54 15.1754 541.168 13.8795C540.621 13.6952 540.028 13.5556 539.392 13.4634C538.755 13.3699 538.071 13.3251 537.343 13.3251V13.0473ZM830.875 38.5872V125.477C830.875 157.495 822.781 179.659 806.581 191.966C790.381 204.271 771.899 210.332 751.147 210.146C731.304 209.962 713.511 203.577 697.764 190.992C682.019 178.407 674.145 157.773 674.145 129.087V28.5941C674.145 28.4084 674.145 28.0831 674.145 27.6208C674.145 27.1586 674.236 26.6502 674.419 26.0958C674.419 25.7257 674.419 25.2635 674.419 24.7077C674.419 24.152 674.419 23.5975 674.419 23.0404C674.419 22.3002 674.372 21.6075 674.28 20.9596C674.189 20.3116 674.053 19.6163 673.872 18.8761C673.691 17.7659 673.417 16.7032 673.053 15.6838C672.689 14.6658 672.143 13.6952 671.415 12.7707C671.051 12.4007 670.505 11.937 669.777 11.3826C669.049 10.8268 668.228 10.3646 667.317 9.99455C665.861 9.25443 664.223 8.55899 662.404 7.91104C660.583 7.26443 658.763 6.56906 656.943 5.82893C654.94 5.27316 652.983 4.71872 651.072 4.16295C649.161 3.60852 647.476 3.14629 646.02 2.77621L639.739 0.555771H732.305L726.299 3.05275C725.205 3.79288 723.931 4.3486 722.475 4.71867C721.019 5.08875 719.472 5.45886 717.833 5.82893C717.471 6.01329 717.107 6.15285 716.741 6.24638C716.377 6.33856 716.013 6.47684 715.649 6.66119C712.556 7.40132 709.596 8.28108 706.776 9.2991C703.952 10.3171 701.997 11.4748 700.904 12.7707C700.723 13.1408 700.495 13.4634 700.221 13.7399C699.948 14.0178 699.721 14.3431 699.54 14.7132C698.448 16.7479 697.811 18.8314 697.628 20.9596C697.447 23.0878 697.356 25.4479 697.356 28.0383V129.919C697.356 152.127 702.315 168.043 712.236 177.667C722.157 187.292 734.853 193.306 750.327 195.712C751.783 195.897 753.148 196.036 754.423 196.129C755.699 196.221 756.972 196.267 758.247 196.267C773.356 196.267 786.648 190.576 798.115 179.195C809.581 167.812 815.315 152.589 815.315 133.528V29.7029C815.315 29.7029 815.315 29.6569 815.315 29.5633C815.315 29.4711 815.315 29.3329 815.315 29.1485C815.315 27.854 815.315 26.5106 815.315 25.1225C815.315 23.7344 815.128 22.3002 814.768 20.8186C814.581 19.7098 814.261 18.5982 813.808 17.488C813.355 16.3778 812.768 15.2677 812.035 14.1575C811.675 13.7874 811.128 13.3699 810.395 12.9076C809.675 12.4454 808.755 11.937 807.675 11.3826C806.395 10.8268 804.888 10.225 803.168 9.57703C801.435 8.92908 799.661 8.23366 797.835 7.49353C795.648 6.9391 793.608 6.29112 791.701 5.55099C789.781 4.81087 788.101 4.1629 786.648 3.60847L780.363 0.555771H865.555L860.101 3.60847C858.635 4.53296 856.955 5.27316 855.048 5.82893C853.128 6.38336 851.181 7.03127 849.168 7.77139C846.075 8.69724 843.115 9.6692 840.301 10.6872C837.475 11.7052 835.608 12.8629 834.701 14.1575C833.968 15.0833 833.381 16.7032 832.928 19.0157C832.475 21.3297 832.061 23.7819 831.701 26.3723C831.328 29.1485 831.101 31.6942 831.008 34.0068C830.928 36.3207 830.875 37.938 830.875 38.8652V38.5872ZM943.101 24.4298C946.741 32.3869 951.568 41.8717 957.581 52.8829C963.581 63.8954 969.861 75.3242 976.421 87.169C977.141 88.4636 977.835 89.7134 978.461 90.9158C979.101 92.1195 979.781 93.2744 980.515 94.3846C989.981 111.043 998.848 126.357 1007.14 140.33C1015.42 154.303 1020.74 162.862 1023.11 166.008C1028.94 156.385 1037.13 141.626 1047.69 121.73C1058.25 101.835 1069.35 80.783 1080.99 58.5749C1081.54 57.6491 1082.09 56.6771 1082.63 55.6591C1083.18 54.6411 1083.73 53.6719 1084.27 52.746C1085.91 49.5984 1087.59 46.4522 1089.33 43.3073C1091.06 40.1611 1092.74 37.0135 1094.38 33.8672C1095.83 31.091 1097.15 28.5006 1098.34 26.0958C1099.51 23.6897 1100.66 21.2823 1101.75 18.8761C1101.93 18.3217 1102.15 17.7659 1102.43 17.2115C1102.7 16.6557 1102.93 16.1013 1103.11 15.5455C1104.21 13.3251 1105.26 10.9651 1106.26 8.46684C1107.26 5.96855 1108.39 3.3306 1109.67 0.555771L1124.69 0.277908C1124.87 3.60851 1125.05 6.66119 1125.23 9.44008C1125.42 12.2149 1125.59 14.8054 1125.78 17.2115C1125.78 17.9991 1125.82 18.6918 1125.91 19.3397C1126.01 19.9863 1126.05 20.5896 1126.05 21.144C1126.23 24.2902 1126.46 27.5287 1126.74 30.862C1127.01 34.1926 1127.33 37.8011 1127.69 41.6861C1128.23 48.5357 1128.87 55.8448 1129.61 63.5254C1130.33 71.2047 1131.06 78.9313 1131.78 86.7502C1133.61 108.591 1135.34 128.717 1136.97 147.038C1138.61 165.408 1139.53 174.751 1139.7 175.123C1139.7 175.677 1139.75 176.187 1139.85 176.649C1139.93 177.113 1139.98 177.623 1139.98 178.178C1140.34 180.953 1140.85 183.588 1141.47 186.089C1142.11 188.632 1142.79 190.716 1143.53 192.38C1144.43 194.046 1146.26 195.574 1148.99 196.961C1151.71 198.349 1154.63 199.6 1157.73 200.71C1159.18 201.265 1160.59 201.773 1161.95 202.235C1163.33 202.699 1164.65 203.209 1165.91 203.763L1171.65 205.983H1086.73L1095.74 202.375C1096.47 202.375 1097.15 202.235 1097.79 201.957C1098.42 201.68 1099.11 201.45 1099.83 201.265C1100.02 201.265 1100.15 201.217 1100.25 201.125C1100.34 201.033 1100.47 200.987 1100.66 200.987C1103.57 200.062 1106.34 199.044 1108.98 197.931C1111.62 196.821 1113.41 195.435 1114.31 193.769C1115.77 191.362 1116.73 189.143 1117.18 187.107C1117.63 185.071 1117.86 183.126 1117.86 181.276C1117.86 180.166 1117.82 179.055 1117.73 177.945C1117.63 176.835 1117.5 175.817 1117.31 174.892C1117.13 174.152 1116.99 173.457 1116.9 172.809C1116.81 172.162 1116.77 171.468 1116.77 170.73L1105.57 44.6941C1102.3 50.6151 1097.11 60.1026 1090.01 73.1485C1082.91 86.1957 1075.35 100.124 1067.34 114.929C1061.89 125.291 1056.51 135.425 1051.23 145.326C1045.95 155.227 1041.31 163.88 1037.31 171.284C1036.58 172.578 1035.9 173.874 1035.26 175.169C1034.62 176.465 1033.94 177.853 1033.21 179.333C1033.03 179.888 1032.75 180.491 1032.39 181.139C1032.03 181.787 1031.66 182.478 1031.3 183.22C1028.57 188.958 1026.07 194.28 1023.79 199.183C1021.51 204.086 1020.1 207.094 1019.55 208.204C1018.83 206.724 1017.42 204.133 1015.33 200.432C1013.23 196.729 1011.1 192.751 1008.91 188.495C1008.73 188.31 1008.63 188.17 1008.63 188.078C1008.63 187.986 1008.63 187.94 1008.63 187.94C1007.91 186.459 1007.18 185.071 1006.45 183.774C1005.73 182.478 1004.99 181.184 1004.27 179.888C984.248 142.135 967.768 112.431 954.848 90.7761C941.928 69.1238 934.181 55.9844 931.635 51.3552L923.995 157.403C923.995 158.329 923.901 159.346 923.715 160.456C923.541 161.567 923.448 162.862 923.448 164.342C923.261 166.192 923.075 168.229 922.901 170.45C922.715 172.672 922.621 174.892 922.621 177.113C922.621 177.483 922.621 177.853 922.621 178.223C922.621 178.593 922.621 178.87 922.621 179.055C922.621 181.832 922.848 184.517 923.315 187.107C923.768 189.698 924.541 191.918 925.635 193.769C926.541 195.249 928.088 196.545 930.275 197.655C932.461 198.766 934.821 199.785 937.368 200.71C937.728 200.71 938.101 200.803 938.461 200.987C938.821 201.173 939.195 201.265 939.555 201.265C940.288 201.635 941.061 201.957 941.875 202.235C942.688 202.513 943.475 202.839 944.195 203.209L951.848 205.983H880.568L885.221 203.763C885.768 203.763 886.261 203.671 886.715 203.485C887.168 203.301 887.675 203.115 888.221 202.931C888.768 202.561 889.315 202.283 889.861 202.098C890.408 201.913 890.955 201.727 891.501 201.543C894.595 200.247 897.501 198.905 900.235 197.517C902.968 196.129 904.875 194.509 905.968 192.658C906.875 190.808 907.608 187.43 908.155 182.526C908.701 177.623 909.155 172.347 909.515 166.796C909.515 165.5 909.568 164.25 909.661 163.048C909.741 161.844 909.795 160.594 909.795 159.298C910.528 153.007 911.208 146.391 911.835 139.404C912.475 132.464 912.981 125.477 913.341 118.446C914.435 103.593 915.301 89.4369 915.941 75.8786C916.568 62.3678 917.168 51.911 917.715 44.4623C918.075 39.6514 918.301 35.2092 918.395 31.1385C918.488 27.0664 918.528 22.9943 918.528 18.9235C918.528 17.2115 918.528 15.4533 918.528 13.603C918.528 11.7513 918.528 9.90236 918.528 8.04932C918.528 6.7534 918.528 5.50627 918.528 4.30254C918.528 3.10016 918.528 1.85033 918.528 0.555771L934.368 0.277908C934.915 2.12823 935.595 4.30257 936.421 6.80086C937.235 9.29915 938.195 11.937 939.288 14.7132C939.648 15.8234 940.008 16.9336 940.381 18.0438C940.741 19.154 941.195 20.2642 941.741 21.3744C941.928 21.9302 942.155 22.4846 942.421 23.0404C942.688 23.5975 942.928 24.152 943.101 24.7077V24.4298Z" fill="#DABD74"/>
</svg>
