<svg width="368" height="40" fill="none" xmlns="http://www.w3.org/2000/svg"><g clip-path="url(#clip0)" fill-rule="evenodd" clip-rule="evenodd"><path d="M24.552 35.673h18.2V4.271h-18.2v31.402z" fill="#FF5F00"/><path d="M25.708 19.971c0-6.37 3.107-12.045 7.944-15.701C30.114 1.595 25.65 0 20.798 0 9.311 0 0 8.942 0 19.971c0 11.03 9.311 19.971 20.798 19.971 4.852 0 9.316-1.595 12.854-4.27-4.837-3.656-7.944-9.33-7.944-15.7z" fill="#EB001B"/><path d="M66.655 32.347v-.775h-.211l-.242.533-.243-.533h-.21v.775h.148v-.585l.227.504h.155l.227-.505v.586h.149zm-1.335 0v-.643h.27v-.131h-.688v.13h.27v.644h.148zm1.984-12.376c0 11.03-9.312 19.971-20.798 19.971-4.852 0-9.316-1.595-12.854-4.27 4.838-3.656 7.944-9.33 7.944-15.7 0-6.371-3.106-12.045-7.944-15.702C37.19 1.595 41.654 0 46.506 0c11.486 0 20.798 8.942 20.798 19.971z" fill="#F79E1B"/></g><g clip-path="url(#clip1)"><path d="M140.002 39.423h-9.721l6.08-38.72h9.721l-6.08 38.72zm35.237-37.774C173.321.865 170.28 0 166.52 0c-9.6 0-16.36 5.272-16.401 12.81-.08 5.562 4.84 8.65 8.519 10.505 3.761 1.895 5.04 3.132 5.04 4.82-.039 2.595-3.039 3.79-5.838 3.79-3.881 0-5.961-.616-9.121-2.06l-1.28-.618-1.36 8.692c2.28 1.07 6.48 2.02 10.841 2.061 10.2 0 16.84-5.19 16.919-13.224.039-4.407-2.559-7.785-8.16-10.545-3.4-1.772-5.482-2.966-5.482-4.779.04-1.648 1.761-3.336 5.599-3.336 3.161-.083 5.482.7 7.241 1.483l.88.41 1.322-8.36zm12.918 24.057c.8-2.225 3.881-10.834 3.881-10.834-.04.082.799-2.266 1.279-3.707l.679 3.336s1.841 9.269 2.241 11.205h-8.08zM200.156.702h-7.519c-2.319 0-4.08.7-5.081 3.213l-14.439 35.508h10.2l2.04-5.809h12.481c.279 1.36 1.16 5.809 1.16 5.809h9L200.156.703zm-77.996 0l-9.52 26.404-1.04-5.355c-1.76-6.179-7.28-12.892-13.44-16.23l8.72 33.861h10.279l15.28-38.68H122.16z" fill="#00579F"/><path d="M103.8.702H88.16l-.16.783c12.2 3.213 20.28 10.958 23.6 20.268l-3.4-17.796c-.56-2.473-2.28-3.173-4.4-3.255z" fill="#FAA61A"/></g><path fill-rule="evenodd" clip-rule="evenodd" d="M352.282 0h-26.571c1.429 8.857 10 17.143 19.429 17.143h21.142c.286-.857.286-2 .286-2.857 0-8-6.286-14.286-14.286-14.286z" fill="url(#paint0_linear)"/><path fill-rule="evenodd" clip-rule="evenodd" d="M328 18.571V40h12.857V28.57h11.429c6.285 0 11.714-4.285 13.428-10H328zM282.286 0v40h11.429s2.857 0 4.285-2.857l10-20h1.429V40h12.857V0h-11.429s-2.857.286-4.285 2.857l-10 20h-1.429V0h-12.857zM228 40V0h12.857s3.714 0 5.714 5.714c5.143 15.143 5.715 17.143 5.715 17.143s1.143-3.714 5.714-17.143C260 0 263.714 0 263.714 0h12.857v40h-12.857V18.571h-1.428L255.143 40h-5.714l-7.143-21.429h-1.429V40H228z" fill="#4DB45F"/><defs><clipPath id="clip0"><path fill="#fff" d="M0 0h68v40H0z"/></clipPath><clipPath id="clip1"><path fill="#fff" transform="translate(88)" d="M0 0h120v40H0z"/></clipPath><linearGradient id="paint0_linear" x1="325.637" y1="8.571" x2="366.568" y2="8.571" gradientUnits="userSpaceOnUse"><stop stop-color="#00B4E6"/><stop offset="1" stop-color="#088CCB"/></linearGradient></defs></svg>