<svg width="283" height="93" fill="none" xmlns="http://www.w3.org/2000/svg"><path d="M274.185 56.836l7.851 5.242c-2.548 3.759-8.642 10.207-19.179 10.207-13.084 0-22.829-10.138-22.829-23.035 0-13.725 9.848-23.036 21.727-23.036 11.948 0 17.802 9.518 19.696 14.656l1.033 2.62-30.783 12.76c2.341 4.621 5.991 6.966 11.156 6.966 5.165 0 8.746-2.552 11.328-6.38zm-24.137-8.31l20.556-8.553c-1.136-2.862-4.51-4.896-8.539-4.896-5.13 0-12.258 4.551-12.017 13.449z" fill="#FF302F"/><path d="M225.188 2.73h9.916v67.452h-9.916V2.729z" fill="#20B15A"/><path d="M209.555 28.007h9.573v40.968c0 17-10.02 24.001-21.865 24.001-11.156 0-17.871-7.517-20.384-13.621l8.78-3.656c1.584 3.76 5.406 8.208 11.604 8.208 7.609 0 12.292-4.725 12.292-13.553v-3.31h-.344c-2.273 2.758-6.611 5.241-12.12 5.241-11.501 0-22.037-10.035-22.037-22.966 0-13.001 10.536-23.14 22.037-23.14 5.474 0 9.847 2.449 12.12 5.138h.344v-3.31zm.689 21.311c0-8.138-5.406-14.07-12.293-14.07-6.955 0-12.809 5.932-12.809 14.07 0 8.035 5.854 13.863 12.809 13.863 6.887.035 12.293-5.828 12.293-13.862z" fill="#3686F7"/><path d="M120.615 49.146c0 13.277-10.33 23.036-23 23.036-12.672 0-23.002-9.794-23.002-23.036 0-13.346 10.33-23.07 23.001-23.07 12.671 0 23.001 9.724 23.001 23.07zm-10.054 0c0-8.276-5.991-13.966-12.947-13.966-6.955 0-12.946 5.69-12.946 13.966 0 8.207 5.99 13.966 12.946 13.966 6.956 0 12.947-5.759 12.947-13.966z" fill="#FF302F"/><path d="M170.853 49.25c0 13.276-10.33 23.035-23.001 23.035-12.672 0-23.001-9.759-23.001-23.035 0-13.346 10.329-23.036 23.001-23.036 12.671 0 23.001 9.656 23.001 23.036zm-10.089 0c0-8.277-5.991-13.967-12.947-13.967-6.955 0-12.947 5.69-12.947 13.967 0 8.207 5.992 13.966 12.947 13.966 6.99 0 12.947-5.793 12.947-13.966z" fill="#FFBA40"/><path d="M36.806 62.181c-14.427 0-25.72-11.656-25.72-26.105S22.378 9.971 36.805 9.971c7.782 0 13.464 3.07 17.664 7l6.921-6.93C55.538 4.418 47.721.142 36.806.142 17.042.143.411 16.282.411 36.076S17.042 72.01 36.806 72.01c10.675 0 18.732-3.517 25.033-10.07 6.473-6.482 8.47-15.586 8.47-22.966 0-2.31-.275-4.69-.585-6.449H36.806v9.587h23.45c-.69 6-2.583 10.104-5.372 12.897-3.375 3.414-8.712 7.173-18.078 7.173z" fill="#3686F7"/></svg>