<svg width="263" height="124" fill="none" xmlns="http://www.w3.org/2000/svg"><path d="M42.316 45.954c13.478 1.163 24.995 9.179 31.048 20.549-7.262 1.588-14.369 4.907-21.356 8.947-2.57-10.014-3.484-19.568-9.692-29.496zm32.419 23.401a38.827 38.827 0 013.18 15.444 38.807 38.807 0 01-5.225 19.511c-4.153-1.54-10.079-5.104-14.692-13.35-2.137-3.818-3.616-7.524-4.756-11.156 6.428-4.498 13.412-8.273 21.493-10.449zM64.317 114.39a38.838 38.838 0 01-25.395 9.404c-11.015 0-20.962-4.569-28.053-11.913 13.292-6.281 23.898-17.596 35.956-27.248A80.194 80.194 0 0050.74 98.81c3.254 8.615 9.114 13.213 13.578 15.579zM0 82.465C.592 72.431 4.978 63.418 11.743 56.84a38.94 38.94 0 0116.274-9.488c4.467-1.298 8.743-1.564 10.927 3.72.767 1.854.942 4.155.637 6.718-1.954 16.444-23.664 43.744-35.77 33.762C1.165 89.37.122 86.083 0 82.465zm44.38-23.129c.414 2.353.68 4.441.788 5.966.217 3.08.166 7.832.845 13.787-4.4 2.78-8.756 5.732-13.075 8.598 1.945-2.628 4.767-7.263 8.01-15.126 2.178-5.282 3.121-9.708 3.431-13.225z" fill="url(#paint0_linear)"/><path d="M43.555 43.769s-5.234-2.884-7.842-9.65c-2.608-6.77-3.384-16.074-11.28-25.096L16.538 0s-5.216 13.676 3.666 23.967c8.882 10.292 15.015 12.76 15.015 12.76l.916 1.655s-1.445-.81-3.63-1.796c-2.186-.988-3.524-2.257-8.882-5.428-5.357-3.173-8.812-3.806-12.97-3.595-4.16.21-9.517 2.538-9.517 2.538s6.062 4.864 12.195 6.133c6.133 1.268 15.932.492 16.919.633.987.14 3.313 1.269 6.062 3.244 2.75 1.974 4.353 3.314 4.353 3.314.676.058 1.712.093 2.89.344z" fill="url(#paint1_linear)"/><path d="M52.427 8.2c6.31 1.3 9.712 9.275 7.596 17.815-2.116 8.54-8.948 14.41-15.26 13.11a8.54 8.54 0 01-2.234-.791c-2.403-5.721-2.68-12.56-.286-19.6a34.277 34.277 0 011.859-4.419c-1.956 2.644-3.529 5.568-4.595 8.702-1.231 3.623-1.673 7.187-1.418 10.536-1.61-3.304-2.048-7.693-.921-12.242C39.284 12.77 46.116 6.9 52.427 8.2z" fill="url(#paint2_linear)"/><path fill-rule="evenodd" clip-rule="evenodd" d="M108.696 69.856c.054.213.107.407.161.58.053.174.107.34.16.501.027.187.066.36.12.52.053.16.107.348.16.561.374 1.148.921 2.73 1.642 4.745a572.7 572.7 0 002.282 6.266l.16.4.16.401a348.382 348.382 0 002.743 7.307c.868 2.229 1.448 3.663 1.742 4.304.08.214.16.4.24.561.08.16.16.334.24.52.053.134.12.274.2.42.081.147.16.301.24.461.134.267.407.507.821.721.414.214.861.414 1.341.6a1.6 1.6 0 01.321.12c.107.054.213.094.32.12.08.027.154.06.22.1.067.04.141.074.221.1l.84.321h-11.851l1.041-.4c.16-.027.334-.08.52-.16.187-.08.388-.16.601-.24a5.535 5.535 0 001.021-.481c.307-.187.501-.414.581-.68v-.02c0-.014.013-.034.04-.06v-.121c0-.133-.027-.307-.08-.52-.054-.214-.129-.41-.201-.601l-7.709-20.541-.044-.025-.254-.615-4.084 10.49h5.33l.797 2.083h-6.968l-2.803 7.487-.06.18a.445.445 0 00-.02.14 2.31 2.31 0 00-.14.36c-.04.134-.074.267-.1.401-.08.294-.147.574-.2.84a3.34 3.34 0 00-.081.602v.12c.107.24.314.433.621.58.307.147.647.287 1.021.42a.66.66 0 01.16.02.257.257 0 01.12.06c.134.054.267.1.4.14.134.04.254.087.361.141l1.081.4H91.2l.88-.32c.187-.053.394-.12.62-.2.228-.08.448-.16.661-.24a9.28 9.28 0 001.282-.561c.4-.214.667-.44.8-.68.08-.134.147-.267.2-.401a5.65 5.65 0 01.16-.36.962.962 0 00.12-.24 3.93 3.93 0 00.08-.281c.054-.106.1-.213.14-.32l.141-.36a56.31 56.31 0 001.021-2.343c.334-.814.674-1.648 1.021-2.502a116.453 116.453 0 001.122-2.643 404.197 404.197 0 003.763-9.67c1.121-3.002 1.815-4.918 2.082-5.745.08-.267.154-.507.22-.72.067-.214.127-.428.181-.642a.6.6 0 01.039-.22.582.582 0 00.041-.22c.053-.133.1-.28.14-.44.04-.16.073-.32.1-.48l2.682-.04z" fill="#fff"/><path d="M150.372 75.367v12.532c0 4.617-1.188 7.814-3.564 9.59-2.376 1.774-5.085 2.648-8.128 2.621-2.909-.026-5.518-.947-7.827-2.762s-3.464-4.791-3.464-8.929V73.785a.72.72 0 01.04-.22v-.44a2.03 2.03 0 00-.02-.3 2.811 2.811 0 00-.06-.301 2.488 2.488 0 00-.12-.46 1.466 1.466 0 00-.24-.42 2.268 2.268 0 00-.24-.201 1.565 1.565 0 00-.361-.2 6.147 6.147 0 00-.72-.3 19.157 19.157 0 01-.801-.301 69 69 0 01-.861-.24c-.28-.08-.527-.147-.741-.2l-.921-.32h13.574l-.881.36a1.786 1.786 0 01-.561.24c-.213.053-.44.107-.68.16a.805.805 0 01-.161.06.806.806 0 00-.16.06c-.453.107-.887.234-1.301.38-.414.147-.701.314-.861.501a.515.515 0 01-.1.14.544.544 0 00-.1.14c-.16.294-.254.594-.28.901-.027.307-.04.648-.04 1.021V88.54c0 3.203.727 5.499 2.182 6.887s3.316 2.255 5.585 2.602c.214.027.414.047.601.06.187.014.374.02.56.02 2.216 0 4.164-.82 5.846-2.462 1.681-1.642 2.523-3.837 2.523-6.586V73.425c0-.2-.027-.407-.08-.621a2.185 2.185 0 00-.141-.48 2.836 2.836 0 00-.26-.48 1.413 1.413 0 00-.241-.181 4.8 4.8 0 00-.4-.22c-.187-.08-.407-.167-.661-.26a31.167 31.167 0 01-.78-.301 7.923 7.923 0 01-.901-.28c-.28-.107-.527-.2-.741-.28l-.921-.44h12.492l-.8.44c-.214.133-.461.24-.741.32a12.8 12.8 0 00-.861.28c-.454.134-.887.274-1.301.42-.414.148-.687.314-.821.501-.107.134-.194.367-.26.7-.067.335-.127.688-.18 1.062-.054.4-.087.767-.1 1.101-.014.334-.02.567-.02.7v-.04zm21.46 10.37l-.8.16 4.444 4.924c.48.561.928 1.075 1.341 1.542.414.467.821.927 1.221 1.381.107.134.221.26.341.38.12.12.233.248.34.381.32.347.661.694 1.021 1.04.361.348.741.722 1.141 1.122.24.214.447.407.621.58.173.174.353.341.54.501.107.08.207.16.301.24.093.08.206.16.34.24.24.16.514.328.821.501.306.174.7.38 1.181.62l1.081.481-1.321.32a.447.447 0 01-.201.04h-.28c-.427 0-.954-.073-1.581-.22a25.084 25.084 0 01-1.942-.54c-.748-.294-1.648-.975-2.703-2.042a122.19 122.19 0 01-3.263-3.444.314.314 0 00-.08-.06c-.027-.013-.04-.033-.04-.06-.24-.24-.467-.48-.681-.72l-.64-.72-5.846-6.247h-1.081v9.49c0 .453.02.847.06 1.18.04.334.194.661.461.981.16.214.446.394.86.54.414.148.848.275 1.302.381.08.027.153.054.22.08.066.027.14.04.22.04.213.054.414.114.6.18.187.067.361.127.521.18l.881.32h-13.573l.921-.28c.213-.026.46-.08.74-.16.281-.08.568-.16.861-.24.294-.106.574-.207.841-.3a4.1 4.1 0 00.68-.3c.161-.054.288-.12.381-.2.093-.08.167-.147.22-.2.134-.16.227-.34.281-.541.053-.2.093-.407.12-.62V73.805c0-.348-.02-.668-.061-.962a1.703 1.703 0 00-.38-.84c-.187-.214-.487-.421-.901-.621a23.67 23.67 0 00-1.301-.581 30.461 30.461 0 00-.781-.3l-.7-.26-.881-.36h7.287c.4.026.774.032 1.121.02.347-.014.694-.034 1.041-.06h.32c.294 0 .587-.007.881-.021a20.41 20.41 0 011.822 0c.307.014.634.034.981.06l.621.08c.2.027.406.054.62.08 1.602.347 3.083 1.188 4.444 2.523 1.362 1.335 2.042 3.19 2.042 5.565 0 1.816-.447 3.243-1.341 4.284-.894 1.041-1.875 1.829-2.943 2.363-.48.24-.961.44-1.441.6-.481.16-.921.294-1.322.4v-.04zm-1.842-14.054a.69.69 0 01-.219.04.4.4 0 01-.181-.04h-.6c-.507 0-.995.033-1.462.1-.467.067-.78.154-.941.26a.908.908 0 00-.42.64c-.04.268-.06.548-.06.842v10.93l1.881-.04c2.109 0 3.924-.58 5.446-1.741 1.522-1.162 2.269-2.69 2.242-4.585v-.48c-.133-1.628-.714-2.956-1.742-3.984-1.027-1.028-2.155-1.635-3.383-1.822a1.505 1.505 0 00-.26-.06 2.108 2.108 0 00-.301-.02v-.04zm43.042 3.684v12.532c0 4.617-1.187 7.814-3.562 9.59-2.376 1.774-5.086 2.648-8.129 2.621-2.91-.026-5.519-.947-7.828-2.762-2.308-1.815-3.463-4.791-3.463-8.929V73.785a.69.69 0 01.04-.22v-.44c0-.107-.007-.207-.02-.3a2.811 2.811 0 00-.06-.301 2.656 2.656 0 00-.12-.46 1.49 1.49 0 00-.24-.42 2.497 2.497 0 00-.24-.201 1.586 1.586 0 00-.361-.2 6.239 6.239 0 00-.721-.3 19.118 19.118 0 01-.8-.301 69 69 0 01-.861-.24c-.28-.08-.527-.147-.741-.2l-.921-.32h13.573l-.88.36a1.796 1.796 0 01-.561.24c-.214.053-.441.107-.681.16a.774.774 0 01-.16.06.783.783 0 00-.16.06 12.52 12.52 0 00-1.301.38c-.414.147-.701.314-.861.501a.538.538 0 01-.1.14.522.522 0 00-.1.14 2.29 2.29 0 00-.281.901c-.026.307-.039.648-.039 1.021V88.54c0 3.203.727 5.499 2.181 6.887 1.455 1.388 3.317 2.255 5.586 2.602.213.027.413.047.6.06.187.014.374.02.561.02 2.216 0 4.165-.82 5.846-2.462 1.681-1.642 2.522-3.837 2.522-6.586V73.425c0-.2-.027-.407-.08-.621a2.185 2.185 0 00-.141-.48 2.701 2.701 0 00-.26-.48 1.36 1.36 0 00-.24-.181 5.106 5.106 0 00-.399-.22 15.24 15.24 0 00-.661-.26 31.242 31.242 0 01-.782-.301 7.763 7.763 0 01-.899-.28l-.741-.28-.922-.44h12.492l-.8.44c-.215.133-.461.24-.741.32-.281.08-.567.173-.862.28-.453.134-.888.274-1.3.42-.415.148-.688.314-.821.501-.108.134-.194.367-.26.7-.067.335-.127.688-.18 1.062-.055.4-.088.767-.102 1.101-.011.334-.019.567-.019.7v-.04zm16.456-2.042c.533 1.147 1.241 2.515 2.123 4.103.88 1.589 1.801 3.237 2.763 4.946.105.186.207.366.299.54.094.174.193.34.301.5a407.146 407.146 0 003.904 6.627c1.214 2.015 1.994 3.25 2.342 3.703.855-1.388 2.055-3.516 3.604-6.386 1.548-2.87 3.177-5.906 4.883-9.109.08-.133.161-.273.241-.42.08-.147.16-.287.24-.42.241-.454.487-.908.741-1.362a65.14 65.14 0 001.322-2.482 41.1 41.1 0 00.5-1.041c.026-.08.059-.16.1-.24.039-.08.072-.16.1-.24.16-.32.315-.661.461-1.022.147-.36.313-.74.501-1.14l2.201-.04c.028.48.053.92.08 1.32.028.401.053.775.08 1.122 0 .113.006.213.02.307.014.093.02.18.02.26.027.454.06.92.101 1.401.039.48.086 1.001.139 1.562.08.988.174 2.042.282 3.15.105 1.107.213 2.221.318 3.35.268 3.15.522 6.052.761 8.694.24 2.65.375 3.997.401 4.05 0 .08.007.154.021.221.012.067.02.14.02.22.052.4.127.78.219 1.142.093.366.193.667.301.907.133.24.401.46.801.66.399.2.827.381 1.281.541.213.08.42.154.62.22.201.067.395.14.58.22l.841.32h-12.452l1.322-.52a.76.76 0 00.301-.06c.092-.04.193-.073.299-.1.027 0 .047-.007.06-.02.014-.013.034-.02.061-.02.426-.133.833-.28 1.22-.44.387-.16.649-.36.782-.6.213-.348.354-.668.42-.962.067-.293.1-.574.1-.84 0-.16-.006-.32-.019-.481a3.973 3.973 0 00-.061-.44 2.18 2.18 0 01-.08-.6l-1.642-18.179a965.68 965.68 0 00-2.282 4.104c-1.04 1.882-2.149 3.89-3.324 6.026a868.066 868.066 0 01-4.403 8.128c-.107.187-.207.374-.301.56-.093.188-.193.388-.301.601-.025.08-.066.167-.119.26a5.293 5.293 0 00-.16.3 254.97 254.97 0 00-1.101 2.303 92.411 92.411 0 01-.622 1.301 23.9 23.9 0 00-.62-1.12 51.407 51.407 0 01-.94-1.722c-.027-.027-.041-.047-.041-.06v-.02a10.884 10.884 0 00-.321-.601c-.105-.187-.213-.374-.318-.56-2.937-5.446-5.353-9.73-7.248-12.853-1.894-3.123-3.03-5.018-3.404-5.686l-1.12 15.295c0 .134-.014.28-.041.44-.025.16-.039.347-.039.561-.027.267-.055.56-.08.881-.028.32-.041.64-.041.96v.281c0 .4.033.788.101 1.161.067.374.18.694.341.961.133.214.359.4.68.56.321.161.667.308 1.04.441a.36.36 0 01.16.04c.053.027.108.04.161.04.107.054.221.1.34.14.119.04.234.087.34.14l1.122.4h-10.452l.683-.32a.58.58 0 00.219-.04c.066-.026.14-.053.221-.08.08-.053.16-.093.24-.12l.241-.08c.453-.186.879-.38 1.28-.58.401-.2.68-.434.841-.701.133-.267.24-.754.32-1.461.081-.708.147-1.468.2-2.27 0-.186.008-.366.021-.54a7.82 7.82 0 00.02-.54c.107-.908.207-1.862.299-2.87.094-1 .168-2.008.221-3.022.16-2.143.287-4.184.381-6.14.092-1.949.18-3.457.26-4.531a36.89 36.89 0 00.1-1.922c.014-.587.019-1.174.019-1.761v-2.649l2.323-.04c.08.266.18.58.301.94.12.36.26.74.421 1.141.052.16.105.32.16.48.053.16.119.32.199.481.028.08.061.16.1.24.039.08.074.16.1.24v-.04z" fill="#fff"/><defs><linearGradient id="paint0_linear" x1="-5.073" y1="42.116" x2="82.291" y2="121.201" gradientUnits="userSpaceOnUse"><stop stop-color="#CFA550"/><stop offset=".101" stop-color="#DCBA56"/><stop offset=".147" stop-color="#FDE064"/><stop offset=".217" stop-color="#FFFA99"/><stop offset=".256" stop-color="#FDE064"/><stop offset=".349" stop-color="#DCBA56"/><stop offset=".519" stop-color="#CFA550"/><stop offset=".69" stop-color="#FDE064"/><stop offset=".783" stop-color="#FFFA99"/><stop offset=".829" stop-color="#FDE064"/><stop offset=".899" stop-color="#CFA550"/><stop offset="1" stop-color="#CFA550"/></linearGradient><linearGradient id="paint1_linear" x1="-2.315" y1="-1.373" x2="46.627" y2="41.524" gradientUnits="userSpaceOnUse"><stop stop-color="#CFA550"/><stop offset=".101" stop-color="#DCBA56"/><stop offset=".147" stop-color="#FDE064"/><stop offset=".217" stop-color="#FFFA99"/><stop offset=".256" stop-color="#FDE064"/><stop offset=".349" stop-color="#DCBA56"/><stop offset=".519" stop-color="#CFA550"/><stop offset=".69" stop-color="#FDE064"/><stop offset=".783" stop-color="#FFFA99"/><stop offset=".829" stop-color="#FDE064"/><stop offset=".899" stop-color="#CFA550"/><stop offset="1" stop-color="#CFA550"/></linearGradient><linearGradient id="paint2_linear" x1="35.461" y1="8.186" x2="62.157" y2="36.545" gradientUnits="userSpaceOnUse"><stop stop-color="#CFA550"/><stop offset=".101" stop-color="#DCBA56"/><stop offset=".147" stop-color="#FDE064"/><stop offset=".217" stop-color="#FFFA99"/><stop offset=".256" stop-color="#FDE064"/><stop offset=".349" stop-color="#DCBA56"/><stop offset=".519" stop-color="#CFA550"/><stop offset=".69" stop-color="#FDE064"/><stop offset=".783" stop-color="#FFFA99"/><stop offset=".829" stop-color="#FDE064"/><stop offset=".899" stop-color="#CFA550"/><stop offset="1" stop-color="#CFA550"/></linearGradient></defs></svg>