<svg width="177" height="30" fill="none" xmlns="http://www.w3.org/2000/svg"><path d="M65.094 11.912H54.692L51.5 1.875l-3.192 10.037H37.906l8.508 6.176-3.313 10.037 8.399-6.22 8.4 6.22-3.32-10.037 8.514-6.176zm-37 0H17.692L14.5 1.875l-3.192 10.037H.906l8.508 6.176-3.313 10.037 8.399-6.22 8.4 6.22-3.32-10.037 8.514-6.176zm111 0h-10.402L125.5 1.875l-3.192 10.037h-10.402l8.508 6.176-3.313 10.037 8.399-6.22 8.399 6.22-3.319-10.037 8.514-6.176zm37 0h-10.402L162.5 1.875l-3.192 10.037h-10.402l8.508 6.176-3.313 10.037 8.399-6.22 8.399 6.22-3.319-10.037 8.514-6.176zm-74 0H91.692L88.5 1.875l-3.192 10.037H74.906l8.508 6.176-3.313 10.037 8.399-6.22 8.4 6.22-3.32-10.037 8.514-6.176z" fill="#FBBC05"/></svg>