<svg width="283" height="61" fill="none" xmlns="http://www.w3.org/2000/svg"><g clip-path="url(#clip0)"><path d="M281.41 40.76c-.878 0-1.591.723-1.591 1.613s.713 1.611 1.591 1.611c.877 0 1.59-.722 1.59-1.611 0-.89-.713-1.612-1.59-1.612zm0 2.969a1.35 1.35 0 01-1.339-1.356c0-.75.602-1.357 1.339-1.357.74 0 1.341.61 1.341 1.357 0 .746-.602 1.356-1.341 1.356zm.517-1.633c0-.293-.205-.466-.507-.466h-.508v1.468h.248v-.531h.273l.262.531h.269l-.289-.586a.432.432 0 00.252-.416zm-.517.243h-.246v-.488h.246c.168 0 .269.085.269.242-.001.16-.105.245-.269.245zM89.733 24.447V20.55h-5.899v23.194h5.899v-13.91c0-2.518 1.594-3.755 4.08-3.755h3.228v-5.531h-2.758c-2.159 0-4.035 1.141-4.55 3.898zm12.834-13.072c-2.018 0-3.565 1.615-3.565 3.66 0 1.997 1.547 3.612 3.565 3.612s3.565-1.615 3.565-3.612c0-2.045-1.547-3.66-3.565-3.66zm-2.943 32.367h5.886V20.55h-5.886v23.194zm33.921-11.596c0 6.621-5.297 11.989-11.832 11.989-2.637 0-5.028-.876-6.945-2.355v8.771h-5.885V20.55h5.885v1.963a11.286 11.286 0 016.945-2.355c6.535 0 11.832 5.367 11.832 11.989zm-5.923 0c0-3.596-2.879-6.513-6.427-6.513-3.548 0-6.427 2.917-6.427 6.513 0 3.595 2.879 6.512 6.427 6.512 3.548 0 6.427-2.914 6.427-6.512zm108.217-2.035l-3.434-.954c-2.26-.596-3.138-1.298-3.138-2.508 0-1.18 1.238-2.004 3.007-2.004 1.685 0 3.006 1.118 3.006 2.55v.132h5.425v-.133c0-4.209-3.386-7.037-8.431-7.037-4.994 0-8.623 2.825-8.623 6.72 0 3.03 1.981 5.313 5.438 6.26l3.289.91c2.499.702 3.427 1.48 3.427 2.873 0 1.469-1.342 2.457-3.34 2.457-2.081 0-3.484-1.336-3.484-3.32v-.132h-5.758v.133c0 4.757 3.781 8.083 9.195 8.083 5.217 0 9.004-3.247 9.004-7.719 0-2.194-.969-5.063-5.583-6.31zm-81.416-9.562h5.886v23.194h-5.886v-1.964a11.286 11.286 0 01-6.945 2.355c-6.534 0-11.831-5.367-11.831-11.988 0-6.622 5.297-11.99 11.831-11.99 2.637 0 5.028.877 6.945 2.356v-1.963zm0 11.597c0-3.599-2.879-6.513-6.427-6.513-3.548 0-6.427 2.917-6.427 6.513 0 3.595 2.879 6.512 6.427 6.512 3.552 0 6.427-2.914 6.427-6.512zm27.138-19.85h5.885v31.45h-5.885v-1.963a11.288 11.288 0 01-6.945 2.355c-6.535 0-11.832-5.368-11.832-11.989 0-6.622 5.297-11.989 11.832-11.989 2.636 0 5.028.876 6.945 2.355v-10.22zm0 19.85c0-3.596-2.879-6.513-6.427-6.513-3.548 0-6.427 2.917-6.427 6.513 0 3.595 2.875 6.512 6.427 6.512 3.548 0 6.427-2.914 6.427-6.512zm33.211 11.596h5.885V20.55h-5.885v23.194zm2.943-32.367c-2.018 0-3.565 1.615-3.565 3.66 0 1.997 1.547 3.612 3.565 3.612 2.017 0 3.565-1.615 3.565-3.612 0-2.045-1.548-3.66-3.565-3.66zm49.145 20.77c0 6.622-5.296 11.99-11.831 11.99-6.535 0-11.832-5.368-11.832-11.99 0-6.62 5.297-11.988 11.832-11.988 6.535 0 11.831 5.367 11.831 11.989zm-5.404 0c0-3.595-2.879-6.512-6.427-6.512-3.548 0-6.427 2.917-6.427 6.513 0 3.595 2.875 6.512 6.427 6.512 3.548 0 6.427-2.914 6.427-6.512zM86.719 12.296H64.143v5.32H72.5v26.128h5.865v-26.13h8.358v-5.32h-.004zM200.895 37.39l-5.236-16.841h-6.182l7.854 23.194h7.082l7.9-23.194h-6.181l-5.237 16.841zm74.589-12.943V20.55h-5.899v23.194h5.899v-13.91c0-2.518 1.594-3.755 4.079-3.755h3.229v-5.531h-2.758c-2.159 0-4.032 1.141-4.55 3.898z" fill="#000"/><path d="M30.101 61c16.624 0 30.1-13.655 30.1-30.5S46.726 0 30.102 0C13.477 0 .001 13.655.001 30.5S13.477 61 30.101 61z" fill="#34E0A1"/><path d="M48.691 24.55l3.633-4.005h-8.055a24.777 24.777 0 00-14.17-4.416 24.719 24.719 0 00-14.141 4.416H7.883l3.632 4.005a11.293 11.293 0 00-3.622 8.315c0 6.212 4.97 11.249 11.102 11.249a10.99 10.99 0 007.547-2.999l3.558 3.926 3.558-3.922a10.978 10.978 0 007.544 2.995c6.13 0 11.108-5.037 11.108-11.25a11.266 11.266 0 00-3.619-8.314zM18.998 40.478c-4.15 0-7.513-3.408-7.513-7.613 0-4.206 3.363-7.613 7.513-7.613s7.513 3.408 7.513 7.613-3.363 7.613-7.513 7.613zm11.105-7.835c0-5.01-3.595-9.31-8.34-11.147a21.314 21.314 0 018.337-1.69c2.956 0 5.774.603 8.34 1.69-4.741 1.84-8.337 6.138-8.337 11.147zm11.102 7.835c-4.15 0-7.513-3.408-7.513-7.613 0-4.206 3.363-7.613 7.513-7.613s7.513 3.408 7.513 7.613-3.363 7.613-7.513 7.613zm0-11.607c-2.176 0-3.938 1.786-3.938 3.99 0 2.205 1.762 3.99 3.938 3.99s3.938-1.785 3.938-3.99c0-2.201-1.762-3.99-3.938-3.99zm-18.269 3.994c0 2.205-1.762 3.99-3.938 3.99s-3.938-1.785-3.938-3.99 1.762-3.99 3.938-3.99c2.176-.004 3.938 1.785 3.938 3.99z" fill="#000"/></g><defs><clipPath id="clip0"><path fill="#fff" d="M0 0h283v61H0z"/></clipPath></defs></svg>