<svg width="255" height="140" fill="none" xmlns="http://www.w3.org/2000/svg"><path d="M29.356 110.815V81.299l21.804-62.53h-9.255L24.877 68.713l-14.77-41.294H0l20.064 53.55v29.847h9.292z" fill="red"/><path d="M69.485 99.295c-1.665 2.539-4.812 4.637-7.996 4.637-4.701 0-6.922-4.416-6.922-11.188 0-7.582 2.48-12.587 13.845-12.587h1.073v19.138zm9.033-1.767V69.89c0-14.243-5.775-18.66-16.214-18.66-5.96 0-11.365 2.43-14.067 4.638l1.74 8.06c3.072-2.687 7.07-5.116 11.734-5.116 5.183 0 7.774 3.239 7.774 10.968v3.496H68.19c-16.548 0-23.026 7.913-23.026 20.536 0 11.556 5.775 17.85 14.215 17.85 5.183 0 8.44-2.245 11.032-5.484h.592c.111 1.509.481 3.386.815 4.637h7.737a87.614 87.614 0 01-1.037-13.286zm20.545-32.313c2.11-2.907 5.368-5.815 9.255-5.815 3.517 0 5.516 1.509 5.516 5.925v45.489h9.255V64.516c0-8.98-4.11-13.286-11.846-13.286-5.516 0-9.959 3.607-11.624 5.815h-.556v-5.116h-9.18v58.885h9.18V65.215zm51.012 46.446c4.813 0 8.107-2.245 10.699-5.484h.592l.703 4.637h6.812V27.418H159.7v26.02c-1.74-1.288-4.664-2.208-7.478-2.208-11.883 0-20.101 10.6-20.101 32.423 0 18.181 6.367 28.008 17.954 28.008zm9.625-12.256c-1.518 2.319-3.961 4.527-8.551 4.527-6.701 0-9.255-8.391-9.255-22.156 0-11.997 3.517-23.075 10.884-23.075 3.072 0 5.071.92 6.922 2.797v37.907zm52.234 7.471l-2.111-6.992c-2.332 1.619-6.108 3.938-11.253 3.938-7.293 0-11.032-6.993-11.032-20.279h24.618v-5.042c0-19.947-6.442-27.271-16.289-27.271-12.549 0-17.843 13.764-17.843 32.644 0 18.108 7.515 27.787 19.694 27.787 5.886 0 10.477-1.877 14.216-4.785zm-16.067-48.175c5.257 0 6.923 7.324 6.923 17.371h-15.141c.593-10.489 2.592-17.371 8.218-17.371zm47.162-6.662l-8.107 21.346-7.626-21.346h-9.476l11.142 28.339-12.327 30.436h9.033l8.921-24.253 9.144 24.253h9.513l-12.327-31.246 11.032-27.529h-8.922z" fill="#000"/></svg>