<svg width="50" height="50" fill="none" xmlns="http://www.w3.org/2000/svg"><path d="M32.307 16.314H17.692c-2.867 0-5.192 2.3-5.192 5.136v7.224c0 2.838 2.325 5.135 5.192 5.135h14.615c2.868 0 5.193-2.3 5.193-5.135V21.45c0-2.838-2.325-5.136-5.193-5.136zm-3.51 9.1L21.96 28.64a.276.276 0 01-.393-.248v-6.65a.275.275 0 01.4-.242l6.835 3.424a.275.275 0 01-.005.49z" fill="#fff"/><path d="M10 5a5 5 0 00-5 5v30a5 5 0 005 5h30a5 5 0 005-5V10a5 5 0 00-5-5H10zm0-5h30a10 10 0 0110 10v30a10 10 0 01-10 10H10A10 10 0 010 40V10A10 10 0 0110 0z" fill="#fff"/></svg>